STARTFONT 2.1
COMMENT
COMMENT Converted from OpenType font "GenBasB.ttf" by "otf2bdf 3.0".
COMMENT
FONT -FreeType-Gentium Basic-Bold-R-Normal--23-230-72-72-P-114-ISO10646-1
SIZE 23 72 72
FONTBOUNDINGBOX 36 33 -12 -8
STARTPROPERTIES 19
FOUNDRY "FreeType"
FAMILY_NAME "Gentium Basic"
WEIGHT_NAME "Bold"
SLANT "R"
SETWIDTH_NAME "Normal"
ADD_STYLE_NAME ""
PIXEL_SIZE 23
POINT_SIZE 230
RESOLUTION_X 72
RESOLUTION_Y 72
SPACING "P"
AVERAGE_WIDTH 114
CHARSET_REGISTRY "ISO10646"
CHARSET_ENCODING "1"
FONT_ASCENT 20
FONT_DESCENT 6
COPYRIGHT "Copyright (c) SIL International, 2003-2008."
_OTF_FONTFILE "GenBasB.ttf"
_OTF_PSNAME "GentiumBasic-Bold"
ENDPROPERTIES
CHARS 704
STARTCHAR 0020
ENCODING 32
SWIDTH 260 0
DWIDTH 6 0
BBX 0 0 0 0
BITMAP
ENDCHAR
STARTCHAR 0021
ENCODING 33
SWIDTH 304 0
DWIDTH 7 0
BBX 4 17 2 0
BITMAP
60
E0
E0
E0
E0
E0
E0
E0
E0
40
40
40
00
00
60
F0
E0
ENDCHAR
STARTCHAR 0022
ENCODING 34
SWIDTH 478 0
DWIDTH 11 0
BBX 7 8 2 9
BITMAP
66
EE
CE
CE
C6
C6
C6
C4
ENDCHAR
STARTCHAR 0023
ENCODING 35
SWIDTH 521 0
DWIDTH 12 0
BBX 11 13 1 1
BITMAP
0CC0
0C80
0980
7FE0
1900
1300
1300
3300
FF80
2600
2600
6400
8C00
ENDCHAR
STARTCHAR 0024
ENCODING 36
SWIDTH 521 0
DWIDTH 12 0
BBX 10 18 1 -2
BITMAP
0C00
0C00
3F80
7FC0
CD80
CC80
EC00
7C00
3F00
0F80
0DC0
8CC0
8CC0
CCC0
FF80
7F00
0C00
0C00
ENDCHAR
STARTCHAR 0025
ENCODING 37
SWIDTH 739 0
DWIDTH 17 0
BBX 15 14 1 0
BITMAP
3818
4C10
C630
C660
C6C0
C780
6580
3B38
0644
0CC6
0CC6
18C6
3064
6038
ENDCHAR
STARTCHAR 0026
ENCODING 38
SWIDTH 695 0
DWIDTH 16 0
BBX 15 16 1 0
BITMAP
0F00
1180
3180
3180
3300
3E00
3C00
1CFE
7C78
7E30
CF30
C7A0
C3E0
C1F0
61FC
3E38
ENDCHAR
STARTCHAR 0027
ENCODING 39
SWIDTH 260 0
DWIDTH 6 0
BBX 3 8 2 9
BITMAP
60
E0
C0
C0
C0
C0
C0
C0
ENDCHAR
STARTCHAR 0028
ENCODING 40
SWIDTH 347 0
DWIDTH 8 0
BBX 5 22 2 -4
BITMAP
08
18
30
60
60
60
C0
C0
C0
C0
C0
C0
C0
C0
C0
C0
60
60
60
30
18
08
ENDCHAR
STARTCHAR 0029
ENCODING 41
SWIDTH 347 0
DWIDTH 8 0
BBX 5 22 1 -4
BITMAP
80
C0
60
30
30
30
18
18
18
18
18
18
18
18
18
18
30
30
30
60
C0
80
ENDCHAR
STARTCHAR 002A
ENCODING 42
SWIDTH 434 0
DWIDTH 10 0
BBX 9 10 1 8
BITMAP
1800
1800
DB00
FF80
3C00
3E00
FF00
DB00
1800
1800
ENDCHAR
STARTCHAR 002B
ENCODING 43
SWIDTH 434 0
DWIDTH 10 0
BBX 8 8 1 2
BITMAP
18
18
18
FF
18
18
18
18
ENDCHAR
STARTCHAR 002C
ENCODING 44
SWIDTH 260 0
DWIDTH 6 0
BBX 4 7 1 -4
BITMAP
30
F0
30
30
20
60
40
ENDCHAR
STARTCHAR 002D
ENCODING 45
SWIDTH 347 0
DWIDTH 8 0
BBX 7 1 1 5
BITMAP
FE
ENDCHAR
STARTCHAR 002E
ENCODING 46
SWIDTH 260 0
DWIDTH 6 0
BBX 4 3 1 0
BITMAP
60
F0
E0
ENDCHAR
STARTCHAR 002F
ENCODING 47
SWIDTH 478 0
DWIDTH 11 0
BBX 11 22 0 -4
BITMAP
0060
00C0
00C0
0180
0180
0380
0300
0300
0700
0600
0600
0C00
0C00
1C00
1800
1800
3800
3000
3000
6000
6000
C000
ENDCHAR
STARTCHAR 0030
ENCODING 48
SWIDTH 521 0
DWIDTH 12 0
BBX 10 14 1 0
BITMAP
1E00
3300
6180
6180
E1C0
E1C0
E1C0
E1C0
E1C0
E1C0
6180
6180
3300
1E00
ENDCHAR
STARTCHAR 0031
ENCODING 49
SWIDTH 521 0
DWIDTH 12 0
BBX 8 14 2 0
BITMAP
08
78
F8
18
18
18
18
18
18
18
18
18
18
FF
ENDCHAR
STARTCHAR 0032
ENCODING 50
SWIDTH 478 0
DWIDTH 11 0
BBX 8 14 2 0
BITMAP
3E
67
E3
C3
03
06
04
0C
18
30
21
41
FF
FF
ENDCHAR
STARTCHAR 0033
ENCODING 51
SWIDTH 478 0
DWIDTH 11 0
BBX 9 14 1 0
BITMAP
1E00
6300
E300
4300
0300
0600
1F00
0780
0380
0180
0180
0180
4300
BE00
ENDCHAR
STARTCHAR 0034
ENCODING 52
SWIDTH 521 0
DWIDTH 12 0
BBX 10 14 1 0
BITMAP
0100
0700
0700
0F00
1B00
1300
3300
6300
6300
FFC0
0300
0300
0300
0FC0
ENDCHAR
STARTCHAR 0035
ENCODING 53
SWIDTH 521 0
DWIDTH 12 0
BBX 9 14 1 0
BITMAP
3F80
3F00
2000
6000
6000
7E00
4300
0180
0180
0180
0180
0180
C300
3E00
ENDCHAR
STARTCHAR 0036
ENCODING 54
SWIDTH 521 0
DWIDTH 12 0
BBX 10 14 1 0
BITMAP
0700
1C00
3000
6000
4000
DF00
E180
C0C0
C0C0
C0C0
C0C0
6080
3180
1E00
ENDCHAR
STARTCHAR 0037
ENCODING 55
SWIDTH 521 0
DWIDTH 12 0
BBX 10 14 1 0
BITMAP
7FC0
FF80
8180
8180
0300
0300
0200
0600
0600
0C00
0C00
1800
3800
3000
ENDCHAR
STARTCHAR 0038
ENCODING 56
SWIDTH 478 0
DWIDTH 11 0
BBX 9 14 1 0
BITMAP
3E00
7180
F180
F180
F980
7F00
3F00
3F80
6380
C180
C180
C180
6300
3E00
ENDCHAR
STARTCHAR 0039
ENCODING 57
SWIDTH 521 0
DWIDTH 12 0
BBX 10 14 1 0
BITMAP
1F00
2380
4180
C0C0
C0C0
C0C0
C0C0
61C0
3EC0
0080
0180
0300
0E00
3800
ENDCHAR
STARTCHAR 003A
ENCODING 58
SWIDTH 260 0
DWIDTH 6 0
BBX 4 10 1 0
BITMAP
E0
F0
60
00
00
00
00
60
F0
E0
ENDCHAR
STARTCHAR 003B
ENCODING 59
SWIDTH 260 0
DWIDTH 6 0
BBX 4 15 1 -4
BITMAP
60
F0
E0
00
00
00
00
00
30
F0
30
30
20
60
40
ENDCHAR
STARTCHAR 003C
ENCODING 60
SWIDTH 434 0
DWIDTH 10 0
BBX 9 7 1 3
BITMAP
0180
0F80
7C00
E000
F800
1F00
0380
ENDCHAR
STARTCHAR 003D
ENCODING 61
SWIDTH 434 0
DWIDTH 10 0
BBX 9 4 1 4
BITMAP
FF80
0000
0000
FF80
ENDCHAR
STARTCHAR 003E
ENCODING 62
SWIDTH 434 0
DWIDTH 10 0
BBX 9 7 1 3
BITMAP
C000
F800
1F00
0380
1F00
F000
8000
ENDCHAR
STARTCHAR 003F
ENCODING 63
SWIDTH 434 0
DWIDTH 10 0
BBX 9 16 1 0
BITMAP
3F00
6780
E380
E380
0380
0700
0700
0E00
0C00
1800
1800
1800
0000
1C00
3C00
3800
ENDCHAR
STARTCHAR 0040
ENCODING 64
SWIDTH 869 0
DWIDTH 20 0
BBX 18 20 1 -5
BITMAP
01F800
07FE00
1C0F00
380380
300180
61E9C0
6318C0
C218C0
C618C0
C618C0
C618C0
C61880
C73980
E3FF00
61DE00
700000
380100
3E0700
0FFC00
03F000
ENDCHAR
STARTCHAR 0041
ENCODING 65
SWIDTH 608 0
DWIDTH 14 0
BBX 14 14 0 0
BITMAP
0100
0780
0780
0580
0DC0
0CC0
08E0
18E0
1FE0
1070
3070
3030
2038
F87C
ENDCHAR
STARTCHAR 0042
ENCODING 66
SWIDTH 608 0
DWIDTH 14 0
BBX 13 14 0 0
BITMAP
7F80
B0C0
3060
3060
3060
30C0
3FE0
3070
3038
3038
3038
3038
3070
FFE0
ENDCHAR
STARTCHAR 0043
ENCODING 67
SWIDTH 565 0
DWIDTH 13 0
BBX 11 14 1 0
BITMAP
0FC0
31C0
6080
4000
C000
C000
C000
C000
C000
C000
E000
7060
7F80
1F00
ENDCHAR
STARTCHAR 0044
ENCODING 68
SWIDTH 652 0
DWIDTH 15 0
BBX 14 14 0 0
BITMAP
7FC0
F0F0
3038
3018
301C
301C
301C
301C
301C
301C
3018
3038
30F0
FFC0
ENDCHAR
STARTCHAR 0045
ENCODING 69
SWIDTH 521 0
DWIDTH 12 0
BBX 12 14 0 0
BITMAP
FFE0
3860
3860
3840
3800
3800
3FC0
3880
3800
3800
3800
3830
3820
FFE0
ENDCHAR
STARTCHAR 0046
ENCODING 70
SWIDTH 521 0
DWIDTH 12 0
BBX 11 14 0 0
BITMAP
FFE0
3860
3820
3820
3800
3800
3F80
3900
3800
3800
3800
3800
3800
FE00
ENDCHAR
STARTCHAR 0047
ENCODING 71
SWIDTH 608 0
DWIDTH 14 0
BBX 12 14 1 0
BITMAP
0FC0
10E0
2040
6000
4000
C000
C000
C000
C1F0
C060
6060
6060
3060
0F80
ENDCHAR
STARTCHAR 0048
ENCODING 72
SWIDTH 695 0
DWIDTH 16 0
BBX 16 14 0 0
BITMAP
FC3F
300C
300C
300C
300C
300C
3FFC
300C
300C
300C
300C
300C
300C
FC3F
ENDCHAR
STARTCHAR 0049
ENCODING 73
SWIDTH 347 0
DWIDTH 8 0
BBX 6 14 1 0
BITMAP
FC
30
30
30
30
30
30
30
30
30
30
30
30
FC
ENDCHAR
STARTCHAR 004A
ENCODING 74
SWIDTH 347 0
DWIDTH 8 0
BBX 10 19 -3 -5
BITMAP
0FC0
0300
0300
0300
0300
0300
0300
0300
0300
0300
0300
0300
0300
0300
0300
0300
2600
7C00
F800
ENDCHAR
STARTCHAR 004B
ENCODING 75
SWIDTH 608 0
DWIDTH 14 0
BBX 13 14 0 0
BITMAP
FCF8
30E0
30C0
3180
3300
3600
3C00
3E00
3700
3380
31C0
30E0
3078
FC78
ENDCHAR
STARTCHAR 004C
ENCODING 76
SWIDTH 521 0
DWIDTH 12 0
BBX 11 14 0 0
BITMAP
FC00
3000
3000
3000
3000
3000
3000
3000
3000
3000
3000
3060
3040
FFC0
ENDCHAR
STARTCHAR 004D
ENCODING 77
SWIDTH 826 0
DWIDTH 19 0
BBX 18 14 1 0
BITMAP
F00780
780F00
780F00
7C0F00
7C1F00
6C1700
6E3700
663700
676700
636700
63C700
63C700
618700
F18FC0
ENDCHAR
STARTCHAR 004E
ENCODING 78
SWIDTH 652 0
DWIDTH 15 0
BBX 15 14 0 0
BITMAP
F87E
3818
3C18
3E18
3618
3718
3398
3198
31D8
30F8
3078
3038
3038
FC18
ENDCHAR
STARTCHAR 004F
ENCODING 79
SWIDTH 608 0
DWIDTH 14 0
BBX 12 14 1 0
BITMAP
0F80
30C0
6060
4060
C030
C030
C030
C030
C030
C030
6060
6040
3080
1F00
ENDCHAR
STARTCHAR 0050
ENCODING 80
SWIDTH 565 0
DWIDTH 13 0
BBX 12 14 0 0
BITMAP
7FC0
B0E0
3030
3030
3030
3030
3060
3780
3000
3000
3000
3000
3000
FC00
ENDCHAR
STARTCHAR 0051
ENCODING 81
SWIDTH 608 0
DWIDTH 14 0
BBX 15 18 1 -4
BITMAP
0F80
30C0
6060
4060
C030
C030
C030
C030
C030
C030
6060
6060
30C0
1F00
01C0
00E4
007E
0018
ENDCHAR
STARTCHAR 0052
ENCODING 82
SWIDTH 608 0
DWIDTH 14 0
BBX 14 14 0 0
BITMAP
7FC0
F0E0
3030
3030
3030
3060
3FC0
3380
31C0
31C0
30E0
3070
307C
FC3C
ENDCHAR
STARTCHAR 0053
ENCODING 83
SWIDTH 521 0
DWIDTH 12 0
BBX 10 14 1 0
BITMAP
1F80
61C0
C080
C000
F000
7C00
3F00
0F80
03C0
01C0
80C0
C080
E180
FE00
ENDCHAR
STARTCHAR 0054
ENCODING 84
SWIDTH 565 0
DWIDTH 13 0
BBX 12 14 1 0
BITMAP
FFF0
C630
8610
8610
0600
0600
0600
0600
0600
0600
0600
0600
0600
1F80
ENDCHAR
STARTCHAR 0055
ENCODING 85
SWIDTH 652 0
DWIDTH 15 0
BBX 15 14 0 0
BITMAP
FC7E
3018
3018
3018
3018
3018
3018
3018
3018
3018
3018
1830
1820
07C0
ENDCHAR
STARTCHAR 0056
ENCODING 86
SWIDTH 652 0
DWIDTH 15 0
BBX 15 14 0 0
BITMAP
FC3E
3808
3818
3810
1C30
1C30
0E20
0E60
0660
0740
07C0
0380
0380
0100
ENDCHAR
STARTCHAR 0057
ENCODING 87
SWIDTH 869 0
DWIDTH 20 0
BBX 19 14 0 0
BITMAP
FC63E0
3060C0
3870C0
38F080
38F180
18B980
199980
1D1D00
1D1D00
0F0F00
0E0F00
0E0700
0E0600
040600
ENDCHAR
STARTCHAR 0058
ENCODING 88
SWIDTH 608 0
DWIDTH 14 0
BBX 14 14 0 0
BITMAP
FC7C
3830
1C60
1C60
0EC0
0780
0780
0780
07C0
0CE0
18E0
1870
3038
F8FC
ENDCHAR
STARTCHAR 0059
ENCODING 89
SWIDTH 608 0
DWIDTH 14 0
BBX 13 14 0 0
BITMAP
F078
3830
1C60
1C60
0EC0
0680
0780
0300
0300
0300
0300
0300
0300
0FC0
ENDCHAR
STARTCHAR 005A
ENCODING 90
SWIDTH 565 0
DWIDTH 13 0
BBX 11 14 1 0
BITMAP
7FE0
C1C0
C380
8380
0700
0F00
0E00
1C00
1C00
3800
7820
7060
E060
FFE0
ENDCHAR
STARTCHAR 005B
ENCODING 91
SWIDTH 347 0
DWIDTH 8 0
BBX 6 21 2 -3
BITMAP
F8
C0
C0
C0
C0
C0
C0
C0
C0
C0
C0
C0
C0
C0
C0
C0
C0
C0
C0
C0
FC
ENDCHAR
STARTCHAR 005C
ENCODING 92
SWIDTH 478 0
DWIDTH 11 0
BBX 10 22 0 -4
BITMAP
C000
6000
6000
3000
3000
3000
1800
1800
1C00
0C00
0C00
0600
0600
0600
0300
0300
0300
0180
0180
01C0
00C0
00C0
ENDCHAR
STARTCHAR 005D
ENCODING 93
SWIDTH 304 0
DWIDTH 7 0
BBX 5 21 1 -3
BITMAP
F8
18
18
18
18
18
18
18
18
18
18
18
18
18
18
18
18
18
18
18
F8
ENDCHAR
STARTCHAR 005E
ENCODING 94
SWIDTH 478 0
DWIDTH 11 0
BBX 9 11 1 6
BITMAP
0800
0C00
1C00
1600
3600
2200
2300
6300
4180
4180
8180
ENDCHAR
STARTCHAR 005F
ENCODING 95
SWIDTH 478 0
DWIDTH 11 0
BBX 10 1 1 -3
BITMAP
FFC0
ENDCHAR
STARTCHAR 0060
ENCODING 96
SWIDTH 304 0
DWIDTH 7 0
BBX 5 5 0 12
BITMAP
E0
E0
70
38
08
ENDCHAR
STARTCHAR 0061
ENCODING 97
SWIDTH 478 0
DWIDTH 11 0
BBX 10 10 1 0
BITMAP
3E00
6300
E300
0300
3F00
6300
C300
C300
FFC0
7B00
ENDCHAR
STARTCHAR 0062
ENCODING 98
SWIDTH 521 0
DWIDTH 12 0
BBX 11 17 0 0
BITMAP
6000
E000
6000
6000
6000
6000
6000
7780
7FC0
70E0
6060
6060
6060
6040
60C0
7F80
1E00
ENDCHAR
STARTCHAR 0063
ENCODING 99
SWIDTH 434 0
DWIDTH 10 0
BBX 9 10 1 0
BITMAP
1F00
6380
4100
C000
C000
C000
C000
E100
7F80
3C00
ENDCHAR
STARTCHAR 0064
ENCODING 100
SWIDTH 565 0
DWIDTH 13 0
BBX 12 17 1 0
BITMAP
00C0
03C0
00C0
00C0
00C0
00C0
00C0
1FC0
21C0
40C0
C0C0
C0C0
C0C0
C0C0
61C0
7FF0
3CC0
ENDCHAR
STARTCHAR 0065
ENCODING 101
SWIDTH 478 0
DWIDTH 11 0
BBX 9 10 1 0
BITMAP
1E00
6300
4180
C180
FF80
C000
C000
E180
7F00
3E00
ENDCHAR
STARTCHAR 0066
ENCODING 102
SWIDTH 347 0
DWIDTH 8 0
BBX 9 17 0 0
BITMAP
0780
1900
1000
3000
3000
3000
3000
7E00
B000
3000
3000
3000
3000
3000
3000
3000
7C00
ENDCHAR
STARTCHAR 0067
ENCODING 103
SWIDTH 521 0
DWIDTH 12 0
BBX 11 15 1 -5
BITMAP
1E60
23C0
6180
6180
6180
7300
3E00
3000
7C00
3F80
6FC0
C0C0
C0C0
E180
3E00
ENDCHAR
STARTCHAR 0068
ENCODING 104
SWIDTH 565 0
DWIDTH 13 0
BBX 12 17 1 0
BITMAP
3000
F000
3000
3000
3000
3000
3000
3380
3FC0
38C0
30C0
30C0
30C0
30C0
30C0
30C0
F9F0
ENDCHAR
STARTCHAR 0069
ENCODING 105
SWIDTH 304 0
DWIDTH 7 0
BBX 5 15 1 0
BITMAP
30
70
30
00
00
70
F0
30
30
30
30
30
30
30
F8
ENDCHAR
STARTCHAR 006A
ENCODING 106
SWIDTH 260 0
DWIDTH 6 0
BBX 7 20 -2 -5
BITMAP
06
0E
06
00
00
06
0E
06
06
06
06
06
06
06
06
06
06
44
F8
F0
ENDCHAR
STARTCHAR 006B
ENCODING 107
SWIDTH 565 0
DWIDTH 13 0
BBX 12 17 1 0
BITMAP
3000
F000
3000
3000
3000
3000
3000
31F0
31C0
3300
3600
3E00
3700
3380
31C0
31E0
F8F0
ENDCHAR
STARTCHAR 006C
ENCODING 108
SWIDTH 304 0
DWIDTH 7 0
BBX 6 17 1 0
BITMAP
30
F0
30
30
30
30
30
30
30
30
30
30
30
30
30
30
FC
ENDCHAR
STARTCHAR 006D
ENCODING 109
SWIDTH 826 0
DWIDTH 19 0
BBX 18 10 1 0
BITMAP
678E00
FFFF00
70E300
60C300
60C300
60C300
60C300
60C300
60C300
F1E7C0
ENDCHAR
STARTCHAR 006E
ENCODING 110
SWIDTH 565 0
DWIDTH 13 0
BBX 12 10 1 0
BITMAP
3380
F7C0
38C0
30C0
30C0
30C0
30C0
30C0
30C0
F9F0
ENDCHAR
STARTCHAR 006F
ENCODING 111
SWIDTH 521 0
DWIDTH 12 0
BBX 10 10 1 0
BITMAP
1E00
2180
4180
C0C0
C0C0
C0C0
C0C0
6080
7100
1E00
ENDCHAR
STARTCHAR 0070
ENCODING 112
SWIDTH 565 0
DWIDTH 13 0
BBX 11 15 1 -5
BITMAP
3380
FFC0
38E0
3060
3060
3060
3060
30C0
3F80
3700
3000
3000
3000
3000
FC00
ENDCHAR
STARTCHAR 0071
ENCODING 113
SWIDTH 565 0
DWIDTH 13 0
BBX 11 15 1 -5
BITMAP
1E40
61C0
40C0
C0C0
C0C0
C0C0
C0C0
E1C0
7FC0
3CC0
00C0
00C0
00C0
00C0
03E0
ENDCHAR
STARTCHAR 0072
ENCODING 114
SWIDTH 434 0
DWIDTH 10 0
BBX 9 10 1 0
BITMAP
7780
FF80
7980
7100
7000
7000
7000
7000
7000
FC00
ENDCHAR
STARTCHAR 0073
ENCODING 115
SWIDTH 434 0
DWIDTH 10 0
BBX 8 10 1 0
BITMAP
7E
C6
C6
F0
7C
3F
87
83
C2
FC
ENDCHAR
STARTCHAR 0074
ENCODING 116
SWIDTH 391 0
DWIDTH 9 0
BBX 8 14 0 0
BITMAP
10
30
30
30
7F
B0
30
30
30
30
30
32
3F
18
ENDCHAR
STARTCHAR 0075
ENCODING 117
SWIDTH 565 0
DWIDTH 13 0
BBX 12 10 1 0
BITMAP
61C0
E0C0
60C0
60C0
60C0
60C0
60C0
61C0
7FF0
3CC0
ENDCHAR
STARTCHAR 0076
ENCODING 118
SWIDTH 521 0
DWIDTH 12 0
BBX 12 10 0 0
BITMAP
F8F0
7040
38C0
3880
1C80
1D80
0D00
0F00
0600
0600
ENDCHAR
STARTCHAR 0077
ENCODING 119
SWIDTH 739 0
DWIDTH 17 0
BBX 16 10 0 0
BITMAP
F887
70C2
31C6
39E6
3B64
1B7C
1E7C
0E38
0C38
0C10
ENDCHAR
STARTCHAR 0078
ENCODING 120
SWIDTH 521 0
DWIDTH 12 0
BBX 12 10 0 0
BITMAP
FDF0
38C0
1D80
1F00
0E00
0F00
1B80
11C0
21E0
F3F0
ENDCHAR
STARTCHAR 0079
ENCODING 121
SWIDTH 521 0
DWIDTH 12 0
BBX 13 15 -1 -5
BITMAP
7C78
3820
1C60
1C40
0EC0
0EC0
0680
0780
0700
0300
0300
0600
4600
7C00
F800
ENDCHAR
STARTCHAR 007A
ENCODING 122
SWIDTH 478 0
DWIDTH 11 0
BBX 9 10 1 0
BITMAP
FF80
C700
8700
0E00
1C00
3C00
3900
7080
E180
FF80
ENDCHAR
STARTCHAR 007B
ENCODING 123
SWIDTH 347 0
DWIDTH 8 0
BBX 5 22 2 -4
BITMAP
18
30
60
60
60
60
30
30
30
30
60
E0
30
30
30
30
60
60
60
60
30
18
ENDCHAR
STARTCHAR 007C
ENCODING 124
SWIDTH 217 0
DWIDTH 5 0
BBX 2 24 2 -5
BITMAP
C0
C0
C0
C0
C0
C0
C0
C0
C0
C0
C0
C0
C0
C0
C0
C0
C0
C0
C0
C0
C0
C0
C0
C0
ENDCHAR
STARTCHAR 007D
ENCODING 125
SWIDTH 347 0
DWIDTH 8 0
BBX 5 22 1 -4
BITMAP
C0
60
30
30
30
30
60
60
60
60
38
30
60
60
60
60
30
30
30
30
60
C0
ENDCHAR
STARTCHAR 007E
ENCODING 126
SWIDTH 478 0
DWIDTH 11 0
BBX 10 4 1 5
BITMAP
3040
7C80
9F00
8700
ENDCHAR
STARTCHAR 00A0
ENCODING 160
SWIDTH 260 0
DWIDTH 6 0
BBX 0 0 0 0
BITMAP
ENDCHAR
STARTCHAR 00A1
ENCODING 161
SWIDTH 304 0
DWIDTH 7 0
BBX 4 16 1 -6
BITMAP
70
F0
60
00
20
20
20
70
70
70
70
70
70
70
70
60
ENDCHAR
STARTCHAR 00A2
ENCODING 162
SWIDTH 521 0
DWIDTH 12 0
BBX 10 14 1 0
BITMAP
0C00
0C00
1F80
7DC0
6C80
CC00
CC00
CC00
CC00
ECC0
7F80
3F00
0C00
0C00
ENDCHAR
STARTCHAR 00A3
ENCODING 163
SWIDTH 521 0
DWIDTH 12 0
BBX 11 14 0 0
BITMAP
07C0
0CE0
1840
1840
3800
3800
3800
7F00
B800
3800
3820
3020
7FE0
FFE0
ENDCHAR
STARTCHAR 00A4
ENCODING 164
SWIDTH 521 0
DWIDTH 12 0
BBX 10 9 1 2
BITMAP
8040
5E80
3300
6180
6180
6180
3380
5E80
8040
ENDCHAR
STARTCHAR 00A5
ENCODING 165
SWIDTH 521 0
DWIDTH 12 0
BBX 12 14 0 0
BITMAP
F1F0
78C0
38C0
1D80
1D80
0D00
0F00
0600
3FC0
0600
0600
0600
0600
1F80
ENDCHAR
STARTCHAR 00A6
ENCODING 166
SWIDTH 217 0
DWIDTH 5 0
BBX 2 24 2 -5
BITMAP
C0
C0
C0
C0
C0
C0
C0
C0
C0
C0
80
00
00
40
C0
C0
C0
C0
C0
C0
C0
C0
C0
C0
ENDCHAR
STARTCHAR 00A7
ENCODING 167
SWIDTH 478 0
DWIDTH 11 0
BBX 9 16 1 0
BITMAP
3E00
6300
6300
7000
3C00
7F00
C780
C380
E180
7980
3F00
1F00
4700
4300
6300
7E00
ENDCHAR
STARTCHAR 00A8
ENCODING 168
SWIDTH 391 0
DWIDTH 9 0
BBX 7 3 1 12
BITMAP
C6
EE
C6
ENDCHAR
STARTCHAR 00A9
ENCODING 169
SWIDTH 739 0
DWIDTH 17 0
BBX 15 15 1 0
BITMAP
07C0
1830
3018
63CC
6CEC
C846
D806
D806
D806
D806
6C2C
67CC
3018
1830
07C0
ENDCHAR
STARTCHAR 00AA
ENCODING 170
SWIDTH 260 0
DWIDTH 6 0
BBX 6 7 0 7
BITMAP
78
D8
18
F8
D8
FC
F8
ENDCHAR
STARTCHAR 00AB
ENCODING 171
SWIDTH 521 0
DWIDTH 12 0
BBX 9 10 1 0
BITMAP
0880
1180
3300
6700
EE00
EE00
6700
3300
1180
0880
ENDCHAR
STARTCHAR 00AC
ENCODING 172
SWIDTH 521 0
DWIDTH 12 0
BBX 10 5 1 2
BITMAP
FFC0
00C0
00C0
00C0
00C0
ENDCHAR
STARTCHAR 00AD
ENCODING 173
SWIDTH 347 0
DWIDTH 8 0
BBX 7 1 1 5
BITMAP
FE
ENDCHAR
STARTCHAR 00AE
ENCODING 174
SWIDTH 347 0
DWIDTH 8 0
BBX 8 8 0 8
BITMAP
3C
42
9D
95
99
99
56
3C
ENDCHAR
STARTCHAR 00AF
ENCODING 175
SWIDTH 478 0
DWIDTH 11 0
BBX 9 2 1 13
BITMAP
FF80
FF80
ENDCHAR
STARTCHAR 00B0
ENCODING 176
SWIDTH 347 0
DWIDTH 8 0
BBX 6 5 1 9
BITMAP
38
4C
CC
C8
70
ENDCHAR
STARTCHAR 00B1
ENCODING 177
SWIDTH 391 0
DWIDTH 9 0
BBX 8 10 1 2
BITMAP
18
18
18
18
FF
18
18
18
00
FF
ENDCHAR
STARTCHAR 00B2
ENCODING 178
SWIDTH 347 0
DWIDTH 8 0
BBX 6 8 1 7
BITMAP
78
CC
8C
18
10
20
44
FC
ENDCHAR
STARTCHAR 00B3
ENCODING 179
SWIDTH 347 0
DWIDTH 8 0
BBX 6 8 1 7
BITMAP
38
CC
8C
38
0C
0C
8C
78
ENDCHAR
STARTCHAR 00B4
ENCODING 180
SWIDTH 304 0
DWIDTH 7 0
BBX 6 5 2 12
BITMAP
38
3C
70
60
C0
ENDCHAR
STARTCHAR 00B5
ENCODING 181
SWIDTH 565 0
DWIDTH 13 0
BBX 12 15 1 -5
BITMAP
60C0
E1C0
60C0
60C0
60C0
60C0
60C0
71C0
7FF0
6EC0
6000
6000
7000
7000
6000
ENDCHAR
STARTCHAR 00B6
ENCODING 182
SWIDTH 608 0
DWIDTH 14 0
BBX 14 17 0 -3
BITMAP
1FFC
71B0
E1B0
E1B0
E1B0
E1B0
71B0
1FB0
01B0
01B0
01B0
01B0
01B0
01B0
01B0
01B0
07FC
ENDCHAR
STARTCHAR 00B7
ENCODING 183
SWIDTH 217 0
DWIDTH 5 0
BBX 4 3 0 6
BITMAP
60
F0
E0
ENDCHAR
STARTCHAR 00B8
ENCODING 184
SWIDTH 217 0
DWIDTH 5 0
BBX 4 5 1 -5
BITMAP
20
60
30
30
E0
ENDCHAR
STARTCHAR 00B9
ENCODING 185
SWIDTH 347 0
DWIDTH 8 0
BBX 6 8 1 7
BITMAP
30
F0
30
30
30
30
30
FC
ENDCHAR
STARTCHAR 00BA
ENCODING 186
SWIDTH 260 0
DWIDTH 6 0
BBX 5 7 0 7
BITMAP
70
D8
D8
D8
D8
70
F8
ENDCHAR
STARTCHAR 00BB
ENCODING 187
SWIDTH 521 0
DWIDTH 12 0
BBX 10 10 1 0
BITMAP
C400
6600
6300
3380
39C0
3DC0
3180
6300
6600
C400
ENDCHAR
STARTCHAR 00BC
ENCODING 188
SWIDTH 608 0
DWIDTH 14 0
BBX 12 14 1 0
BITMAP
3010
F030
3060
30C0
3080
3180
FF00
0660
04E0
0DE0
1960
13F0
3060
60F0
ENDCHAR
STARTCHAR 00BD
ENCODING 189
SWIDTH 608 0
DWIDTH 14 0
BBX 12 14 1 0
BITMAP
3030
F060
30C0
30C0
3180
3300
FE00
06F0
0D30
1A30
1060
30C0
6190
C3F0
ENDCHAR
STARTCHAR 00BE
ENCODING 190
SWIDTH 652 0
DWIDTH 15 0
BBX 14 14 0 0
BITMAP
3808
4C18
2830
3C60
0C40
8CC0
7980
0318
0238
0658
0C58
08FC
1818
303C
ENDCHAR
STARTCHAR 00BF
ENCODING 191
SWIDTH 478 0
DWIDTH 11 0
BBX 9 16 1 -6
BITMAP
1C00
1E00
0C00
0000
0C00
0C00
0C00
1800
3800
7000
6000
E000
E380
E380
E700
7E00
ENDCHAR
STARTCHAR 00C0
ENCODING 192
SWIDTH 608 0
DWIDTH 14 0
BBX 14 20 0 0
BITMAP
0800
1C00
0F00
0380
0000
0000
0100
0780
0780
0580
0DC0
0CC0
08E0
18E0
1FE0
1070
3070
3030
2038
F87C
ENDCHAR
STARTCHAR 00C1
ENCODING 193
SWIDTH 608 0
DWIDTH 14 0
BBX 14 20 0 0
BITMAP
0080
00E0
03C0
0700
0000
0000
0100
0780
0780
0580
0DC0
0CC0
08E0
18E0
1FE0
1070
3070
3030
2038
F87C
ENDCHAR
STARTCHAR 00C2
ENCODING 194
SWIDTH 608 0
DWIDTH 14 0
BBX 14 20 0 0
BITMAP
0300
0780
0FC0
0C60
1000
0000
0100
0780
0780
0580
0DC0
0CC0
08E0
18E0
1FE0
1070
3070
3030
2038
F87C
ENDCHAR
STARTCHAR 00C3
ENCODING 195
SWIDTH 608 0
DWIDTH 14 0
BBX 14 19 0 0
BITMAP
0420
0FF0
1BC0
0000
0000
0100
0780
0780
0580
0DC0
0CC0
08E0
18E0
1FE0
1070
3070
3030
2038
F87C
ENDCHAR
STARTCHAR 00C4
ENCODING 196
SWIDTH 608 0
DWIDTH 14 0
BBX 14 19 0 0
BITMAP
0840
1CE0
18E0
0000
0000
0100
0780
0780
0580
0DC0
0CC0
08E0
18E0
1FE0
1070
3070
3030
2038
F87C
ENDCHAR
STARTCHAR 00C5
ENCODING 197
SWIDTH 608 0
DWIDTH 14 0
BBX 14 20 0 0
BITMAP
0180
06C0
06C0
0780
0000
0000
0100
0780
0780
0580
0DC0
0CC0
08E0
18E0
1FE0
1070
3070
3030
2038
F87C
ENDCHAR
STARTCHAR 00C6
ENCODING 198
SWIDTH 826 0
DWIDTH 19 0
BBX 18 14 0 0
BITMAP
07FF80
01E180
036080
036080
066000
066000
07FF00
0C6200
0C6000
186000
186000
306040
3060C0
F9FF80
ENDCHAR
STARTCHAR 00C7
ENCODING 199
SWIDTH 565 0
DWIDTH 13 0
BBX 11 19 1 -5
BITMAP
0FC0
31C0
6080
4000
C000
C000
C000
C000
C000
C000
6000
7060
3FC0
1F80
0400
0600
0300
0300
0C00
ENDCHAR
STARTCHAR 00C8
ENCODING 200
SWIDTH 521 0
DWIDTH 12 0
BBX 12 20 0 0
BITMAP
1000
3800
1E00
0700
0000
0000
FFE0
3860
3860
3840
3800
3800
3FC0
3880
3800
3800
3800
3830
3820
FFE0
ENDCHAR
STARTCHAR 00C9
ENCODING 201
SWIDTH 521 0
DWIDTH 12 0
BBX 12 20 0 0
BITMAP
0100
01C0
0780
0E00
0000
0000
FFE0
3860
3860
3840
3800
3800
3FC0
3880
3800
3800
3800
3830
3820
FFE0
ENDCHAR
STARTCHAR 00CA
ENCODING 202
SWIDTH 521 0
DWIDTH 12 0
BBX 12 20 0 0
BITMAP
0600
0F00
1F80
30C0
0000
0000
FFE0
3860
3860
3840
3800
3800
3FC0
3880
3800
3800
3800
3830
3820
FFE0
ENDCHAR
STARTCHAR 00CB
ENCODING 203
SWIDTH 521 0
DWIDTH 12 0
BBX 12 19 0 0
BITMAP
1080
31C0
31C0
0000
0000
FFE0
3860
3860
3840
3800
3800
3FC0
3880
3800
3800
3800
3830
3820
FFE0
ENDCHAR
STARTCHAR 00CC
ENCODING 204
SWIDTH 347 0
DWIDTH 8 0
BBX 7 20 0 0
BITMAP
40
E0
70
18
04
00
7E
18
18
18
18
18
18
18
18
18
18
18
18
7E
ENDCHAR
STARTCHAR 00CD
ENCODING 205
SWIDTH 347 0
DWIDTH 8 0
BBX 7 20 1 0
BITMAP
08
1E
3C
60
80
00
FC
30
30
30
30
30
30
30
30
30
30
30
30
FC
ENDCHAR
STARTCHAR 00CE
ENCODING 206
SWIDTH 347 0
DWIDTH 8 0
BBX 7 20 0 0
BITMAP
10
38
7C
C6
00
00
7E
18
18
18
18
18
18
18
18
18
18
18
18
7E
ENDCHAR
STARTCHAR 00CF
ENCODING 207
SWIDTH 347 0
DWIDTH 8 0
BBX 8 19 -1 0
BITMAP
41
63
E3
00
00
3F
0C
0C
0C
0C
0C
0C
0C
0C
0C
0C
0C
0C
3F
ENDCHAR
STARTCHAR 00D0
ENCODING 208
SWIDTH 652 0
DWIDTH 15 0
BBX 14 14 0 0
BITMAP
7FC0
F0F0
3038
3018
301C
301C
FE1C
301C
301C
301C
3018
3038
30F0
FFC0
ENDCHAR
STARTCHAR 00D1
ENCODING 209
SWIDTH 652 0
DWIDTH 15 0
BBX 15 19 0 0
BITMAP
0220
0FF0
0BE0
1000
0000
F87E
3818
3C18
3E18
3618
3718
3398
3198
31D8
30F8
3078
3038
3038
FC18
ENDCHAR
STARTCHAR 00D2
ENCODING 210
SWIDTH 608 0
DWIDTH 14 0
BBX 12 20 1 0
BITMAP
1000
3C00
1E00
0300
0000
0000
0F80
30C0
6060
4060
C030
C030
C030
C030
C030
C030
6060
6040
3080
1F00
ENDCHAR
STARTCHAR 00D3
ENCODING 211
SWIDTH 608 0
DWIDTH 14 0
BBX 12 20 1 0
BITMAP
0100
01C0
0780
0E00
0000
0000
0F80
30C0
6060
4060
C030
C030
C030
C030
C030
C030
6060
6040
3080
1F00
ENDCHAR
STARTCHAR 00D4
ENCODING 212
SWIDTH 608 0
DWIDTH 14 0
BBX 12 20 1 0
BITMAP
0600
0F00
0F80
18C0
2000
0000
0F80
30C0
6060
4060
C030
C030
C030
C030
C030
C030
6060
6040
3080
1F00
ENDCHAR
STARTCHAR 00D5
ENCODING 213
SWIDTH 608 0
DWIDTH 14 0
BBX 12 19 1 0
BITMAP
0840
1FE0
3780
0000
0000
0F80
30C0
6060
4060
C030
C030
C030
C030
C030
C030
6060
6040
3080
1F00
ENDCHAR
STARTCHAR 00D6
ENCODING 214
SWIDTH 608 0
DWIDTH 14 0
BBX 12 19 1 0
BITMAP
1080
39C0
31C0
0000
0000
0F80
30C0
6060
4060
C030
C030
C030
C030
C030
C030
6060
6040
3080
1F00
ENDCHAR
STARTCHAR 00D7
ENCODING 215
SWIDTH 434 0
DWIDTH 10 0
BBX 8 7 1 3
BITMAP
C3
66
3C
18
3C
66
C3
ENDCHAR
STARTCHAR 00D8
ENCODING 216
SWIDTH 608 0
DWIDTH 14 0
BBX 12 15 1 -1
BITMAP
0FB0
10E0
20E0
60E0
C1F0
C370
C330
C630
CC30
E820
7860
7040
7080
DF00
8000
ENDCHAR
STARTCHAR 00D9
ENCODING 217
SWIDTH 652 0
DWIDTH 15 0
BBX 15 20 0 0
BITMAP
0400
0E00
0700
01C0
0000
0000
FC7E
3018
3018
3018
3018
3018
3018
3018
3018
3018
3018
1830
1820
07C0
ENDCHAR
STARTCHAR 00DA
ENCODING 218
SWIDTH 652 0
DWIDTH 15 0
BBX 15 20 0 0
BITMAP
0040
00F0
01E0
0300
0000
0000
FC7E
3018
3018
3018
3018
3018
3018
3018
3018
3018
3018
1830
1820
07C0
ENDCHAR
STARTCHAR 00DB
ENCODING 219
SWIDTH 652 0
DWIDTH 15 0
BBX 15 20 0 0
BITMAP
0180
0380
07C0
0C60
0010
0000
FC7E
3018
3018
3018
3018
3018
3018
3018
3018
3018
3018
1830
1820
07C0
ENDCHAR
STARTCHAR 00DC
ENCODING 220
SWIDTH 652 0
DWIDTH 15 0
BBX 15 19 0 0
BITMAP
0420
0C70
0C60
0000
0000
FC7E
3018
3018
3018
3018
3018
3018
3018
3018
3018
3018
1830
1820
07C0
ENDCHAR
STARTCHAR 00DD
ENCODING 221
SWIDTH 608 0
DWIDTH 14 0
BBX 13 20 0 0
BITMAP
0080
00E0
03C0
0700
0000
0000
F078
3830
1C60
1C60
0EC0
0680
0780
0300
0300
0300
0300
0300
0300
0FC0
ENDCHAR
STARTCHAR 00DE
ENCODING 222
SWIDTH 565 0
DWIDTH 13 0
BBX 12 14 0 0
BITMAP
FC00
3000
3000
3FC0
3060
3030
3030
3030
3030
3060
37C0
3000
3000
FC00
ENDCHAR
STARTCHAR 00DF
ENCODING 223
SWIDTH 608 0
DWIDTH 14 0
BBX 11 17 1 0
BITMAP
0F80
10C0
2060
2060
6060
6060
61C0
6300
6300
6300
63C0
61C0
60E0
6860
6860
6C40
EF80
ENDCHAR
STARTCHAR 00E0
ENCODING 224
SWIDTH 478 0
DWIDTH 11 0
BBX 10 17 1 0
BITMAP
3000
7800
1800
0C00
0600
0000
0000
3E00
6300
E300
0300
3F00
6300
C300
C300
FFC0
7B00
ENDCHAR
STARTCHAR 00E1
ENCODING 225
SWIDTH 478 0
DWIDTH 11 0
BBX 10 17 1 0
BITMAP
0700
0700
0E00
0C00
1800
0000
0000
3E00
6300
E300
0300
3F00
6300
C300
C300
FFC0
7B00
ENDCHAR
STARTCHAR 00E2
ENCODING 226
SWIDTH 478 0
DWIDTH 11 0
BBX 10 17 1 0
BITMAP
0C00
1E00
3E00
7300
4180
0000
0000
3E00
6300
E300
0300
3F00
6300
C300
C300
FFC0
7B00
ENDCHAR
STARTCHAR 00E3
ENCODING 227
SWIDTH 478 0
DWIDTH 11 0
BBX 10 16 1 0
BITMAP
3880
7C80
7F00
C600
0000
0000
3E00
6300
E300
0300
3F00
6300
C300
C300
FFC0
7B00
ENDCHAR
STARTCHAR 00E4
ENCODING 228
SWIDTH 478 0
DWIDTH 11 0
BBX 10 15 1 0
BITMAP
6300
6380
6300
0000
0000
3E00
6300
E300
0300
3F00
6300
C300
C300
FFC0
7B00
ENDCHAR
STARTCHAR 00E5
ENCODING 229
SWIDTH 478 0
DWIDTH 11 0
BBX 10 16 1 0
BITMAP
0E00
1B00
1A00
1C00
0000
0000
3E00
6300
E300
0300
3F00
6300
C300
C300
FFC0
7B00
ENDCHAR
STARTCHAR 00E6
ENCODING 230
SWIDTH 739 0
DWIDTH 17 0
BBX 15 10 1 0
BITMAP
1E78
778C
E306
8306
1FFC
6300
C300
C784
FDFC
70F0
ENDCHAR
STARTCHAR 00E7
ENCODING 231
SWIDTH 434 0
DWIDTH 10 0
BBX 9 15 1 -5
BITMAP
1F00
6380
4100
C000
C000
C000
C000
E100
7E00
3C00
1000
1C00
0C00
0C00
3000
ENDCHAR
STARTCHAR 00E8
ENCODING 232
SWIDTH 478 0
DWIDTH 11 0
BBX 9 17 1 0
BITMAP
3800
3800
1C00
0C00
0600
0000
0000
1E00
6300
4180
C180
FF80
C000
C000
E180
7F00
3E00
ENDCHAR
STARTCHAR 00E9
ENCODING 233
SWIDTH 478 0
DWIDTH 11 0
BBX 9 17 1 0
BITMAP
0700
0780
0E00
0C00
1800
0000
0000
1E00
6300
4180
C180
FF80
C000
C000
E180
7F00
3E00
ENDCHAR
STARTCHAR 00EA
ENCODING 234
SWIDTH 478 0
DWIDTH 11 0
BBX 9 17 1 0
BITMAP
0C00
1E00
3F00
3300
6080
0000
0000
1E00
6300
4180
C180
FF80
C000
C000
E180
7F00
3E00
ENDCHAR
STARTCHAR 00EB
ENCODING 235
SWIDTH 478 0
DWIDTH 11 0
BBX 9 15 1 0
BITMAP
6180
6380
6300
0000
0000
1E00
6300
4180
C180
FF80
C000
C000
E180
7F00
3E00
ENDCHAR
STARTCHAR 00EC
ENCODING 236
SWIDTH 304 0
DWIDTH 7 0
BBX 6 17 0 0
BITMAP
E0
70
30
18
08
00
00
38
78
18
18
18
18
18
18
18
7C
ENDCHAR
STARTCHAR 00ED
ENCODING 237
SWIDTH 304 0
DWIDTH 7 0
BBX 6 17 1 0
BITMAP
1C
3C
38
60
40
00
00
70
F0
30
30
30
30
30
30
30
F8
ENDCHAR
STARTCHAR 00EE
ENCODING 238
SWIDTH 304 0
DWIDTH 7 0
BBX 7 17 0 0
BITMAP
38
38
7C
C6
82
00
00
38
78
18
18
18
18
18
18
18
7C
ENDCHAR
STARTCHAR 00EF
ENCODING 239
SWIDTH 304 0
DWIDTH 7 0
BBX 8 15 -1 0
BITMAP
63
E3
C3
00
00
1C
3C
0C
0C
0C
0C
0C
0C
0C
3E
ENDCHAR
STARTCHAR 00F0
ENCODING 240
SWIDTH 521 0
DWIDTH 12 0
BBX 10 17 1 0
BITMAP
1800
7DC0
0F80
1F00
3380
0380
01C0
1FC0
61C0
40C0
C0C0
C0C0
C0C0
C080
E180
7100
1E00
ENDCHAR
STARTCHAR 00F1
ENCODING 241
SWIDTH 565 0
DWIDTH 13 0
BBX 12 16 1 0
BITMAP
1C40
3E40
3F80
6300
0000
0000
3380
F7C0
38C0
30C0
30C0
30C0
30C0
30C0
30C0
F9F0
ENDCHAR
STARTCHAR 00F2
ENCODING 242
SWIDTH 521 0
DWIDTH 12 0
BBX 10 17 1 0
BITMAP
3800
3800
1C00
0600
0200
0000
0000
1E00
2180
4180
C0C0
C0C0
C0C0
C0C0
6080
7100
1E00
ENDCHAR
STARTCHAR 00F3
ENCODING 243
SWIDTH 521 0
DWIDTH 12 0
BBX 10 17 1 0
BITMAP
0380
0700
0600
0C00
0800
0000
0000
1E00
2180
4180
C0C0
C0C0
C0C0
C0C0
6080
7100
1E00
ENDCHAR
STARTCHAR 00F4
ENCODING 244
SWIDTH 521 0
DWIDTH 12 0
BBX 10 17 1 0
BITMAP
0C00
1E00
1F00
3180
6080
0000
0000
1E00
2180
4180
C0C0
C0C0
C0C0
C0C0
6080
7100
1E00
ENDCHAR
STARTCHAR 00F5
ENCODING 245
SWIDTH 521 0
DWIDTH 12 0
BBX 10 16 1 0
BITMAP
1840
3C80
7F80
4700
0000
0000
1E00
2180
4180
C0C0
C0C0
C0C0
C0C0
6080
7100
1E00
ENDCHAR
STARTCHAR 00F6
ENCODING 246
SWIDTH 521 0
DWIDTH 12 0
BBX 10 15 1 0
BITMAP
3180
7380
6180
0000
0000
1E00
2180
4180
C0C0
C0C0
C0C0
C0C0
6080
7100
1E00
ENDCHAR
STARTCHAR 00F7
ENCODING 247
SWIDTH 434 0
DWIDTH 10 0
BBX 8 8 1 2
BITMAP
18
18
10
FF
00
18
18
18
ENDCHAR
STARTCHAR 00F8
ENCODING 248
SWIDTH 521 0
DWIDTH 12 0
BBX 10 12 1 -1
BITMAP
0040
1EC0
3380
63C0
C7C0
C4C0
C8C0
F8C0
7180
7100
5E00
8000
ENDCHAR
STARTCHAR 00F9
ENCODING 249
SWIDTH 565 0
DWIDTH 13 0
BBX 12 17 1 0
BITMAP
3800
1C00
0C00
0600
0200
0000
0000
61C0
E0C0
60C0
60C0
60C0
60C0
60C0
61C0
7FF0
3CC0
ENDCHAR
STARTCHAR 00FA
ENCODING 250
SWIDTH 565 0
DWIDTH 13 0
BBX 12 17 1 0
BITMAP
0380
0780
0600
0C00
0800
0000
0000
61C0
E0C0
60C0
60C0
60C0
60C0
60C0
61C0
7FF0
3CC0
ENDCHAR
STARTCHAR 00FB
ENCODING 251
SWIDTH 565 0
DWIDTH 13 0
BBX 12 17 1 0
BITMAP
0E00
0E00
1F00
3180
2080
0000
0000
61C0
E0C0
60C0
60C0
60C0
60C0
60C0
61C0
7FF0
3CC0
ENDCHAR
STARTCHAR 00FC
ENCODING 252
SWIDTH 565 0
DWIDTH 13 0
BBX 12 15 1 0
BITMAP
3180
7180
6180
0000
0000
61C0
E0C0
60C0
60C0
60C0
60C0
60C0
61C0
7FF0
3CC0
ENDCHAR
STARTCHAR 00FD
ENCODING 253
SWIDTH 521 0
DWIDTH 12 0
BBX 13 22 -1 -5
BITMAP
00C0
01E0
0180
0300
0600
0000
0000
7C78
3820
1C60
1C40
0EC0
0EC0
0680
0780
0700
0300
0300
0600
4600
7C00
F800
ENDCHAR
STARTCHAR 00FE
ENCODING 254
SWIDTH 565 0
DWIDTH 13 0
BBX 11 22 1 -5
BITMAP
3000
F000
3000
3000
3000
3000
3000
3380
3FC0
38E0
3060
3060
3060
3060
30C0
3F80
3700
3000
3000
3000
3000
FC00
ENDCHAR
STARTCHAR 00FF
ENCODING 255
SWIDTH 521 0
DWIDTH 12 0
BBX 13 20 -1 -5
BITMAP
1860
1CE0
18C0
0000
0000
7C78
3820
1C60
1C40
0EC0
0EC0
0680
0780
0700
0300
0300
0600
4600
7C00
F800
ENDCHAR
STARTCHAR 0100
ENCODING 256
SWIDTH 608 0
DWIDTH 14 0
BBX 14 18 0 0
BITMAP
1FF0
1FF0
2000
0000
0100
0780
0780
0580
0DC0
0CC0
08E0
18E0
1FE0
1070
3070
3030
2038
F87C
ENDCHAR
STARTCHAR 0101
ENCODING 257
SWIDTH 478 0
DWIDTH 11 0
BBX 10 15 1 0
BITMAP
7FC0
FF80
0000
0000
0000
3E00
6300
E300
0300
3F00
6300
C300
C300
FFC0
7B00
ENDCHAR
STARTCHAR 0102
ENCODING 258
SWIDTH 608 0
DWIDTH 14 0
BBX 14 20 0 0
BITMAP
1040
1860
0FC0
07C0
0000
0000
0100
0780
0780
0580
0DC0
0CC0
08E0
18E0
1FE0
1070
3070
3030
2038
F87C
ENDCHAR
STARTCHAR 0103
ENCODING 259
SWIDTH 478 0
DWIDTH 11 0
BBX 10 16 1 0
BITMAP
4080
6300
3F00
1E00
0000
0000
3E00
6300
E300
0300
3F00
6300
C300
C300
FFC0
7B00
ENDCHAR
STARTCHAR 0106
ENCODING 262
SWIDTH 565 0
DWIDTH 13 0
BBX 11 20 1 0
BITMAP
0100
01C0
0780
0E00
0000
0000
0FC0
31C0
6080
4000
C000
C000
C000
C000
C000
C000
E000
7060
7F80
1F00
ENDCHAR
STARTCHAR 0107
ENCODING 263
SWIDTH 434 0
DWIDTH 10 0
BBX 9 17 1 0
BITMAP
0700
0700
0E00
0C00
1800
0000
0000
1F00
6380
4100
C000
C000
C000
C000
E100
7F80
3C00
ENDCHAR
STARTCHAR 0108
ENCODING 264
SWIDTH 565 0
DWIDTH 13 0
BBX 11 20 1 0
BITMAP
0600
0F00
0F80
18C0
2000
0000
0FC0
31C0
6080
4000
C000
C000
C000
C000
C000
C000
E000
7060
7F80
1F00
ENDCHAR
STARTCHAR 0109
ENCODING 265
SWIDTH 434 0
DWIDTH 10 0
BBX 9 17 1 0
BITMAP
0C00
1E00
3E00
6300
4180
0000
0000
1F00
6380
4100
C000
C000
C000
C000
E100
7F80
3C00
ENDCHAR
STARTCHAR 010A
ENCODING 266
SWIDTH 565 0
DWIDTH 13 0
BBX 11 19 1 0
BITMAP
0200
0700
0600
0000
0000
0FC0
31C0
6080
4000
C000
C000
C000
C000
C000
C000
E000
7060
7F80
1F00
ENDCHAR
STARTCHAR 010B
ENCODING 267
SWIDTH 434 0
DWIDTH 10 0
BBX 9 15 1 0
BITMAP
0C00
0C00
0C00
0000
0000
1F00
6380
4100
C000
C000
C000
C000
E100
7F80
3C00
ENDCHAR
STARTCHAR 010C
ENCODING 268
SWIDTH 565 0
DWIDTH 13 0
BBX 11 20 1 0
BITMAP
2080
18C0
0F80
0700
0000
0000
0FC0
31C0
6080
4000
C000
C000
C000
C000
C000
C000
E000
7060
7F80
1F00
ENDCHAR
STARTCHAR 010D
ENCODING 269
SWIDTH 434 0
DWIDTH 10 0
BBX 9 17 1 0
BITMAP
4100
6380
3E00
1E00
0C00
0000
0000
1F00
6380
4100
C000
C000
C000
C000
E100
7F80
3C00
ENDCHAR
STARTCHAR 010E
ENCODING 270
SWIDTH 652 0
DWIDTH 15 0
BBX 14 20 0 0
BITMAP
1040
18C0
0F80
0700
0000
0000
7FC0
F0F0
3038
3018
301C
301C
301C
301C
301C
301C
3018
3038
30F0
FFC0
ENDCHAR
STARTCHAR 0110
ENCODING 272
SWIDTH 652 0
DWIDTH 15 0
BBX 14 14 0 0
BITMAP
7FC0
F0F0
3038
3018
301C
301C
FE1C
301C
301C
301C
3018
3038
30F0
FFC0
ENDCHAR
STARTCHAR 0111
ENCODING 273
SWIDTH 565 0
DWIDTH 13 0
BBX 12 17 1 0
BITMAP
00C0
03C0
00C0
07F0
08C0
00C0
00C0
1FC0
21C0
40C0
C0C0
C0C0
C0C0
C0C0
61C0
7FF0
3CC0
ENDCHAR
STARTCHAR 0112
ENCODING 274
SWIDTH 521 0
DWIDTH 12 0
BBX 12 18 0 0
BITMAP
3FE0
3FE0
4000
0000
FFE0
3860
3860
3840
3800
3800
3FC0
3880
3800
3800
3800
3830
3820
FFE0
ENDCHAR
STARTCHAR 0113
ENCODING 275
SWIDTH 478 0
DWIDTH 11 0
BBX 10 15 1 0
BITMAP
7FC0
FF80
0000
0000
0000
1E00
6300
4180
C180
FF80
C000
C000
E180
7F00
3E00
ENDCHAR
STARTCHAR 0114
ENCODING 276
SWIDTH 521 0
DWIDTH 12 0
BBX 12 20 0 0
BITMAP
2080
30C0
1F80
0F00
0000
0000
FFE0
3860
3860
3840
3800
3800
3FC0
3880
3800
3800
3800
3830
3820
FFE0
ENDCHAR
STARTCHAR 0115
ENCODING 277
SWIDTH 478 0
DWIDTH 11 0
BBX 9 16 1 0
BITMAP
4080
6180
3F00
1E00
0000
0000
1E00
6300
4180
C180
FF80
C000
C000
E180
7F00
3E00
ENDCHAR
STARTCHAR 0116
ENCODING 278
SWIDTH 521 0
DWIDTH 12 0
BBX 12 19 0 0
BITMAP
0200
0600
0600
0000
0000
FFE0
3860
3860
3840
3800
3800
3FC0
3880
3800
3800
3800
3830
3820
FFE0
ENDCHAR
STARTCHAR 0117
ENCODING 279
SWIDTH 478 0
DWIDTH 11 0
BBX 9 15 1 0
BITMAP
0C00
0C00
0C00
0000
0000
1E00
6300
4180
C180
FF80
C000
C000
E180
7F00
3E00
ENDCHAR
STARTCHAR 011A
ENCODING 282
SWIDTH 521 0
DWIDTH 12 0
BBX 12 20 0 0
BITMAP
2080
18C0
0F80
0F00
0000
0000
FFE0
3860
3860
3840
3800
3800
3FC0
3880
3800
3800
3800
3830
3820
FFE0
ENDCHAR
STARTCHAR 011B
ENCODING 283
SWIDTH 478 0
DWIDTH 11 0
BBX 9 17 1 0
BITMAP
4180
3300
3F00
1E00
0C00
0000
0000
1E00
6300
4180
C180
FF80
C000
C000
E180
7F00
3E00
ENDCHAR
STARTCHAR 011C
ENCODING 284
SWIDTH 608 0
DWIDTH 14 0
BBX 12 20 1 0
BITMAP
0200
0700
0F80
18C0
0000
0000
0FC0
10E0
2040
6000
4000
C000
C000
C000
C1F0
C060
6060
6060
3060
0F80
ENDCHAR
STARTCHAR 011D
ENCODING 285
SWIDTH 521 0
DWIDTH 12 0
BBX 11 22 1 -5
BITMAP
0C00
1E00
3E00
3300
4180
0000
0000
1E60
23C0
6180
6180
6180
7300
3E00
3000
7C00
3F80
6FC0
C0C0
C0C0
E180
3E00
ENDCHAR
STARTCHAR 011E
ENCODING 286
SWIDTH 608 0
DWIDTH 14 0
BBX 12 20 1 0
BITMAP
2040
1040
1FC0
0F80
0000
0000
0FC0
10E0
2040
6000
4000
C000
C000
C000
C1F0
C060
6060
6060
3060
0F80
ENDCHAR
STARTCHAR 011F
ENCODING 287
SWIDTH 521 0
DWIDTH 12 0
BBX 11 21 1 -5
BITMAP
4080
6180
3F00
1E00
0000
0000
1E60
23C0
6180
6180
6180
7300
3E00
3000
7C00
3F80
6FC0
C0C0
C0C0
E180
3E00
ENDCHAR
STARTCHAR 0120
ENCODING 288
SWIDTH 608 0
DWIDTH 14 0
BBX 12 19 1 0
BITMAP
0200
0700
0700
0000
0000
0FC0
10E0
2040
6000
4000
C000
C000
C000
C1F0
C060
6060
6060
3060
0F80
ENDCHAR
STARTCHAR 0121
ENCODING 289
SWIDTH 521 0
DWIDTH 12 0
BBX 11 20 1 -5
BITMAP
0C00
0C00
0C00
0000
0000
1E60
23C0
6180
6180
6180
7300
3E00
3000
7C00
3F80
6FC0
C0C0
C0C0
E180
3E00
ENDCHAR
STARTCHAR 0124
ENCODING 292
SWIDTH 695 0
DWIDTH 16 0
BBX 16 20 0 0
BITMAP
0180
0380
07C0
0C60
0010
0000
FC3F
300C
300C
300C
300C
300C
3FFC
300C
300C
300C
300C
300C
300C
FC3F
ENDCHAR
STARTCHAR 0125
ENCODING 293
SWIDTH 565 0
DWIDTH 13 0
BBX 12 22 1 0
BITMAP
0E00
1F00
3980
20C0
0000
3000
F000
3000
3000
3000
3000
3000
3380
3FC0
38C0
30C0
30C0
30C0
30C0
30C0
30C0
F9F0
ENDCHAR
STARTCHAR 0128
ENCODING 296
SWIDTH 347 0
DWIDTH 8 0
BBX 9 19 -1 0
BITMAP
1100
7F80
5F00
8000
0000
3F00
0C00
0C00
0C00
0C00
0C00
0C00
0C00
0C00
0C00
0C00
0C00
0C00
3F00
ENDCHAR
STARTCHAR 0129
ENCODING 297
SWIDTH 304 0
DWIDTH 7 0
BBX 9 16 -1 0
BITMAP
3080
7D00
7F00
8E00
0000
0000
1C00
3C00
0C00
0C00
0C00
0C00
0C00
0C00
0C00
3E00
ENDCHAR
STARTCHAR 012A
ENCODING 298
SWIDTH 347 0
DWIDTH 8 0
BBX 7 19 0 0
BITMAP
7E
FE
00
00
00
7E
18
18
18
18
18
18
18
18
18
18
18
18
7E
ENDCHAR
STARTCHAR 012B
ENCODING 299
SWIDTH 304 0
DWIDTH 7 0
BBX 7 15 0 0
BITMAP
7E
FE
00
00
00
38
78
18
18
18
18
18
18
18
7C
ENDCHAR
STARTCHAR 012C
ENCODING 300
SWIDTH 347 0
DWIDTH 8 0
BBX 8 20 0 0
BITMAP
82
83
FE
7C
00
00
7E
18
18
18
18
18
18
18
18
18
18
18
18
7E
ENDCHAR
STARTCHAR 012D
ENCODING 301
SWIDTH 304 0
DWIDTH 7 0
BBX 8 16 0 0
BITMAP
82
C7
7E
38
00
00
38
78
18
18
18
18
18
18
18
7C
ENDCHAR
STARTCHAR 0130
ENCODING 304
SWIDTH 347 0
DWIDTH 8 0
BBX 6 19 1 0
BITMAP
20
30
70
00
00
FC
30
30
30
30
30
30
30
30
30
30
30
30
FC
ENDCHAR
STARTCHAR 0131
ENCODING 305
SWIDTH 304 0
DWIDTH 7 0
BBX 5 10 1 0
BITMAP
70
F0
30
30
30
30
30
30
30
F8
ENDCHAR
STARTCHAR 0132
ENCODING 306
SWIDTH 652 0
DWIDTH 15 0
BBX 13 19 1 -5
BITMAP
FDF8
3030
3030
3030
3030
3030
3030
3030
3030
3030
3030
3030
3030
FC20
0060
0060
0460
0FC0
0780
ENDCHAR
STARTCHAR 0133
ENCODING 307
SWIDTH 608 0
DWIDTH 14 0
BBX 11 20 1 -5
BITMAP
3060
70E0
30E0
0000
0000
7060
F1E0
3060
3060
3060
3060
3060
3060
3060
F860
0060
0060
04C0
0F80
0F00
ENDCHAR
STARTCHAR 0139
ENCODING 313
SWIDTH 521 0
DWIDTH 12 0
BBX 11 20 0 0
BITMAP
0100
0380
0740
0C00
1000
0000
FC00
3000
3000
3000
3000
3000
3000
3000
3000
3000
3000
3060
3040
FFC0
ENDCHAR
STARTCHAR 013A
ENCODING 314
SWIDTH 304 0
DWIDTH 7 0
BBX 7 23 1 0
BITMAP
0C
3E
70
C0
00
00
30
F0
30
30
30
30
30
30
30
30
30
30
30
30
30
30
FC
ENDCHAR
STARTCHAR 0141
ENCODING 321
SWIDTH 521 0
DWIDTH 12 0
BBX 11 14 0 0
BITMAP
FC00
3000
3000
3000
3300
3600
3C00
7000
F000
B000
3000
3060
3040
FFC0
ENDCHAR
STARTCHAR 0142
ENCODING 322
SWIDTH 304 0
DWIDTH 7 0
BBX 6 18 1 0
BITMAP
30
F0
30
30
30
30
34
3C
38
70
F0
B0
30
30
30
30
30
FC
ENDCHAR
STARTCHAR 0143
ENCODING 323
SWIDTH 652 0
DWIDTH 15 0
BBX 15 20 0 0
BITMAP
0040
00E0
01D0
0300
0400
0000
F87E
3818
3C18
3E18
3618
3718
3398
3198
31D8
30F8
3078
3038
3038
FC18
ENDCHAR
STARTCHAR 0144
ENCODING 324
SWIDTH 565 0
DWIDTH 13 0
BBX 12 17 1 0
BITMAP
0380
0380
0700
0600
0C00
0000
0000
3380
F7C0
38C0
30C0
30C0
30C0
30C0
30C0
30C0
F9F0
ENDCHAR
STARTCHAR 0147
ENCODING 327
SWIDTH 652 0
DWIDTH 15 0
BBX 15 20 0 0
BITMAP
0820
0C60
07C0
0380
0000
0000
F87E
3818
3C18
3E18
3618
3718
3398
3198
31D8
30F8
3078
3038
3038
FC18
ENDCHAR
STARTCHAR 0148
ENCODING 328
SWIDTH 565 0
DWIDTH 13 0
BBX 12 17 1 0
BITMAP
2080
39C0
1F00
0F00
0600
0000
0000
3380
F7C0
38C0
30C0
30C0
30C0
30C0
30C0
30C0
F9F0
ENDCHAR
STARTCHAR 014A
ENCODING 330
SWIDTH 652 0
DWIDTH 15 0
BBX 12 19 1 -5
BITMAP
31E0
F3F0
3C30
3830
3030
3030
3030
3030
3030
3030
3030
3030
3030
FC30
0030
0860
0C60
1FC0
0F00
ENDCHAR
STARTCHAR 014B
ENCODING 331
SWIDTH 565 0
DWIDTH 13 0
BBX 10 15 1 -5
BITMAP
3380
FFC0
38C0
30C0
30C0
30C0
30C0
30C0
30C0
F8C0
00C0
00C0
1980
3F00
3E00
ENDCHAR
STARTCHAR 014C
ENCODING 332
SWIDTH 608 0
DWIDTH 14 0
BBX 12 18 1 0
BITMAP
3FE0
3FE0
4000
0000
0F80
30C0
6060
4060
C030
C030
C030
C030
C030
C030
6060
6040
3080
1F00
ENDCHAR
STARTCHAR 014D
ENCODING 333
SWIDTH 521 0
DWIDTH 12 0
BBX 10 15 1 0
BITMAP
7FC0
7FC0
0000
0000
0000
1E00
2180
4180
C0C0
C0C0
C0C0
C0C0
6080
7100
1E00
ENDCHAR
STARTCHAR 014E
ENCODING 334
SWIDTH 608 0
DWIDTH 14 0
BBX 12 20 1 0
BITMAP
2080
30C0
1F80
0F80
0000
0000
0F80
30C0
6060
4060
C030
C030
C030
C030
C030
C030
6060
6040
3080
1F00
ENDCHAR
STARTCHAR 014F
ENCODING 335
SWIDTH 521 0
DWIDTH 12 0
BBX 10 16 1 0
BITMAP
4080
3180
3F00
1E00
0000
0000
1E00
2180
4180
C0C0
C0C0
C0C0
C0C0
6080
7100
1E00
ENDCHAR
STARTCHAR 0150
ENCODING 336
SWIDTH 608 0
DWIDTH 14 0
BBX 12 21 1 0
BITMAP
0480
06E0
0CC0
0C80
0980
1000
0000
0F80
30C0
6060
4060
C030
C030
C030
C030
C030
C030
6060
6040
3080
1F00
ENDCHAR
STARTCHAR 0151
ENCODING 337
SWIDTH 521 0
DWIDTH 12 0
BBX 10 17 1 0
BITMAP
0CC0
0DC0
1980
1B00
1200
2000
0000
1E00
2180
4180
C0C0
C0C0
C0C0
C0C0
6080
7100
1E00
ENDCHAR
STARTCHAR 0152
ENCODING 338
SWIDTH 826 0
DWIDTH 19 0
BBX 18 14 1 0
BITMAP
0FFF80
10FF80
206080
406080
C06000
C06000
C07F00
C06200
C06000
C06000
606000
7060C0
38E080
1FFF80
ENDCHAR
STARTCHAR 0153
ENCODING 339
SWIDTH 826 0
DWIDTH 19 0
BBX 17 10 1 0
BITMAP
1F1E00
23E300
41C180
C0C180
C0FF80
C0C000
C0C000
60E180
717F00
1E3C00
ENDCHAR
STARTCHAR 0154
ENCODING 340
SWIDTH 608 0
DWIDTH 14 0
BBX 14 20 0 0
BITMAP
0100
01C0
0380
0E00
0000
0000
7FC0
F0E0
3030
3030
3030
3060
3FC0
3380
31C0
31C0
30E0
3070
307C
FC3C
ENDCHAR
STARTCHAR 0155
ENCODING 341
SWIDTH 434 0
DWIDTH 10 0
BBX 9 17 1 0
BITMAP
0700
0700
0E00
0C00
1800
0000
0000
7780
FF80
7980
7100
7000
7000
7000
7000
7000
FC00
ENDCHAR
STARTCHAR 0158
ENCODING 344
SWIDTH 608 0
DWIDTH 14 0
BBX 14 20 0 0
BITMAP
2040
18C0
0F80
0700
0000
0000
7FC0
F0E0
3030
3030
3030
3060
3FC0
3380
31C0
31C0
30E0
3070
307C
FC3C
ENDCHAR
STARTCHAR 0159
ENCODING 345
SWIDTH 434 0
DWIDTH 10 0
BBX 9 17 1 0
BITMAP
4100
6380
3E00
1C00
1C00
0000
0000
7780
FF80
7980
7100
7000
7000
7000
7000
7000
FC00
ENDCHAR
STARTCHAR 015A
ENCODING 346
SWIDTH 521 0
DWIDTH 12 0
BBX 10 20 1 0
BITMAP
0200
0380
0F00
1C00
0000
0000
1F80
61C0
C080
C000
F000
7C00
3F00
0F80
03C0
01C0
80C0
C080
E180
FE00
ENDCHAR
STARTCHAR 015B
ENCODING 347
SWIDTH 434 0
DWIDTH 10 0
BBX 8 17 1 0
BITMAP
0E
0E
1C
18
30
00
00
7E
C6
C6
F0
7C
3F
87
83
C2
FC
ENDCHAR
STARTCHAR 015C
ENCODING 348
SWIDTH 521 0
DWIDTH 12 0
BBX 10 20 1 0
BITMAP
0C00
1E00
3F00
6180
0000
0000
1F80
61C0
C080
C000
F000
7C00
3F00
0F80
03C0
01C0
80C0
C080
E180
FE00
ENDCHAR
STARTCHAR 015D
ENCODING 349
SWIDTH 434 0
DWIDTH 10 0
BBX 8 17 1 0
BITMAP
18
3C
7C
66
83
00
00
7E
C6
C6
F0
7C
3F
87
83
C2
FC
ENDCHAR
STARTCHAR 0160
ENCODING 352
SWIDTH 521 0
DWIDTH 12 0
BBX 10 20 1 0
BITMAP
4100
3180
1E00
1E00
0000
0000
1F80
61C0
C080
C000
F000
7C00
3F00
0F80
03C0
01C0
80C0
C080
E180
FE00
ENDCHAR
STARTCHAR 0161
ENCODING 353
SWIDTH 434 0
DWIDTH 10 0
BBX 8 17 1 0
BITMAP
82
E7
7C
3C
18
00
00
7E
C6
C6
F0
7C
3F
87
83
C2
FC
ENDCHAR
STARTCHAR 0164
ENCODING 356
SWIDTH 565 0
DWIDTH 13 0
BBX 12 20 1 0
BITMAP
4080
3180
1B00
0E00
0000
0000
FFF0
C630
8610
8610
0600
0600
0600
0600
0600
0600
0600
0600
0600
1F80
ENDCHAR
STARTCHAR 0168
ENCODING 360
SWIDTH 652 0
DWIDTH 15 0
BBX 15 19 0 0
BITMAP
0210
0FF0
0BE0
1000
0000
FC7E
3018
3018
3018
3018
3018
3018
3018
3018
3018
3018
1830
1820
07C0
ENDCHAR
STARTCHAR 0169
ENCODING 361
SWIDTH 565 0
DWIDTH 13 0
BBX 12 16 1 0
BITMAP
1840
3C80
3F80
4700
0000
0000
61C0
E0C0
60C0
60C0
60C0
60C0
60C0
61C0
7FF0
3CC0
ENDCHAR
STARTCHAR 016A
ENCODING 362
SWIDTH 652 0
DWIDTH 15 0
BBX 15 18 0 0
BITMAP
0FF0
1FF8
0000
0000
FC7E
3018
3018
3018
3018
3018
3018
3018
3018
3018
3018
1830
1820
07C0
ENDCHAR
STARTCHAR 016B
ENCODING 363
SWIDTH 565 0
DWIDTH 13 0
BBX 12 15 1 0
BITMAP
7FC0
7FC0
0000
0000
0000
61C0
E0C0
60C0
60C0
60C0
60C0
60C0
61C0
7FF0
3CC0
ENDCHAR
STARTCHAR 016C
ENCODING 364
SWIDTH 652 0
DWIDTH 15 0
BBX 15 20 0 0
BITMAP
0820
0C30
0FE0
07C0
0000
0000
FC7E
3018
3018
3018
3018
3018
3018
3018
3018
3018
3018
1830
1820
07C0
ENDCHAR
STARTCHAR 016D
ENCODING 365
SWIDTH 565 0
DWIDTH 13 0
BBX 12 16 1 0
BITMAP
2080
7180
3F00
0E00
0000
0000
61C0
E0C0
60C0
60C0
60C0
60C0
60C0
61C0
7FF0
3CC0
ENDCHAR
STARTCHAR 016E
ENCODING 366
SWIDTH 652 0
DWIDTH 15 0
BBX 15 20 0 0
BITMAP
0080
03C0
0360
03C0
0000
0000
FC7E
3018
3018
3018
3018
3018
3018
3018
3018
3018
3018
1830
1820
07C0
ENDCHAR
STARTCHAR 016F
ENCODING 367
SWIDTH 565 0
DWIDTH 13 0
BBX 12 16 1 0
BITMAP
0F00
1B00
1B00
0E00
0000
0000
61C0
E0C0
60C0
60C0
60C0
60C0
60C0
61C0
7FF0
3CC0
ENDCHAR
STARTCHAR 0170
ENCODING 368
SWIDTH 652 0
DWIDTH 15 0
BBX 15 21 0 0
BITMAP
0120
03B8
0330
0260
0640
0000
0000
FC7E
3018
3018
3018
3018
3018
3018
3018
3018
3018
3018
1830
1820
07C0
ENDCHAR
STARTCHAR 0171
ENCODING 369
SWIDTH 565 0
DWIDTH 13 0
BBX 12 17 1 0
BITMAP
0CC0
0FC0
1980
1900
1300
0000
0000
61C0
E0C0
60C0
60C0
60C0
60C0
60C0
61C0
7FF0
3CC0
ENDCHAR
STARTCHAR 0174
ENCODING 372
SWIDTH 869 0
DWIDTH 20 0
BBX 19 20 0 0
BITMAP
006000
00F000
01F000
031800
000400
000000
FC63E0
3060C0
3870C0
38F080
38F180
18B980
199980
1D1D00
1D1D00
0F0F00
0E0F00
0E0700
0E0600
040600
ENDCHAR
STARTCHAR 0175
ENCODING 373
SWIDTH 739 0
DWIDTH 17 0
BBX 16 17 0 0
BITMAP
01C0
01C0
03E0
0630
0410
0000
0000
F887
70C2
31C6
39E6
3B64
1B7C
1E7C
0E38
0C38
0C10
ENDCHAR
STARTCHAR 0176
ENCODING 374
SWIDTH 608 0
DWIDTH 14 0
BBX 13 20 0 0
BITMAP
0300
0780
0FC0
1860
0000
0000
F078
3830
1C60
1C60
0EC0
0680
0780
0300
0300
0300
0300
0300
0300
0FC0
ENDCHAR
STARTCHAR 0177
ENCODING 375
SWIDTH 521 0
DWIDTH 12 0
BBX 13 22 -1 -5
BITMAP
0300
0780
07C0
0CC0
1820
0000
0000
7C78
3820
1C60
1C40
0EC0
0EC0
0680
0780
0700
0300
0300
0600
4600
7C00
F800
ENDCHAR
STARTCHAR 0178
ENCODING 376
SWIDTH 608 0
DWIDTH 14 0
BBX 13 19 0 0
BITMAP
0840
18E0
18E0
0000
0000
F078
3830
1C60
1C60
0EC0
0680
0780
0300
0300
0300
0300
0300
0300
0FC0
ENDCHAR
STARTCHAR 0179
ENCODING 377
SWIDTH 565 0
DWIDTH 13 0
BBX 11 20 1 0
BITMAP
0100
0380
0700
0C00
1000
0000
7FE0
C1C0
C380
8380
0700
0F00
0E00
1C00
1C00
3800
7820
7060
E060
FFE0
ENDCHAR
STARTCHAR 017A
ENCODING 378
SWIDTH 478 0
DWIDTH 11 0
BBX 9 17 1 0
BITMAP
0700
0700
0E00
0C00
1800
0000
0000
FF80
C700
8700
0E00
1C00
3C00
3900
7080
E180
FF80
ENDCHAR
STARTCHAR 017B
ENCODING 379
SWIDTH 565 0
DWIDTH 13 0
BBX 11 19 1 0
BITMAP
0400
0E00
0E00
0000
0000
7FE0
C1C0
C380
8380
0700
0F00
0E00
1C00
1C00
3800
7820
7060
E060
FFE0
ENDCHAR
STARTCHAR 017C
ENCODING 380
SWIDTH 478 0
DWIDTH 11 0
BBX 9 15 1 0
BITMAP
0C00
0C00
1C00
0000
0000
FF80
C700
8700
0E00
1C00
3C00
3900
7080
E180
FF80
ENDCHAR
STARTCHAR 017D
ENCODING 381
SWIDTH 565 0
DWIDTH 13 0
BBX 11 20 1 0
BITMAP
2080
3180
1F00
0E00
0000
0000
7FE0
C1C0
C380
8380
0700
0F00
0E00
1C00
1C00
3800
7820
7060
E060
FFE0
ENDCHAR
STARTCHAR 017E
ENCODING 382
SWIDTH 478 0
DWIDTH 11 0
BBX 9 17 1 0
BITMAP
4100
6380
3E00
1E00
0C00
0000
0000
FF80
C700
8700
0E00
1C00
3C00
3900
7080
E180
FF80
ENDCHAR
STARTCHAR 0181
ENCODING 385
SWIDTH 739 0
DWIDTH 17 0
BBX 15 14 1 0
BITMAP
1FE0
7638
C618
C618
E618
8630
07F8
061C
060E
060E
060E
060E
061C
1FF8
ENDCHAR
STARTCHAR 0186
ENCODING 390
SWIDTH 565 0
DWIDTH 13 0
BBX 11 14 1 0
BITMAP
3F00
C180
00C0
00C0
0060
0060
0060
0060
2060
C060
C0C0
C0C0
E180
7E00
ENDCHAR
STARTCHAR 0189
ENCODING 393
SWIDTH 652 0
DWIDTH 15 0
BBX 14 14 0 0
BITMAP
7FC0
F0F0
3038
3018
301C
301C
FE1C
301C
301C
301C
3018
3038
30F0
FFC0
ENDCHAR
STARTCHAR 018A
ENCODING 394
SWIDTH 782 0
DWIDTH 18 0
BBX 16 14 1 0
BITMAP
1FF0
763C
C60E
C606
E607
8607
0607
0607
0607
0607
0606
060E
061C
1FF0
ENDCHAR
STARTCHAR 018E
ENCODING 398
SWIDTH 521 0
DWIDTH 12 0
BBX 11 14 1 0
BITMAP
7FE0
4380
4380
0380
0380
0380
3F80
4380
0380
0380
8380
8380
8380
FFE0
ENDCHAR
STARTCHAR 0190
ENCODING 400
SWIDTH 521 0
DWIDTH 12 0
BBX 10 14 1 0
BITMAP
1F80
63C0
C180
C000
C000
F000
7C00
7000
C000
C000
C000
E0C0
7F80
3E00
ENDCHAR
STARTCHAR 0192
ENCODING 402
SWIDTH 304 0
DWIDTH 7 0
BBX 12 22 -3 -5
BITMAP
00F0
0320
0200
0600
0600
0600
0600
0FC0
1600
0600
0600
0600
0600
0600
0600
0600
0600
0600
0600
4400
F800
F000
ENDCHAR
STARTCHAR 0197
ENCODING 407
SWIDTH 347 0
DWIDTH 8 0
BBX 6 14 1 0
BITMAP
FC
30
30
30
30
30
FC
30
30
30
30
30
30
FC
ENDCHAR
STARTCHAR 0198
ENCODING 408
SWIDTH 652 0
DWIDTH 15 0
BBX 14 14 0 0
BITMAP
FC38
307C
30CC
318C
3318
3A00
3C00
3E00
3700
33C0
31E0
30F0
307C
FC38
ENDCHAR
STARTCHAR 0199
ENCODING 409
SWIDTH 565 0
DWIDTH 13 0
BBX 11 17 1 0
BITMAP
0F80
11C0
2100
6000
6000
6000
6000
63E0
6380
6600
6C00
7C00
6E00
6700
6780
63C0
F1E0
ENDCHAR
STARTCHAR 019A
ENCODING 410
SWIDTH 347 0
DWIDTH 8 0
BBX 6 17 1 0
BITMAP
30
F0
30
30
30
30
30
30
FC
30
30
30
30
30
30
30
FC
ENDCHAR
STARTCHAR 019D
ENCODING 413
SWIDTH 652 0
DWIDTH 15 0
BBX 19 19 -4 -5
BITMAP
0F87E0
038180
03C180
03E180
03E180
037180
033980
033980
031D80
030D80
030F80
030780
030380
030180
030080
030000
260000
7C0000
F80000
ENDCHAR
STARTCHAR 019F
ENCODING 415
SWIDTH 608 0
DWIDTH 14 0
BBX 12 14 1 0
BITMAP
0F80
30C0
6060
4060
C030
C030
FFF0
C030
C030
C030
6060
6040
3080
1F00
ENDCHAR
STARTCHAR 01A0
ENCODING 416
SWIDTH 608 0
DWIDTH 14 0
BBX 13 17 1 0
BITMAP
0010
0038
0010
0FB0
10C0
2060
4060
C030
C030
C030
C030
C030
C020
6060
6040
3080
1F00
ENDCHAR
STARTCHAR 01A1
ENCODING 417
SWIDTH 608 0
DWIDTH 14 0
BBX 12 13 1 0
BITMAP
0010
0070
0070
1E60
2180
41C0
C0C0
C0C0
C0C0
C0C0
6080
7100
1E00
ENDCHAR
STARTCHAR 01A9
ENCODING 425
SWIDTH 565 0
DWIDTH 13 0
BBX 11 14 1 0
BITMAP
FFC0
F040
7040
3800
3800
1C00
0E00
0C00
1800
3000
3020
6060
FFE0
FFE0
ENDCHAR
STARTCHAR 01AA
ENCODING 426
SWIDTH 347 0
DWIDTH 8 0
BBX 11 22 0 -5
BITMAP
7800
CC00
CC00
FC00
7C00
0C00
0C00
0C00
0C00
0C00
0C00
0C00
0C00
0C00
0C00
0C00
0C00
0C00
0C20
0CE0
04E0
07C0
ENDCHAR
STARTCHAR 01AF
ENCODING 431
SWIDTH 739 0
DWIDTH 17 0
BBX 17 17 0 0
BITMAP
000100
000780
000300
FC7E00
301C00
301800
301800
301800
301800
301800
301800
301800
301800
301800
183000
182000
07C000
ENDCHAR
STARTCHAR 01B0
ENCODING 432
SWIDTH 695 0
DWIDTH 16 0
BBX 15 13 1 0
BITMAP
0006
001E
604E
E1CC
60F0
60C0
60C0
60C0
60C0
60C0
61C0
7FF0
3CC0
ENDCHAR
STARTCHAR 01B3
ENCODING 435
SWIDTH 695 0
DWIDTH 16 0
BBX 15 15 0 0
BITMAP
001C
F03E
3826
1C66
1C44
0EC8
0680
0780
0300
0300
0300
0300
0300
0300
0FC0
ENDCHAR
STARTCHAR 01B4
ENCODING 436
SWIDTH 521 0
DWIDTH 12 0
BBX 17 20 -1 -5
BITMAP
000780
000F80
001800
001000
003000
7C2000
386000
1C6000
1C4000
0EC000
0E8000
068000
078000
070000
030000
020000
020000
060000
7C0000
F00000
ENDCHAR
STARTCHAR 01B7
ENCODING 439
SWIDTH 521 0
DWIDTH 12 0
BBX 10 14 1 0
BITMAP
7F80
C3C0
C700
8E00
0E00
1F80
2180
01C0
00C0
00C0
00C0
4080
E180
7E00
ENDCHAR
STARTCHAR 01CD
ENCODING 461
SWIDTH 608 0
DWIDTH 14 0
BBX 14 20 0 0
BITMAP
1040
0C60
07C0
0380
0000
0000
0100
0780
0780
0580
0DC0
0CC0
08E0
18E0
1FE0
1070
3070
3030
2038
F87C
ENDCHAR
STARTCHAR 01CE
ENCODING 462
SWIDTH 478 0
DWIDTH 11 0
BBX 10 17 1 0
BITMAP
4100
7380
3E00
1E00
0C00
0000
0000
3E00
6300
E300
0300
3F00
6300
C300
C300
FFC0
7B00
ENDCHAR
STARTCHAR 01CF
ENCODING 463
SWIDTH 347 0
DWIDTH 8 0
BBX 7 20 0 0
BITMAP
82
C6
7C
38
00
00
7E
18
18
18
18
18
18
18
18
18
18
18
18
7E
ENDCHAR
STARTCHAR 01D0
ENCODING 464
SWIDTH 304 0
DWIDTH 7 0
BBX 7 17 0 0
BITMAP
82
C6
7C
38
38
00
00
38
78
18
18
18
18
18
18
18
7C
ENDCHAR
STARTCHAR 01D1
ENCODING 465
SWIDTH 608 0
DWIDTH 14 0
BBX 12 21 1 0
BITMAP
2080
10C0
1D80
0F00
0700
0000
0000
0F80
30C0
6060
4060
C030
C030
C030
C030
C030
C030
6060
6040
3080
1F00
ENDCHAR
STARTCHAR 01D2
ENCODING 466
SWIDTH 521 0
DWIDTH 12 0
BBX 10 17 1 0
BITMAP
2080
7380
1F00
1E00
0C00
0000
0000
1E00
2180
4180
C0C0
C0C0
C0C0
C0C0
6080
7100
1E00
ENDCHAR
STARTCHAR 01D3
ENCODING 467
SWIDTH 652 0
DWIDTH 15 0
BBX 15 20 0 0
BITMAP
0820
0C70
07C0
0380
0000
0000
FC7E
3018
3018
3018
3018
3018
3018
3018
3018
3018
3018
1830
1820
07C0
ENDCHAR
STARTCHAR 01D4
ENCODING 468
SWIDTH 565 0
DWIDTH 13 0
BBX 12 17 1 0
BITMAP
2080
3180
1F00
0E00
0E00
0000
0000
61C0
E0C0
60C0
60C0
60C0
60C0
60C0
61C0
7FF0
3CC0
ENDCHAR
STARTCHAR 01D5
ENCODING 469
SWIDTH 652 0
DWIDTH 15 0
BBX 15 21 0 0
BITMAP
1FF8
1FF0
0420
0C70
0C60
0000
0000
FC7E
3018
3018
3018
3018
3018
3018
3018
3018
3018
3018
1830
1820
07C0
ENDCHAR
STARTCHAR 01D6
ENCODING 470
SWIDTH 565 0
DWIDTH 13 0
BBX 12 19 1 0
BITMAP
7FC0
7FC0
0000
0000
3180
7180
6180
0000
0000
61C0
E0C0
60C0
60C0
60C0
60C0
60C0
61C0
7FF0
3CC0
ENDCHAR
STARTCHAR 01D7
ENCODING 471
SWIDTH 652 0
DWIDTH 15 0
BBX 15 23 0 0
BITMAP
0060
01F0
0380
0200
0420
0C70
0C60
0000
0000
FC7E
3018
3018
3018
3018
3018
3018
3018
3018
3018
3018
1830
1820
07C0
ENDCHAR
STARTCHAR 01D8
ENCODING 472
SWIDTH 565 0
DWIDTH 13 0
BBX 12 21 1 0
BITMAP
0380
0700
0600
0C00
0800
0000
3180
7180
6180
0000
0000
61C0
E0C0
60C0
60C0
60C0
60C0
60C0
61C0
7FF0
3CC0
ENDCHAR
STARTCHAR 01D9
ENCODING 473
SWIDTH 652 0
DWIDTH 15 0
BBX 15 23 0 0
BITMAP
0C30
06E0
03C0
0180
0420
0C70
0C60
0000
0000
FC7E
3018
3018
3018
3018
3018
3018
3018
3018
3018
3018
1830
1820
07C0
ENDCHAR
STARTCHAR 01DA
ENCODING 474
SWIDTH 565 0
DWIDTH 13 0
BBX 12 21 1 0
BITMAP
2080
3380
1F00
0E00
0C00
0000
3180
7180
6180
0000
0000
61C0
E0C0
60C0
60C0
60C0
60C0
60C0
61C0
7FF0
3CC0
ENDCHAR
STARTCHAR 01DB
ENCODING 475
SWIDTH 652 0
DWIDTH 15 0
BBX 15 23 0 0
BITMAP
0E00
0F00
0380
0040
0420
0C70
0C60
0000
0000
FC7E
3018
3018
3018
3018
3018
3018
3018
3018
3018
3018
1830
1820
07C0
ENDCHAR
STARTCHAR 01DC
ENCODING 476
SWIDTH 565 0
DWIDTH 13 0
BBX 12 21 1 0
BITMAP
3800
1C00
0C00
0600
0200
0000
3180
7180
6180
0000
0000
61C0
E0C0
60C0
60C0
60C0
60C0
60C0
61C0
7FF0
3CC0
ENDCHAR
STARTCHAR 01DD
ENCODING 477
SWIDTH 478 0
DWIDTH 11 0
BBX 9 10 1 0
BITMAP
3E00
7F00
8380
0180
0180
7F80
C180
C100
6300
3C00
ENDCHAR
STARTCHAR 01DE
ENCODING 478
SWIDTH 608 0
DWIDTH 14 0
BBX 14 21 0 0
BITMAP
1FF0
3FE0
0840
1CE0
18E0
0000
0000
0100
0780
0780
0580
0DC0
0CC0
08E0
18E0
1FE0
1070
3070
3030
2038
F87C
ENDCHAR
STARTCHAR 01DF
ENCODING 479
SWIDTH 478 0
DWIDTH 11 0
BBX 10 19 1 0
BITMAP
FFC0
FF80
0000
0000
6300
6380
6300
0000
0000
3E00
6300
E300
0300
3F00
6300
C300
C300
FFC0
7B00
ENDCHAR
STARTCHAR 01E0
ENCODING 480
SWIDTH 608 0
DWIDTH 14 0
BBX 14 21 0 0
BITMAP
1FF0
3FF0
0100
0380
0300
0000
0000
0100
0780
0780
0580
0DC0
0CC0
08E0
18E0
1FE0
1070
3070
3030
2038
F87C
ENDCHAR
STARTCHAR 01E1
ENCODING 481
SWIDTH 478 0
DWIDTH 11 0
BBX 10 19 1 0
BITMAP
7FC0
FF80
0000
0000
0C00
0C00
0C00
0000
0000
3E00
6300
E300
0300
3F00
6300
C300
C300
FFC0
7B00
ENDCHAR
STARTCHAR 01E2
ENCODING 482
SWIDTH 826 0
DWIDTH 19 0
BBX 18 18 0 0
BITMAP
01FE00
03FF00
000000
000000
07FF80
01E180
036080
036080
066000
066000
07FF00
0C6200
0C6000
186000
186000
306040
3060C0
F9FF80
ENDCHAR
STARTCHAR 01E3
ENCODING 483
SWIDTH 739 0
DWIDTH 17 0
BBX 15 15 1 0
BITMAP
0FF8
1FF0
0000
0000
0000
1E78
778C
E306
8306
1FFC
6300
C300
C784
FDFC
70F0
ENDCHAR
STARTCHAR 01E6
ENCODING 486
SWIDTH 608 0
DWIDTH 14 0
BBX 12 20 1 0
BITMAP
2040
18C0
0F80
0700
0000
0000
0FC0
10E0
2040
6000
4000
C000
C000
C000
C1F0
C060
6060
6060
3060
0F80
ENDCHAR
STARTCHAR 01E7
ENCODING 487
SWIDTH 521 0
DWIDTH 12 0
BBX 11 22 1 -5
BITMAP
4180
3300
3E00
1E00
0C00
0000
0000
1E60
23C0
6180
6180
6180
7300
3E00
3000
7C00
3F80
6FC0
C0C0
C0C0
E180
3E00
ENDCHAR
STARTCHAR 01E8
ENCODING 488
SWIDTH 608 0
DWIDTH 14 0
BBX 13 20 0 0
BITMAP
1040
0C60
07C0
0780
0000
0000
FCF8
30E0
30C0
3180
3300
3600
3C00
3E00
3700
3380
31C0
30E0
3078
FC78
ENDCHAR
STARTCHAR 01E9
ENCODING 489
SWIDTH 565 0
DWIDTH 13 0
BBX 12 22 1 0
BITMAP
3180
1B00
0E00
0600
0000
3000
F000
3000
3000
3000
3000
3000
31F0
31C0
3300
3600
3E00
3700
3380
31C0
31E0
F8F0
ENDCHAR
STARTCHAR 01EE
ENCODING 494
SWIDTH 521 0
DWIDTH 12 0
BBX 10 21 1 0
BITMAP
4100
2180
3B00
1E00
0E00
0000
0000
7F80
C3C0
C700
8E00
0E00
1F80
2180
01C0
00C0
00C0
00C0
4080
E180
7E00
ENDCHAR
STARTCHAR 01EF
ENCODING 495
SWIDTH 478 0
DWIDTH 11 0
BBX 9 21 1 -5
BITMAP
4100
E600
3C00
1C00
0000
0000
7F80
C300
8600
0E00
1C00
3800
3E00
4300
0380
0180
0180
0180
4100
E300
7C00
ENDCHAR
STARTCHAR 01F4
ENCODING 500
SWIDTH 608 0
DWIDTH 14 0
BBX 12 20 1 0
BITMAP
0100
01C0
0380
0E00
0000
0000
0FC0
10E0
2040
6000
4000
C000
C000
C000
C1F0
C060
6060
6060
3060
0F80
ENDCHAR
STARTCHAR 01F5
ENCODING 501
SWIDTH 521 0
DWIDTH 12 0
BBX 11 22 1 -5
BITMAP
0700
0780
0E00
0C00
1800
0000
0000
1E60
23C0
6180
6180
6180
7300
3E00
3000
7C00
3F80
6FC0
C0C0
C0C0
E180
3E00
ENDCHAR
STARTCHAR 01F8
ENCODING 504
SWIDTH 652 0
DWIDTH 15 0
BBX 15 20 0 0
BITMAP
0400
0E00
0700
0180
0040
0000
F87E
3818
3C18
3E18
3618
3718
3398
3198
31D8
30F8
3078
3038
3038
FC18
ENDCHAR
STARTCHAR 01F9
ENCODING 505
SWIDTH 565 0
DWIDTH 13 0
BBX 12 17 1 0
BITMAP
1800
3C00
0E00
0600
0300
0000
0000
3380
F7C0
38C0
30C0
30C0
30C0
30C0
30C0
30C0
F9F0
ENDCHAR
STARTCHAR 01FA
ENCODING 506
SWIDTH 608 0
DWIDTH 14 0
BBX 14 25 0 0
BITMAP
0080
00E0
03C0
0700
0000
0180
06C0
06C0
0780
0000
0000
0100
0780
0780
0580
0DC0
0CC0
08E0
18E0
1FE0
1070
3070
3030
2038
F87C
ENDCHAR
STARTCHAR 01FB
ENCODING 507
SWIDTH 478 0
DWIDTH 11 0
BBX 10 22 1 0
BITMAP
0700
0700
0E00
0C00
1800
0000
0E00
1B00
1A00
1C00
0000
0000
3E00
6300
E300
0300
3F00
6300
C300
C300
FFC0
7B00
ENDCHAR
STARTCHAR 01FC
ENCODING 508
SWIDTH 826 0
DWIDTH 19 0
BBX 18 20 0 0
BITMAP
000800
001E00
003C00
006000
000000
000000
07FF80
01E180
036080
036080
066000
066000
07FF00
0C6200
0C6000
186000
186000
306040
3060C0
F9FF80
ENDCHAR
STARTCHAR 01FD
ENCODING 509
SWIDTH 739 0
DWIDTH 17 0
BBX 15 17 1 0
BITMAP
00E0
00E0
01C0
0180
0300
0000
0000
1E78
778C
E306
8306
1FFC
6300
C300
C784
FDFC
70F0
ENDCHAR
STARTCHAR 01FE
ENCODING 510
SWIDTH 608 0
DWIDTH 14 0
BBX 12 21 1 -1
BITMAP
0100
01C0
0780
0E00
0000
0000
0FB0
10E0
20E0
60E0
C1F0
C370
C330
C630
CC30
E820
7860
7040
7080
DF00
8000
ENDCHAR
STARTCHAR 01FF
ENCODING 511
SWIDTH 521 0
DWIDTH 12 0
BBX 10 18 1 -1
BITMAP
0300
0780
0600
0C00
0800
1000
0040
1EC0
3380
63C0
C7C0
C4C0
C8C0
F8C0
7180
7100
5E00
8000
ENDCHAR
STARTCHAR 021E
ENCODING 542
SWIDTH 695 0
DWIDTH 16 0
BBX 16 20 0 0
BITMAP
0820
0C70
07C0
0380
0000
0000
FC3F
300C
300C
300C
300C
300C
3FFC
300C
300C
300C
300C
300C
300C
FC3F
ENDCHAR
STARTCHAR 021F
ENCODING 543
SWIDTH 565 0
DWIDTH 13 0
BBX 12 22 1 0
BITMAP
30C0
1F00
0F00
0600
0000
3000
F000
3000
3000
3000
3000
3000
3380
3FC0
38C0
30C0
30C0
30C0
30C0
30C0
30C0
F9F0
ENDCHAR
STARTCHAR 0226
ENCODING 550
SWIDTH 608 0
DWIDTH 14 0
BBX 14 19 0 0
BITMAP
0100
0380
0300
0000
0000
0100
0780
0780
0580
0DC0
0CC0
08E0
18E0
1FE0
1070
3070
3030
2038
F87C
ENDCHAR
STARTCHAR 0227
ENCODING 551
SWIDTH 478 0
DWIDTH 11 0
BBX 10 15 1 0
BITMAP
0C00
0C00
0C00
0000
0000
3E00
6300
E300
0300
3F00
6300
C300
C300
FFC0
7B00
ENDCHAR
STARTCHAR 0228
ENCODING 552
SWIDTH 521 0
DWIDTH 12 0
BBX 12 19 0 -5
BITMAP
FFE0
3860
3860
3840
3800
3800
3FC0
3880
3800
3800
3800
3830
3820
FFE0
0600
0700
0700
0700
0C00
ENDCHAR
STARTCHAR 0229
ENCODING 553
SWIDTH 478 0
DWIDTH 11 0
BBX 9 15 1 -5
BITMAP
1E00
6300
4180
C180
FF00
C000
C000
E000
7180
3E00
0800
0E00
1600
0600
1800
ENDCHAR
STARTCHAR 022A
ENCODING 554
SWIDTH 608 0
DWIDTH 14 0
BBX 12 21 1 0
BITMAP
3FE0
7FE0
1080
39C0
31C0
0000
0000
0F80
30C0
6060
4060
C030
C030
C030
C030
C030
C030
6060
6040
3080
1F00
ENDCHAR
STARTCHAR 022B
ENCODING 555
SWIDTH 521 0
DWIDTH 12 0
BBX 10 19 1 0
BITMAP
7FC0
7FC0
0000
0000
3180
7380
6180
0000
0000
1E00
2180
4180
C0C0
C0C0
C0C0
C0C0
6080
7100
1E00
ENDCHAR
STARTCHAR 022C
ENCODING 556
SWIDTH 608 0
DWIDTH 14 0
BBX 12 22 1 0
BITMAP
3FE0
3FE0
4000
0840
1FE0
3780
0000
0000
0F80
30C0
6060
4060
C030
C030
C030
C030
C030
C030
6060
6040
3080
1F00
ENDCHAR
STARTCHAR 022D
ENCODING 557
SWIDTH 521 0
DWIDTH 12 0
BBX 10 19 1 0
BITMAP
7FC0
7FC0
0000
1840
3C80
7F80
4700
0000
0000
1E00
2180
4180
C0C0
C0C0
C0C0
C0C0
6080
7100
1E00
ENDCHAR
STARTCHAR 022E
ENCODING 558
SWIDTH 608 0
DWIDTH 14 0
BBX 12 19 1 0
BITMAP
0200
0700
0600
0000
0000
0F80
30C0
6060
4060
C030
C030
C030
C030
C030
C030
6060
6040
3080
1F00
ENDCHAR
STARTCHAR 022F
ENCODING 559
SWIDTH 521 0
DWIDTH 12 0
BBX 10 15 1 0
BITMAP
0600
0E00
0C00
0000
0000
1E00
2180
4180
C0C0
C0C0
C0C0
C0C0
6080
7100
1E00
ENDCHAR
STARTCHAR 0230
ENCODING 560
SWIDTH 608 0
DWIDTH 14 0
BBX 12 21 1 0
BITMAP
3FE0
7FE0
0200
0700
0600
0000
0000
0F80
30C0
6060
4060
C030
C030
C030
C030
C030
C030
6060
6040
3080
1F00
ENDCHAR
STARTCHAR 0231
ENCODING 561
SWIDTH 521 0
DWIDTH 12 0
BBX 10 19 1 0
BITMAP
7FC0
7FC0
0000
0000
0600
0E00
0C00
0000
0000
1E00
2180
4180
C0C0
C0C0
C0C0
C0C0
6080
7100
1E00
ENDCHAR
STARTCHAR 0232
ENCODING 562
SWIDTH 608 0
DWIDTH 14 0
BBX 13 18 0 0
BITMAP
1FF0
1FF0
2000
0000
F078
3830
1C60
1C60
0EC0
0680
0780
0300
0300
0300
0300
0300
0300
0FC0
ENDCHAR
STARTCHAR 0233
ENCODING 563
SWIDTH 521 0
DWIDTH 12 0
BBX 13 20 -1 -5
BITMAP
1FF0
3FF0
0000
0000
0000
7C78
3820
1C60
1C40
0EC0
0EC0
0680
0780
0700
0300
0300
0600
4600
7C00
F800
ENDCHAR
STARTCHAR 0237
ENCODING 567
SWIDTH 304 0
DWIDTH 7 0
BBX 7 15 -3 -5
BITMAP
06
0E
06
06
06
06
06
06
06
06
06
06
44
F8
F0
ENDCHAR
STARTCHAR 023D
ENCODING 573
SWIDTH 521 0
DWIDTH 12 0
BBX 11 14 0 0
BITMAP
FC00
3000
3000
3000
3000
3000
3000
FF00
3000
3000
3000
3060
3040
FFC0
ENDCHAR
STARTCHAR 0241
ENCODING 577
SWIDTH 478 0
DWIDTH 11 0
BBX 10 14 0 0
BITMAP
3F00
6180
E0C0
E0C0
80C0
0180
0300
0600
0600
0600
0600
0600
0600
1F80
ENDCHAR
STARTCHAR 0242
ENCODING 578
SWIDTH 434 0
DWIDTH 10 0
BBX 8 10 1 0
BITMAP
3E
C7
C3
83
04
18
30
30
30
FC
ENDCHAR
STARTCHAR 0244
ENCODING 580
SWIDTH 695 0
DWIDTH 16 0
BBX 16 14 0 0
BITMAP
FC3F
300C
300C
300C
300C
300C
FFFF
300C
300C
300C
300C
1818
0C30
07E0
ENDCHAR
STARTCHAR 0245
ENCODING 581
SWIDTH 652 0
DWIDTH 15 0
BBX 15 14 0 0
BITMAP
0100
0380
0380
07C0
05C0
0CE0
0CE0
0860
1870
1870
1038
3038
3018
F87E
ENDCHAR
STARTCHAR 024A
ENCODING 586
SWIDTH 652 0
DWIDTH 15 0
BBX 17 19 1 -5
BITMAP
0F2000
10E000
206000
606000
406000
C06000
C06000
C06000
C06000
C06000
606000
71E000
3F6000
1E6000
006000
006080
006180
006100
003E00
ENDCHAR
STARTCHAR 024B
ENCODING 587
SWIDTH 565 0
DWIDTH 13 0
BBX 15 15 1 -5
BITMAP
1E40
61C0
40C0
C0C0
C0C0
C0C0
C0C0
61C0
7FC0
3CC0
00C0
00C2
00CE
00CE
0078
ENDCHAR
STARTCHAR 0251
ENCODING 593
SWIDTH 521 0
DWIDTH 12 0
BBX 11 10 1 0
BITMAP
1E80
2380
4180
C180
C180
C180
C180
E380
7FE0
3D80
ENDCHAR
STARTCHAR 0253
ENCODING 595
SWIDTH 521 0
DWIDTH 12 0
BBX 10 17 1 0
BITMAP
0F80
33C0
6100
4000
C000
C000
C000
CF00
FF80
E1C0
C0C0
C0C0
C0C0
C080
C180
FF00
3C00
ENDCHAR
STARTCHAR 0254
ENCODING 596
SWIDTH 478 0
DWIDTH 11 0
BBX 9 10 1 0
BITMAP
1E00
7F00
C380
0180
0180
6180
C180
C100
E300
7C00
ENDCHAR
STARTCHAR 0256
ENCODING 598
SWIDTH 565 0
DWIDTH 13 0
BBX 15 22 1 -5
BITMAP
00C0
03C0
00C0
00C0
00C0
00C0
00C0
1FC0
21C0
40C0
C0C0
C0C0
C0C0
C0C0
61C0
7FC0
3CC0
00C0
00C2
00CE
00CE
0078
ENDCHAR
STARTCHAR 0257
ENCODING 599
SWIDTH 565 0
DWIDTH 13 0
BBX 15 17 1 0
BITMAP
003C
004E
0048
00C0
00C0
00C0
00C0
1FC0
21C0
40C0
C0C0
C0C0
C0C0
C0C0
61C0
7FF0
3CC0
ENDCHAR
STARTCHAR 0259
ENCODING 601
SWIDTH 478 0
DWIDTH 11 0
BBX 9 10 1 0
BITMAP
3E00
7F00
8380
0180
0180
7F80
C180
C100
6300
3C00
ENDCHAR
STARTCHAR 025B
ENCODING 603
SWIDTH 434 0
DWIDTH 10 0
BBX 8 10 1 0
BITMAP
3E
C7
C2
E0
78
60
C0
C1
FE
7C
ENDCHAR
STARTCHAR 0263
ENCODING 611
SWIDTH 478 0
DWIDTH 11 0
BBX 11 15 0 -5
BITMAP
F9E0
70C0
38C0
3980
1D80
1F00
0E00
0E00
0700
0F00
0F80
1980
1980
1980
0F00
ENDCHAR
STARTCHAR 0268
ENCODING 616
SWIDTH 304 0
DWIDTH 7 0
BBX 6 15 1 0
BITMAP
30
70
30
00
00
70
B0
30
30
FC
30
30
30
30
F8
ENDCHAR
STARTCHAR 0269
ENCODING 617
SWIDTH 347 0
DWIDTH 8 0
BBX 6 10 1 0
BITMAP
60
E0
60
60
60
60
60
64
78
70
ENDCHAR
STARTCHAR 026B
ENCODING 619
SWIDTH 391 0
DWIDTH 9 0
BBX 8 17 1 0
BITMAP
18
78
18
18
18
18
18
39
7E
9E
18
18
18
18
18
18
7E
ENDCHAR
STARTCHAR 0272
ENCODING 626
SWIDTH 565 0
DWIDTH 13 0
BBX 15 15 -3 -5
BITMAP
0678
1EFC
070C
060C
060C
060C
060C
060C
060C
063E
0600
0600
4400
F800
F000
ENDCHAR
STARTCHAR 0275
ENCODING 629
SWIDTH 521 0
DWIDTH 12 0
BBX 10 10 1 0
BITMAP
1E00
2180
4180
C0C0
FFC0
C0C0
C0C0
6080
7100
1E00
ENDCHAR
STARTCHAR 0283
ENCODING 643
SWIDTH 217 0
DWIDTH 5 0
BBX 12 22 -4 -5
BITMAP
01F0
0260
0200
0600
0600
0600
0600
0600
0600
0600
0700
0300
0300
0300
0300
0300
0300
0300
0300
2200
7C00
F800
ENDCHAR
STARTCHAR 0289
ENCODING 649
SWIDTH 565 0
DWIDTH 13 0
BBX 12 10 1 0
BITMAP
E1C0
60C0
60C0
60C0
FFF0
60C0
60C0
61C0
7FF0
3CC0
ENDCHAR
STARTCHAR 028A
ENCODING 650
SWIDTH 521 0
DWIDTH 12 0
BBX 10 10 1 0
BITMAP
F3C0
3300
6180
40C0
C0C0
C0C0
C0C0
C080
6180
3E00
ENDCHAR
STARTCHAR 028C
ENCODING 652
SWIDTH 521 0
DWIDTH 12 0
BBX 12 10 0 0
BITMAP
0600
0E00
0F00
0F00
1B80
1380
31C0
21C0
60C0
F1F0
ENDCHAR
STARTCHAR 0292
ENCODING 658
SWIDTH 478 0
DWIDTH 11 0
BBX 9 15 1 -5
BITMAP
7F80
C300
8600
0E00
1C00
3800
3E00
4300
0380
0180
0180
0180
4100
E300
7C00
ENDCHAR
STARTCHAR 0294
ENCODING 660
SWIDTH 478 0
DWIDTH 11 0
BBX 10 17 0 0
BITMAP
1F00
6180
E0C0
E0C0
80C0
00C0
0180
0300
0600
0C00
0C00
0C00
0C00
0C00
0C00
0C00
3F00
ENDCHAR
STARTCHAR 02A0
ENCODING 672
SWIDTH 565 0
DWIDTH 13 0
BBX 15 22 1 -5
BITMAP
003C
004E
0048
00C0
00C0
00C0
00C0
1FC0
61C0
40C0
C0C0
C0C0
C0C0
C0C0
61C0
7FC0
3EC0
00C0
00C0
00C0
00C0
03E0
ENDCHAR
STARTCHAR 02BC
ENCODING 700
SWIDTH 260 0
DWIDTH 6 0
BBX 4 6 1 10
BITMAP
70
F0
30
30
20
40
ENDCHAR
STARTCHAR 02C0
ENCODING 704
SWIDTH 347 0
DWIDTH 8 0
BBX 7 8 0 9
BITMAP
3C
C6
C6
06
0C
18
18
18
ENDCHAR
STARTCHAR 02C6
ENCODING 710
SWIDTH 347 0
DWIDTH 8 0
BBX 8 5 0 12
BITMAP
18
3C
3E
66
C1
ENDCHAR
STARTCHAR 02C7
ENCODING 711
SWIDTH 347 0
DWIDTH 8 0
BBX 8 5 0 12
BITMAP
C1
66
3E
3C
18
ENDCHAR
STARTCHAR 02C9
ENCODING 713
SWIDTH 478 0
DWIDTH 11 0
BBX 9 2 1 13
BITMAP
FF80
FF80
ENDCHAR
STARTCHAR 02CA
ENCODING 714
SWIDTH 217 0
DWIDTH 5 0
BBX 5 5 0 12
BITMAP
38
38
70
60
C0
ENDCHAR
STARTCHAR 02CB
ENCODING 715
SWIDTH 217 0
DWIDTH 5 0
BBX 5 5 0 12
BITMAP
E0
70
30
18
08
ENDCHAR
STARTCHAR 02CD
ENCODING 717
SWIDTH 478 0
DWIDTH 11 0
BBX 9 2 1 -2
BITMAP
FF80
FF80
ENDCHAR
STARTCHAR 02D7
ENCODING 727
SWIDTH 347 0
DWIDTH 8 0
BBX 7 1 1 5
BITMAP
FE
ENDCHAR
STARTCHAR 02D8
ENCODING 728
SWIDTH 347 0
DWIDTH 8 0
BBX 8 4 0 12
BITMAP
81
C3
7E
3C
ENDCHAR
STARTCHAR 02D9
ENCODING 729
SWIDTH 217 0
DWIDTH 5 0
BBX 3 3 1 12
BITMAP
60
E0
60
ENDCHAR
STARTCHAR 02DA
ENCODING 730
SWIDTH 260 0
DWIDTH 6 0
BBX 4 4 1 12
BITMAP
70
F0
F0
E0
ENDCHAR
STARTCHAR 02DB
ENCODING 731
SWIDTH 260 0
DWIDTH 6 0
BBX 5 5 1 -5
BITMAP
30
60
C0
D0
F8
ENDCHAR
STARTCHAR 02DC
ENCODING 732
SWIDTH 391 0
DWIDTH 9 0
BBX 9 4 0 12
BITMAP
3080
7D80
7F00
8E00
ENDCHAR
STARTCHAR 02DD
ENCODING 733
SWIDTH 391 0
DWIDTH 9 0
BBX 7 5 1 12
BITMAP
66
7E
CC
C8
90
ENDCHAR
STARTCHAR 0300
ENCODING 768
SWIDTH 0 0
DWIDTH 0 0
BBX 5 5 -8 12
BITMAP
E0
E0
70
30
18
ENDCHAR
STARTCHAR 0301
ENCODING 769
SWIDTH 0 0
DWIDTH 0 0
BBX 6 5 -8 12
BITMAP
38
3C
70
60
C0
ENDCHAR
STARTCHAR 0302
ENCODING 770
SWIDTH 0 0
DWIDTH 0 0
BBX 8 5 -10 12
BITMAP
18
3C
3E
66
C1
ENDCHAR
STARTCHAR 0303
ENCODING 771
SWIDTH 0 0
DWIDTH 0 0
BBX 8 4 -10 12
BITMAP
71
79
FE
8E
ENDCHAR
STARTCHAR 0304
ENCODING 772
SWIDTH 0 0
DWIDTH 0 0
BBX 10 2 -11 13
BITMAP
7FC0
FFC0
ENDCHAR
STARTCHAR 0306
ENCODING 774
SWIDTH 0 0
DWIDTH 0 0
BBX 8 4 -10 12
BITMAP
81
63
7E
3C
ENDCHAR
STARTCHAR 0307
ENCODING 775
SWIDTH 0 0
DWIDTH 0 0
BBX 3 3 -7 12
BITMAP
C0
E0
C0
ENDCHAR
STARTCHAR 0308
ENCODING 776
SWIDTH 0 0
DWIDTH 0 0
BBX 8 3 -10 12
BITMAP
C3
E7
C3
ENDCHAR
STARTCHAR 0309
ENCODING 777
SWIDTH 0 0
DWIDTH 0 0
BBX 5 4 -8 12
BITMAP
78
D8
30
70
ENDCHAR
STARTCHAR 030A
ENCODING 778
SWIDTH 0 0
DWIDTH 0 0
BBX 5 4 -8 12
BITMAP
70
D8
D8
70
ENDCHAR
STARTCHAR 030B
ENCODING 779
SWIDTH 0 0
DWIDTH 0 0
BBX 7 5 -8 12
BITMAP
66
7E
CC
C8
98
ENDCHAR
STARTCHAR 030C
ENCODING 780
SWIDTH 0 0
DWIDTH 0 0
BBX 8 5 -10 12
BITMAP
41
E7
3E
3C
18
ENDCHAR
STARTCHAR 031B
ENCODING 795
SWIDTH 43 0
DWIDTH 1 0
BBX 5 5 -4 8
BITMAP
18
38
38
70
C0
ENDCHAR
STARTCHAR 0323
ENCODING 803
SWIDTH 0 0
DWIDTH 0 0
BBX 3 3 -7 -5
BITMAP
C0
E0
C0
ENDCHAR
STARTCHAR 0327
ENCODING 807
SWIDTH 0 0
DWIDTH 0 0
BBX 4 5 -8 -5
BITMAP
20
60
30
30
E0
ENDCHAR
STARTCHAR 0328
ENCODING 808
SWIDTH 0 0
DWIDTH 0 0
BBX 5 5 -8 -5
BITMAP
30
60
C0
D0
F8
ENDCHAR
STARTCHAR 0331
ENCODING 817
SWIDTH 0 0
DWIDTH 0 0
BBX 10 2 -11 -4
BITMAP
7FC0
FFC0
ENDCHAR
STARTCHAR 033F
ENCODING 831
SWIDTH 0 0
DWIDTH 0 0
BBX 13 4 -12 14
BITMAP
7FF8
8000
0000
FFF8
ENDCHAR
STARTCHAR 035E
ENCODING 862
SWIDTH 0 0
DWIDTH 0 0
BBX 16 2 -8 18
BITMAP
FFFF
FFFF
ENDCHAR
STARTCHAR 035F
ENCODING 863
SWIDTH 0 0
DWIDTH 0 0
BBX 16 2 -8 -8
BITMAP
FFFF
FFFF
ENDCHAR
STARTCHAR 03A0
ENCODING 928
SWIDTH 652 0
DWIDTH 15 0
BBX 15 14 0 0
BITMAP
FFFE
3018
3018
3018
3018
3018
3018
3018
3018
3018
3018
3018
3018
FC7E
ENDCHAR
STARTCHAR 03A9
ENCODING 937
SWIDTH 695 0
DWIDTH 16 0
BBX 14 14 1 0
BITMAP
0FC0
3030
6018
600C
C00C
C00C
C00C
C00C
6018
2010
9024
9044
F87C
F87C
ENDCHAR
STARTCHAR 03C0
ENCODING 960
SWIDTH 521 0
DWIDTH 12 0
BBX 12 10 0 0
BITMAP
3FF0
7FF0
7FE0
8980
1980
1980
1980
1980
39F0
70E0
ENDCHAR
STARTCHAR 1E02
ENCODING 7682
SWIDTH 608 0
DWIDTH 14 0
BBX 13 19 0 0
BITMAP
0200
0700
0700
0000
0000
7F80
B0C0
3060
3060
3060
30C0
3FE0
3070
3038
3038
3038
3038
3070
FFE0
ENDCHAR
STARTCHAR 1E03
ENCODING 7683
SWIDTH 521 0
DWIDTH 12 0
BBX 10 17 1 0
BITMAP
2000
E000
6300
6700
6300
6000
6000
6700
6F80
71C0
60C0
60C0
60C0
6080
6180
7F00
1E00
ENDCHAR
STARTCHAR 1E04
ENCODING 7684
SWIDTH 608 0
DWIDTH 14 0
BBX 13 19 0 -5
BITMAP
7F80
B0C0
3060
3060
3060
30C0
3FE0
3070
3038
3038
3038
3038
3070
FFE0
0000
0000
0300
0700
0600
ENDCHAR
STARTCHAR 1E05
ENCODING 7685
SWIDTH 521 0
DWIDTH 12 0
BBX 11 22 0 -5
BITMAP
6000
E000
6000
6000
6000
6000
6000
7780
7FC0
70E0
6060
6060
6060
6040
60C0
7F80
1E00
0000
0000
0600
0600
0600
ENDCHAR
STARTCHAR 1E06
ENCODING 7686
SWIDTH 608 0
DWIDTH 14 0
BBX 13 18 0 -4
BITMAP
7F80
B0C0
3060
3060
3060
30C0
3FE0
3070
3038
3038
3038
3038
3070
FFE0
0000
0000
3FE0
3FE0
ENDCHAR
STARTCHAR 1E07
ENCODING 7687
SWIDTH 521 0
DWIDTH 12 0
BBX 11 21 0 -4
BITMAP
6000
E000
6000
6000
6000
6000
6000
7780
7FC0
70E0
6060
6060
6060
6040
60C0
7F80
1E00
0000
0000
7FE0
7FC0
ENDCHAR
STARTCHAR 1E08
ENCODING 7688
SWIDTH 565 0
DWIDTH 13 0
BBX 11 25 1 -5
BITMAP
0180
03C0
0780
0E00
0800
0000
0FC0
31C0
6080
4000
C000
C000
C000
C000
C000
C000
6000
7060
3FC0
1F80
0400
0600
0300
0300
0C00
ENDCHAR
STARTCHAR 1E09
ENCODING 7689
SWIDTH 434 0
DWIDTH 10 0
BBX 9 22 1 -5
BITMAP
0700
0700
0E00
0C00
1800
0000
0000
1F00
6380
4100
C000
C000
C000
C000
E100
7E00
3C00
1000
1C00
0C00
0C00
3000
ENDCHAR
STARTCHAR 1E0A
ENCODING 7690
SWIDTH 652 0
DWIDTH 15 0
BBX 14 19 0 0
BITMAP
0200
0300
0700
0000
0000
7FC0
F0F0
3038
3018
301C
301C
301C
301C
301C
301C
3018
3038
30F0
FFC0
ENDCHAR
STARTCHAR 1E0B
ENCODING 7691
SWIDTH 565 0
DWIDTH 13 0
BBX 12 17 1 0
BITMAP
00C0
03C0
30C0
30C0
30C0
00C0
00C0
1FC0
21C0
40C0
C0C0
C0C0
C0C0
C0C0
61C0
7FF0
3CC0
ENDCHAR
STARTCHAR 1E0C
ENCODING 7692
SWIDTH 652 0
DWIDTH 15 0
BBX 14 19 0 -5
BITMAP
7FC0
F0F0
3038
3018
301C
301C
301C
301C
301C
301C
3018
3038
30F0
FFC0
0000
0000
0300
0700
0300
ENDCHAR
STARTCHAR 1E0D
ENCODING 7693
SWIDTH 565 0
DWIDTH 13 0
BBX 12 22 1 -5
BITMAP
00C0
03C0
00C0
00C0
00C0
00C0
00C0
1FC0
21C0
40C0
C0C0
C0C0
C0C0
C0C0
61C0
7FF0
3CC0
0000
0000
0600
0E00
0C00
ENDCHAR
STARTCHAR 1E0E
ENCODING 7694
SWIDTH 652 0
DWIDTH 15 0
BBX 14 18 0 -4
BITMAP
7FC0
F0F0
3038
3018
301C
301C
301C
301C
301C
301C
3018
3038
30F0
FFC0
0000
0000
3FE0
3FE0
ENDCHAR
STARTCHAR 1E0F
ENCODING 7695
SWIDTH 565 0
DWIDTH 13 0
BBX 12 21 1 -4
BITMAP
00C0
03C0
00C0
00C0
00C0
00C0
00C0
1FC0
21C0
40C0
C0C0
C0C0
C0C0
C0C0
61C0
7FF0
3CC0
0000
0000
7FC0
FFC0
ENDCHAR
STARTCHAR 1E14
ENCODING 7700
SWIDTH 521 0
DWIDTH 12 0
BBX 12 23 0 0
BITMAP
1800
3C00
0E00
0100
0000
3FE0
3FE0
4000
0000
FFE0
3860
3860
3840
3800
3800
3FC0
3880
3800
3800
3800
3830
3820
FFE0
ENDCHAR
STARTCHAR 1E15
ENCODING 7701
SWIDTH 478 0
DWIDTH 11 0
BBX 10 21 1 0
BITMAP
3800
3800
1C00
0C00
0600
0000
7FC0
FF80
0000
0000
0000
1E00
6300
4180
C180
FF80
C000
C000
E180
7F00
3E00
ENDCHAR
STARTCHAR 1E16
ENCODING 7702
SWIDTH 521 0
DWIDTH 12 0
BBX 12 23 0 0
BITMAP
0180
03C0
0700
0800
0000
3FE0
3FE0
4000
0000
FFE0
3860
3860
3840
3800
3800
3FC0
3880
3800
3800
3800
3830
3820
FFE0
ENDCHAR
STARTCHAR 1E17
ENCODING 7703
SWIDTH 478 0
DWIDTH 11 0
BBX 10 21 1 0
BITMAP
0700
0780
0E00
0C00
1800
0000
7FC0
FF80
0000
0000
0000
1E00
6300
4180
C180
FF80
C000
C000
E180
7F00
3E00
ENDCHAR
STARTCHAR 1E1C
ENCODING 7708
SWIDTH 521 0
DWIDTH 12 0
BBX 12 25 0 -5
BITMAP
2040
30C0
1F80
0F00
0000
0000
FFE0
3860
3860
3840
3800
3800
3FC0
3880
3800
3800
3800
3830
3820
FFE0
0600
0700
0700
0700
0C00
ENDCHAR
STARTCHAR 1E1D
ENCODING 7709
SWIDTH 478 0
DWIDTH 11 0
BBX 9 21 1 -5
BITMAP
4080
6180
3F00
1E00
0000
0000
1E00
6300
4180
C180
FF80
C000
C000
E000
6180
3E00
0800
0E00
1600
0600
1800
ENDCHAR
STARTCHAR 1E1E
ENCODING 7710
SWIDTH 521 0
DWIDTH 12 0
BBX 11 19 0 0
BITMAP
0400
0600
0E00
0000
0000
FFE0
3860
3820
3820
3800
3800
3F80
3900
3800
3800
3800
3800
3800
FE00
ENDCHAR
STARTCHAR 1E1F
ENCODING 7711
SWIDTH 347 0
DWIDTH 8 0
BBX 9 21 0 0
BITMAP
0E00
0E00
0400
0000
0780
1900
1000
3000
3000
3000
3000
7E00
B000
3000
3000
3000
3000
3000
3000
3000
7C00
ENDCHAR
STARTCHAR 1E20
ENCODING 7712
SWIDTH 608 0
DWIDTH 14 0
BBX 12 18 1 0
BITMAP
3FE0
3FE0
0000
0000
0FC0
10E0
2040
6000
4000
C000
C000
C000
C1F0
C060
6060
6060
3060
0F80
ENDCHAR
STARTCHAR 1E21
ENCODING 7713
SWIDTH 521 0
DWIDTH 12 0
BBX 11 20 1 -5
BITMAP
7FC0
FF80
0000
0000
0000
1E60
23C0
6180
6180
6180
7300
3E00
3000
7C00
3F80
6FC0
C0C0
C0C0
E180
3E00
ENDCHAR
STARTCHAR 1E22
ENCODING 7714
SWIDTH 695 0
DWIDTH 16 0
BBX 16 19 0 0
BITMAP
0080
0180
0180
0000
0000
FC3F
300C
300C
300C
300C
300C
3FFC
300C
300C
300C
300C
300C
300C
FC3F
ENDCHAR
STARTCHAR 1E23
ENCODING 7715
SWIDTH 565 0
DWIDTH 13 0
BBX 12 21 1 0
BITMAP
0600
0600
0400
0000
3000
F000
3000
3000
3000
3000
3000
3380
3FC0
38C0
30C0
30C0
30C0
30C0
30C0
30C0
F9F0
ENDCHAR
STARTCHAR 1E24
ENCODING 7716
SWIDTH 695 0
DWIDTH 16 0
BBX 16 19 0 -5
BITMAP
FC3F
300C
300C
300C
300C
300C
3FFC
300C
300C
300C
300C
300C
300C
FC3F
0000
0000
0180
0180
0180
ENDCHAR
STARTCHAR 1E25
ENCODING 7717
SWIDTH 565 0
DWIDTH 13 0
BBX 12 22 1 -5
BITMAP
3000
F000
3000
3000
3000
3000
3000
3380
3FC0
38C0
30C0
30C0
30C0
30C0
30C0
30C0
F9F0
0000
0000
0600
0600
0600
ENDCHAR
STARTCHAR 1E26
ENCODING 7718
SWIDTH 695 0
DWIDTH 16 0
BBX 16 19 0 0
BITMAP
0420
0C70
0C60
0000
0000
FC3F
300C
300C
300C
300C
300C
3FFC
300C
300C
300C
300C
300C
300C
FC3F
ENDCHAR
STARTCHAR 1E27
ENCODING 7719
SWIDTH 565 0
DWIDTH 13 0
BBX 12 21 1 0
BITMAP
31C0
3180
2080
0000
3000
F000
3000
3000
3000
3000
3000
3380
3FC0
38C0
30C0
30C0
30C0
30C0
30C0
30C0
F9F0
ENDCHAR
STARTCHAR 1E2E
ENCODING 7726
SWIDTH 347 0
DWIDTH 8 0
BBX 9 23 -1 0
BITMAP
0300
0F80
1C00
3000
4100
6300
E300
0000
0000
3F00
0C00
0C00
0C00
0C00
0C00
0C00
0C00
0C00
0C00
0C00
0C00
0C00
3F00
ENDCHAR
STARTCHAR 1E2F
ENCODING 7727
SWIDTH 304 0
DWIDTH 7 0
BBX 8 21 -1 0
BITMAP
07
0E
0C
18
10
00
63
E3
C3
00
00
1C
3C
0C
0C
0C
0C
0C
0C
0C
3E
ENDCHAR
STARTCHAR 1E30
ENCODING 7728
SWIDTH 608 0
DWIDTH 14 0
BBX 13 20 0 0
BITMAP
0080
00E0
03C0
0700
0000
0000
FCF8
30E0
30C0
3180
3300
3600
3C00
3E00
3700
3380
31C0
30E0
3078
FC78
ENDCHAR
STARTCHAR 1E31
ENCODING 7729
SWIDTH 565 0
DWIDTH 13 0
BBX 12 22 1 0
BITMAP
0380
07C0
0E00
1000
0000
3000
F000
3000
3000
3000
3000
3000
31F0
31C0
3300
3600
3E00
3700
3380
31C0
31E0
F8F0
ENDCHAR
STARTCHAR 1E32
ENCODING 7730
SWIDTH 608 0
DWIDTH 14 0
BBX 13 19 0 -5
BITMAP
FCF8
30E0
30C0
3180
3300
3600
3C00
3E00
3700
3380
31C0
30E0
3078
FC78
0000
0000
0180
0380
0300
ENDCHAR
STARTCHAR 1E33
ENCODING 7731
SWIDTH 565 0
DWIDTH 13 0
BBX 12 22 1 -5
BITMAP
3000
F000
3000
3000
3000
3000
3000
31F0
31C0
3300
3600
3E00
3700
3380
31C0
31E0
F8F0
0000
0000
0600
0E00
0600
ENDCHAR
STARTCHAR 1E34
ENCODING 7732
SWIDTH 608 0
DWIDTH 14 0
BBX 13 18 0 -4
BITMAP
FCF8
30E0
30C0
3180
3300
3600
3C00
3E00
3700
3380
31C0
30E0
3078
FC78
0000
0000
1FF0
1FF0
ENDCHAR
STARTCHAR 1E35
ENCODING 7733
SWIDTH 565 0
DWIDTH 13 0
BBX 12 21 1 -4
BITMAP
3000
F000
3000
3000
3000
3000
3000
31F0
31C0
3300
3600
3E00
3700
3380
31C0
31E0
F8F0
0000
0000
7FC0
7FC0
ENDCHAR
STARTCHAR 1E36
ENCODING 7734
SWIDTH 521 0
DWIDTH 12 0
BBX 11 19 0 -5
BITMAP
FC00
3000
3000
3000
3000
3000
3000
3000
3000
3000
3000
3060
3040
FFC0
0000
0000
0600
0600
0600
ENDCHAR
STARTCHAR 1E37
ENCODING 7735
SWIDTH 304 0
DWIDTH 7 0
BBX 6 22 1 -5
BITMAP
30
F0
30
30
30
30
30
30
30
30
30
30
30
30
30
30
FC
00
00
30
70
60
ENDCHAR
STARTCHAR 1E38
ENCODING 7736
SWIDTH 521 0
DWIDTH 12 0
BBX 11 23 0 -5
BITMAP
3FC0
7FC0
0000
0000
FC00
3000
3000
3000
3000
3000
3000
3000
3000
3000
3000
3060
3040
FFC0
0000
0000
0600
0600
0600
ENDCHAR
STARTCHAR 1E39
ENCODING 7737
SWIDTH 304 0
DWIDTH 7 0
BBX 9 26 -1 -5
BITMAP
FF80
FF80
0000
0000
0C00
3C00
0C00
0C00
0C00
0C00
0C00
0C00
0C00
0C00
0C00
0C00
0C00
0C00
0C00
0C00
3F00
0000
0000
0C00
1C00
1800
ENDCHAR
STARTCHAR 1E3A
ENCODING 7738
SWIDTH 521 0
DWIDTH 12 0
BBX 11 18 0 -4
BITMAP
FC00
3000
3000
3000
3000
3000
3000
3000
3000
3000
3000
3060
3040
FFC0
0000
0000
3FE0
7FC0
ENDCHAR
STARTCHAR 1E3B
ENCODING 7739
SWIDTH 304 0
DWIDTH 7 0
BBX 9 21 -1 -4
BITMAP
0C00
3C00
0C00
0C00
0C00
0C00
0C00
0C00
0C00
0C00
0C00
0C00
0C00
0C00
0C00
0C00
3F00
0000
0000
FF80
FF80
ENDCHAR
STARTCHAR 1E3E
ENCODING 7742
SWIDTH 826 0
DWIDTH 19 0
BBX 18 20 1 0
BITMAP
002000
007000
00E800
018000
020000
000000
F00780
780F00
780F00
7C0F00
7C1F00
6C1700
6E3700
663700
676700
636700
63C700
63C700
618700
F18FC0
ENDCHAR
STARTCHAR 1E3F
ENCODING 7743
SWIDTH 826 0
DWIDTH 19 0
BBX 18 17 1 0
BITMAP
007000
007000
00E000
00C000
018000
000000
000000
678E00
FFFF00
70E300
60C300
60C300
60C300
60C300
60C300
60C300
F1E7C0
ENDCHAR
STARTCHAR 1E40
ENCODING 7744
SWIDTH 826 0
DWIDTH 19 0
BBX 18 19 1 0
BITMAP
008000
00C000
01C000
000000
000000
F00780
780F00
780F00
7C0F00
7C1F00
6C1700
6E3700
663700
676700
636700
63C700
63C700
618700
F18FC0
ENDCHAR
STARTCHAR 1E41
ENCODING 7745
SWIDTH 826 0
DWIDTH 19 0
BBX 18 15 1 0
BITMAP
00C000
00C000
00C000
000000
000000
678E00
FFFF00
70E300
60C300
60C300
60C300
60C300
60C300
60C300
F1E7C0
ENDCHAR
STARTCHAR 1E42
ENCODING 7746
SWIDTH 826 0
DWIDTH 19 0
BBX 18 19 1 -5
BITMAP
F00780
780F00
780F00
7C0F00
7C1F00
6C1700
6E3700
663700
676700
636700
63C700
63C700
618700
F18FC0
000000
000000
00C000
01C000
00C000
ENDCHAR
STARTCHAR 1E43
ENCODING 7747
SWIDTH 826 0
DWIDTH 19 0
BBX 18 15 1 -5
BITMAP
678E00
FFFF00
70E300
60C300
60C300
60C300
60C300
60C300
60C300
F1E7C0
000000
000000
00C000
00C000
00C000
ENDCHAR
STARTCHAR 1E44
ENCODING 7748
SWIDTH 652 0
DWIDTH 15 0
BBX 15 19 0 0
BITMAP
0100
0180
0380
0000
0000
F87E
3818
3C18
3E18
3618
3718
3398
3198
31D8
30F8
3078
3038
3038
FC18
ENDCHAR
STARTCHAR 1E45
ENCODING 7749
SWIDTH 565 0
DWIDTH 13 0
BBX 12 15 1 0
BITMAP
0600
0600
0600
0000
0000
3380
F7C0
38C0
30C0
30C0
30C0
30C0
30C0
30C0
F9F0
ENDCHAR
STARTCHAR 1E46
ENCODING 7750
SWIDTH 652 0
DWIDTH 15 0
BBX 15 19 0 -5
BITMAP
F87E
3818
3C18
3E18
3618
3718
3398
3198
31D8
30F8
3078
3038
3038
FC18
0000
0000
0180
0380
0180
ENDCHAR
STARTCHAR 1E47
ENCODING 7751
SWIDTH 565 0
DWIDTH 13 0
BBX 12 15 1 -5
BITMAP
3380
F7C0
38C0
30C0
30C0
30C0
30C0
30C0
30C0
F9F0
0000
0000
0600
0600
0600
ENDCHAR
STARTCHAR 1E48
ENCODING 7752
SWIDTH 652 0
DWIDTH 15 0
BBX 15 18 0 -4
BITMAP
F87E
3818
3C18
3E18
3618
3718
3398
3198
31D8
30F8
3078
3038
3038
FC18
0000
0000
1FF0
1FF0
ENDCHAR
STARTCHAR 1E49
ENCODING 7753
SWIDTH 565 0
DWIDTH 13 0
BBX 12 14 1 -4
BITMAP
3380
F7C0
38C0
30C0
30C0
30C0
30C0
30C0
30C0
F9F0
0000
0000
7FE0
7FC0
ENDCHAR
STARTCHAR 1E4C
ENCODING 7756
SWIDTH 608 0
DWIDTH 14 0
BBX 12 24 1 0
BITMAP
0100
01C0
0780
0E00
0000
0840
1FE0
3780
0000
0000
0F80
30C0
6060
4060
C030
C030
C030
C030
C030
C030
6060
6040
3080
1F00
ENDCHAR
STARTCHAR 1E4D
ENCODING 7757
SWIDTH 521 0
DWIDTH 12 0
BBX 10 21 1 0
BITMAP
0380
0700
0600
0C00
0800
1840
3C80
7F80
4700
0000
0000
1E00
2180
4180
C0C0
C0C0
C0C0
C0C0
6080
7100
1E00
ENDCHAR
STARTCHAR 1E4E
ENCODING 7758
SWIDTH 608 0
DWIDTH 14 0
BBX 12 23 1 0
BITMAP
1080
39C0
31C0
0000
0840
1FE0
3780
0000
0000
0F80
30C0
6060
4060
C030
C030
C030
C030
C030
C030
6060
6040
3080
1F00
ENDCHAR
STARTCHAR 1E4F
ENCODING 7759
SWIDTH 521 0
DWIDTH 12 0
BBX 10 19 1 0
BITMAP
7180
7180
2100
1840
3C80
7F80
4700
0000
0000
1E00
2180
4180
C0C0
C0C0
C0C0
C0C0
6080
7100
1E00
ENDCHAR
STARTCHAR 1E50
ENCODING 7760
SWIDTH 608 0
DWIDTH 14 0
BBX 12 23 1 0
BITMAP
1800
3C00
0600
0100
0000
3FE0
3FE0
4000
0000
0F80
30C0
6060
4060
C030
C030
C030
C030
C030
C030
6060
6040
3080
1F00
ENDCHAR
STARTCHAR 1E51
ENCODING 7761
SWIDTH 521 0
DWIDTH 12 0
BBX 10 21 1 0
BITMAP
3800
3800
1C00
0600
0200
0000
7FC0
7FC0
0000
0000
0000
1E00
2180
4180
C0C0
C0C0
C0C0
C0C0
6080
7100
1E00
ENDCHAR
STARTCHAR 1E52
ENCODING 7762
SWIDTH 608 0
DWIDTH 14 0
BBX 12 23 1 0
BITMAP
0180
03C0
0700
0800
0000
3FE0
3FE0
4000
0000
0F80
30C0
6060
4060
C030
C030
C030
C030
C030
C030
6060
6040
3080
1F00
ENDCHAR
STARTCHAR 1E53
ENCODING 7763
SWIDTH 521 0
DWIDTH 12 0
BBX 10 21 1 0
BITMAP
0380
0700
0600
0C00
0800
0000
7FC0
7FC0
0000
0000
0000
1E00
2180
4180
C0C0
C0C0
C0C0
C0C0
6080
7100
1E00
ENDCHAR
STARTCHAR 1E54
ENCODING 7764
SWIDTH 565 0
DWIDTH 13 0
BBX 12 20 0 0
BITMAP
0100
01C0
0380
0E00
0000
0000
7FC0
B0E0
3030
3030
3030
3030
3060
3780
3000
3000
3000
3000
3000
FC00
ENDCHAR
STARTCHAR 1E55
ENCODING 7765
SWIDTH 565 0
DWIDTH 13 0
BBX 11 22 1 -5
BITMAP
0380
0700
0600
0C00
0800
0000
0000
3380
FFC0
38E0
3060
3060
3060
3060
30C0
3F80
3700
3000
3000
3000
3000
FC00
ENDCHAR
STARTCHAR 1E56
ENCODING 7766
SWIDTH 565 0
DWIDTH 13 0
BBX 12 19 0 0
BITMAP
0200
0700
0600
0000
0000
7FC0
B0E0
3030
3030
3030
3030
3060
3780
3000
3000
3000
3000
3000
FC00
ENDCHAR
STARTCHAR 1E57
ENCODING 7767
SWIDTH 565 0
DWIDTH 13 0
BBX 11 20 1 -5
BITMAP
0600
0E00
0C00
0000
0000
3380
FFC0
38E0
3060
3060
3060
3060
30C0
3F80
3700
3000
3000
3000
3000
FC00
ENDCHAR
STARTCHAR 1E58
ENCODING 7768
SWIDTH 608 0
DWIDTH 14 0
BBX 14 19 0 0
BITMAP
0200
0700
0600
0000
0000
7FC0
F0E0
3030
3030
3030
3060
3FC0
3380
31C0
31C0
30E0
3070
307C
FC3C
ENDCHAR
STARTCHAR 1E59
ENCODING 7769
SWIDTH 434 0
DWIDTH 10 0
BBX 9 15 1 0
BITMAP
0C00
1C00
0C00
0000
0000
7780
FF80
7980
7100
7000
7000
7000
7000
7000
FC00
ENDCHAR
STARTCHAR 1E5A
ENCODING 7770
SWIDTH 608 0
DWIDTH 14 0
BBX 14 19 0 -5
BITMAP
7FC0
F0E0
3030
3030
3030
3060
3FC0
3380
31C0
31C0
30E0
3070
307C
FC3C
0000
0000
0300
0700
0600
ENDCHAR
STARTCHAR 1E5B
ENCODING 7771
SWIDTH 434 0
DWIDTH 10 0
BBX 9 15 1 -5
BITMAP
7780
FF80
7980
7100
7000
7000
7000
7000
7000
FC00
0000
0000
3000
7000
6000
ENDCHAR
STARTCHAR 1E5C
ENCODING 7772
SWIDTH 608 0
DWIDTH 14 0
BBX 14 23 0 -5
BITMAP
3FE0
3FE0
0000
0000
7FC0
F0E0
3030
3030
3030
3060
3FC0
3380
31C0
31C0
30E0
3070
307C
FC3C
0000
0000
0300
0700
0600
ENDCHAR
STARTCHAR 1E5D
ENCODING 7773
SWIDTH 434 0
DWIDTH 10 0
BBX 10 20 1 -5
BITMAP
FFC0
FF80
0000
0000
0000
7780
FF80
7980
7100
7000
7000
7000
7000
7000
FC00
0000
0000
3000
7000
6000
ENDCHAR
STARTCHAR 1E5E
ENCODING 7774
SWIDTH 608 0
DWIDTH 14 0
BBX 14 18 0 -4
BITMAP
7FC0
F0E0
3030
3030
3030
3060
3FC0
3380
31C0
31C0
30E0
3070
307C
FC3C
0000
0000
3FE0
7FE0
ENDCHAR
STARTCHAR 1E5F
ENCODING 7775
SWIDTH 434 0
DWIDTH 10 0
BBX 11 14 -1 -4
BITMAP
1DE0
3FE0
1E60
1C40
1C00
1C00
1C00
1C00
1C00
3F00
0000
0000
FF80
FF80
ENDCHAR
STARTCHAR 1E60
ENCODING 7776
SWIDTH 521 0
DWIDTH 12 0
BBX 10 19 1 0
BITMAP
0400
0C00
0C00
0000
0000
1F80
61C0
C080
C000
F000
7C00
3F00
0F80
03C0
01C0
80C0
C080
E180
FE00
ENDCHAR
STARTCHAR 1E61
ENCODING 7777
SWIDTH 434 0
DWIDTH 10 0
BBX 8 15 1 0
BITMAP
18
18
18
00
00
7E
C6
C6
F0
7C
3F
87
83
C2
FC
ENDCHAR
STARTCHAR 1E62
ENCODING 7778
SWIDTH 521 0
DWIDTH 12 0
BBX 10 19 1 -5
BITMAP
1F80
61C0
C080
C000
F000
7C00
3F00
0F80
03C0
01C0
80C0
C080
E180
FE00
0000
0000
0C00
0C00
0C00
ENDCHAR
STARTCHAR 1E63
ENCODING 7779
SWIDTH 434 0
DWIDTH 10 0
BBX 8 15 1 -5
BITMAP
7E
C6
C6
F0
7C
3F
87
83
C2
FC
00
00
18
18
18
ENDCHAR
STARTCHAR 1E64
ENCODING 7780
SWIDTH 521 0
DWIDTH 12 0
BBX 10 22 1 0
BITMAP
0C00
0C00
0A00
0380
0F00
1C00
0000
0000
1F80
61C0
C080
C000
F000
7C00
3F00
0F80
03C0
01C0
80C0
C080
E180
FE00
ENDCHAR
STARTCHAR 1E65
ENCODING 7781
SWIDTH 434 0
DWIDTH 10 0
BBX 8 19 1 0
BITMAP
30
30
3E
0E
1C
18
30
00
00
7E
C6
C6
F0
7C
3F
87
83
C2
FC
ENDCHAR
STARTCHAR 1E66
ENCODING 7782
SWIDTH 521 0
DWIDTH 12 0
BBX 10 22 1 0
BITMAP
0C00
0C00
4900
3180
1E00
1E00
0000
0000
1F80
61C0
C080
C000
F000
7C00
3F00
0F80
03C0
01C0
80C0
C080
E180
FE00
ENDCHAR
STARTCHAR 1E67
ENCODING 7783
SWIDTH 434 0
DWIDTH 10 0
BBX 8 20 1 0
BITMAP
10
18
18
82
E7
7C
3C
18
00
00
7E
C6
C6
F0
7C
3F
87
83
C2
FC
ENDCHAR
STARTCHAR 1E68
ENCODING 7784
SWIDTH 521 0
DWIDTH 12 0
BBX 10 24 1 -5
BITMAP
0400
0C00
0C00
0000
0000
1F80
61C0
C080
C000
F000
7C00
3F00
0F80
03C0
01C0
80C0
C080
E180
FE00
0000
0000
0C00
0C00
0C00
ENDCHAR
STARTCHAR 1E69
ENCODING 7785
SWIDTH 434 0
DWIDTH 10 0
BBX 8 20 1 -5
BITMAP
18
18
18
00
00
7E
C6
C6
F0
7C
3F
87
83
C2
FC
00
00
18
18
18
ENDCHAR
STARTCHAR 1E6A
ENCODING 7786
SWIDTH 565 0
DWIDTH 13 0
BBX 12 19 1 0
BITMAP
0400
0E00
0E00
0000
0000
FFF0
C630
8610
8610
0600
0600
0600
0600
0600
0600
0600
0600
0600
1F80
ENDCHAR
STARTCHAR 1E6B
ENCODING 7787
SWIDTH 391 0
DWIDTH 9 0
BBX 8 18 0 0
BITMAP
18
1C
18
00
10
30
30
30
7F
B0
30
30
30
30
30
32
3F
18
ENDCHAR
STARTCHAR 1E6C
ENCODING 7788
SWIDTH 565 0
DWIDTH 13 0
BBX 12 19 1 -5
BITMAP
FFF0
C630
8610
8610
0600
0600
0600
0600
0600
0600
0600
0600
0600
1F80
0000
0000
0600
0E00
0C00
ENDCHAR
STARTCHAR 1E6D
ENCODING 7789
SWIDTH 391 0
DWIDTH 9 0
BBX 8 19 0 -5
BITMAP
10
30
30
30
7F
B0
30
30
30
30
30
32
3F
18
00
00
18
1C
18
ENDCHAR
STARTCHAR 1E6E
ENCODING 7790
SWIDTH 565 0
DWIDTH 13 0
BBX 12 18 1 -4
BITMAP
FFF0
C630
8610
8610
0600
0600
0600
0600
0600
0600
0600
0600
0600
1F80
0000
0000
7FC0
7FC0
ENDCHAR
STARTCHAR 1E6F
ENCODING 7791
SWIDTH 391 0
DWIDTH 9 0
BBX 10 18 -1 -4
BITMAP
0800
1800
1800
1800
3F80
5800
1800
1800
1800
1800
1800
1900
1F80
0C00
0000
0000
7FC0
FFC0
ENDCHAR
STARTCHAR 1E78
ENCODING 7800
SWIDTH 652 0
DWIDTH 15 0
BBX 15 24 0 0
BITMAP
0040
00F0
01E0
0300
0000
0210
0FF0
0BE0
1000
0000
FC7E
3018
3018
3018
3018
3018
3018
3018
3018
3018
3018
1830
1820
07C0
ENDCHAR
STARTCHAR 1E79
ENCODING 7801
SWIDTH 565 0
DWIDTH 13 0
BBX 12 21 1 0
BITMAP
0380
0700
0600
0C00
0800
1840
3C80
3F80
4700
0000
0000
61C0
E0C0
60C0
60C0
60C0
60C0
60C0
61C0
7FF0
3CC0
ENDCHAR
STARTCHAR 1E7A
ENCODING 7802
SWIDTH 652 0
DWIDTH 15 0
BBX 15 22 0 0
BITMAP
0C60
0C70
0C60
0000
0FF0
1FF8
0000
0000
FC7E
3018
3018
3018
3018
3018
3018
3018
3018
3018
3018
1830
1820
07C0
ENDCHAR
STARTCHAR 1E7B
ENCODING 7803
SWIDTH 565 0
DWIDTH 13 0
BBX 12 19 1 0
BITMAP
3180
7180
6180
0000
7FC0
7FC0
0000
0000
0000
61C0
E0C0
60C0
60C0
60C0
60C0
60C0
61C0
7FF0
3CC0
ENDCHAR
STARTCHAR 1E7C
ENCODING 7804
SWIDTH 652 0
DWIDTH 15 0
BBX 15 19 0 0
BITMAP
0220
0FF0
0BE0
1000
0000
FC3E
3808
3818
3810
1C30
1C30
0E20
0E60
0660
0740
07C0
0380
0380
0100
ENDCHAR
STARTCHAR 1E7D
ENCODING 7805
SWIDTH 521 0
DWIDTH 12 0
BBX 12 16 0 0
BITMAP
0C20
1E40
3FC0
2380
0000
0000
F8F0
7040
38C0
3880
1C80
1D80
0D00
0F00
0600
0600
ENDCHAR
STARTCHAR 1E7E
ENCODING 7806
SWIDTH 652 0
DWIDTH 15 0
BBX 15 19 0 -5
BITMAP
FC3E
3808
3818
3810
1C30
1C30
0E20
0E60
0660
0740
07C0
0380
0380
0100
0000
0000
0180
0380
0300
ENDCHAR
STARTCHAR 1E7F
ENCODING 7807
SWIDTH 521 0
DWIDTH 12 0
BBX 12 15 0 -5
BITMAP
F8F0
7040
38C0
3880
1C80
1D80
0D00
0F00
0600
0600
0000
0000
0600
0600
0600
ENDCHAR
STARTCHAR 1E80
ENCODING 7808
SWIDTH 869 0
DWIDTH 20 0
BBX 19 20 0 0
BITMAP
010000
038000
01C000
007000
000000
000000
FC63E0
3060C0
3870C0
38F080
38F180
18B980
199980
1D1D00
1D1D00
0F0F00
0E0F00
0E0700
0E0600
040600
ENDCHAR
STARTCHAR 1E81
ENCODING 7809
SWIDTH 739 0
DWIDTH 17 0
BBX 16 17 0 0
BITMAP
0700
0380
0180
00C0
0040
0000
0000
F887
70C2
31C6
39E6
3B64
1B7C
1E7C
0E38
0C38
0C10
ENDCHAR
STARTCHAR 1E82
ENCODING 7810
SWIDTH 869 0
DWIDTH 20 0
BBX 19 20 0 0
BITMAP
001000
003C00
007800
00C000
000000
000000
FC63E0
3060C0
3870C0
38F080
38F180
18B980
199980
1D1D00
1D1D00
0F0F00
0E0F00
0E0700
0E0600
040600
ENDCHAR
STARTCHAR 1E83
ENCODING 7811
SWIDTH 739 0
DWIDTH 17 0
BBX 16 17 0 0
BITMAP
0070
00F0
00E0
0180
0100
0000
0000
F887
70C2
31C6
39E6
3B64
1B7C
1E7C
0E38
0C38
0C10
ENDCHAR
STARTCHAR 1E84
ENCODING 7812
SWIDTH 869 0
DWIDTH 20 0
BBX 19 19 0 0
BITMAP
010800
031C00
031800
000000
000000
FC63E0
3060C0
3870C0
38F080
38F180
18B980
199980
1D1D00
1D1D00
0F0F00
0E0F00
0E0700
0E0600
040600
ENDCHAR
STARTCHAR 1E85
ENCODING 7813
SWIDTH 739 0
DWIDTH 17 0
BBX 16 15 0 0
BITMAP
0630
0E30
0C30
0000
0000
F887
70C2
31C6
39E6
3B64
1B7C
1E7C
0E38
0C38
0C10
ENDCHAR
STARTCHAR 1E86
ENCODING 7814
SWIDTH 869 0
DWIDTH 20 0
BBX 19 19 0 0
BITMAP
002000
006000
006000
000000
000000
FC63E0
3060C0
3870C0
38F080
38F180
18B980
199980
1D1D00
1D1D00
0F0F00
0E0F00
0E0700
0E0600
040600
ENDCHAR
STARTCHAR 1E87
ENCODING 7815
SWIDTH 739 0
DWIDTH 17 0
BBX 16 15 0 0
BITMAP
00C0
01C0
0180
0000
0000
F887
70C2
31C6
39E6
3B64
1B7C
1E7C
0E38
0C38
0C10
ENDCHAR
STARTCHAR 1E88
ENCODING 7816
SWIDTH 869 0
DWIDTH 20 0
BBX 19 19 0 -5
BITMAP
FC63E0
3060C0
3870C0
38F080
38F180
18B980
199980
1D1D00
1D1D00
0F0F00
0E0F00
0E0700
0E0600
040600
000000
000000
006000
006000
006000
ENDCHAR
STARTCHAR 1E89
ENCODING 7817
SWIDTH 739 0
DWIDTH 17 0
BBX 16 15 0 -5
BITMAP
F887
70C2
31C6
39E6
3B64
1B7C
1E7C
0E38
0C38
0C10
0000
0000
00C0
01C0
0180
ENDCHAR
STARTCHAR 1E8A
ENCODING 7818
SWIDTH 608 0
DWIDTH 14 0
BBX 14 19 0 0
BITMAP
0100
0380
0300
0000
0000
FC7C
3830
1C60
1C60
0EC0
0780
0780
0780
07C0
0CE0
18E0
1870
3038
F8FC
ENDCHAR
STARTCHAR 1E8B
ENCODING 7819
SWIDTH 521 0
DWIDTH 12 0
BBX 12 15 0 0
BITMAP
0600
0600
0600
0000
0000
FDF0
38C0
1D80
1F00
0E00
0F00
1B80
11C0
21E0
F3F0
ENDCHAR
STARTCHAR 1E8C
ENCODING 7820
SWIDTH 608 0
DWIDTH 14 0
BBX 14 19 0 0
BITMAP
0840
1C60
18E0
0000
0000
FC7C
3830
1C60
1C60
0EC0
0780
0780
0780
07C0
0CE0
18E0
1870
3038
F8FC
ENDCHAR
STARTCHAR 1E8D
ENCODING 7821
SWIDTH 521 0
DWIDTH 12 0
BBX 12 15 0 0
BITMAP
30C0
31C0
3180
0000
0000
FDF0
38C0
1D80
1F00
0E00
0F00
1B80
11C0
21E0
F3F0
ENDCHAR
STARTCHAR 1E8E
ENCODING 7822
SWIDTH 608 0
DWIDTH 14 0
BBX 13 19 0 0
BITMAP
0100
0300
0300
0000
0000
F078
3830
1C60
1C60
0EC0
0680
0780
0300
0300
0300
0300
0300
0300
0FC0
ENDCHAR
STARTCHAR 1E8F
ENCODING 7823
SWIDTH 521 0
DWIDTH 12 0
BBX 13 20 -1 -5
BITMAP
0300
0380
0300
0000
0000
7C78
3820
1C60
1C40
0EC0
0EC0
0680
0780
0700
0300
0300
0600
4600
7C00
F800
ENDCHAR
STARTCHAR 1E90
ENCODING 7824
SWIDTH 565 0
DWIDTH 13 0
BBX 11 20 1 0
BITMAP
0400
0E00
1F00
3180
0000
0000
7FE0
C1C0
C380
8380
0700
0F00
0E00
1C00
1C00
3800
7820
7060
E060
FFE0
ENDCHAR
STARTCHAR 1E91
ENCODING 7825
SWIDTH 478 0
DWIDTH 11 0
BBX 9 17 1 0
BITMAP
0C00
1E00
3E00
6300
4180
0000
0000
FF80
C700
8700
0E00
1C00
3C00
3900
7080
E180
FF80
ENDCHAR
STARTCHAR 1E92
ENCODING 7826
SWIDTH 565 0
DWIDTH 13 0
BBX 11 19 1 -5
BITMAP
7FE0
C1C0
C380
8380
0700
0F00
0E00
1C00
1C00
3800
7820
7060
E060
FFE0
0000
0000
0600
0E00
0C00
ENDCHAR
STARTCHAR 1E93
ENCODING 7827
SWIDTH 478 0
DWIDTH 11 0
BBX 9 15 1 -5
BITMAP
FF80
C700
8700
0E00
1C00
3C00
3900
7080
E180
FF80
0000
0000
0C00
1C00
1800
ENDCHAR
STARTCHAR 1E94
ENCODING 7828
SWIDTH 565 0
DWIDTH 13 0
BBX 11 18 1 -4
BITMAP
7FE0
C1C0
C380
8380
0700
0F00
0E00
1C00
1C00
3800
7820
7060
E060
FFE0
0000
0000
7FC0
FFC0
ENDCHAR
STARTCHAR 1E95
ENCODING 7829
SWIDTH 478 0
DWIDTH 11 0
BBX 9 14 1 -4
BITMAP
FF80
C700
8700
0E00
1C00
3C00
3900
7080
E180
FF80
0000
0000
FF80
FF80
ENDCHAR
STARTCHAR 1E96
ENCODING 7830
SWIDTH 565 0
DWIDTH 13 0
BBX 12 21 1 -4
BITMAP
3000
F000
3000
3000
3000
3000
3000
3380
3FC0
38C0
30C0
30C0
30C0
30C0
30C0
30C0
F9F0
0000
0000
7FE0
7FC0
ENDCHAR
STARTCHAR 1E97
ENCODING 7831
SWIDTH 391 0
DWIDTH 9 0
BBX 8 18 0 0
BITMAP
C3
E7
C2
00
10
30
30
30
7F
B0
30
30
30
30
30
32
3F
18
ENDCHAR
STARTCHAR 1E98
ENCODING 7832
SWIDTH 739 0
DWIDTH 17 0
BBX 16 16 0 0
BITMAP
01E0
0160
0360
01C0
0000
0000
F887
70C2
31C6
39E6
3B64
1B7C
1E7C
0E38
0C38
0C10
ENDCHAR
STARTCHAR 1E99
ENCODING 7833
SWIDTH 521 0
DWIDTH 12 0
BBX 13 21 -1 -5
BITMAP
0380
06C0
06C0
0780
0000
0000
7C78
3820
1C60
1C40
0EC0
0EC0
0680
0780
0700
0300
0300
0600
4600
7C00
F800
ENDCHAR
STARTCHAR 1EA0
ENCODING 7840
SWIDTH 608 0
DWIDTH 14 0
BBX 14 19 0 -5
BITMAP
0100
0780
0780
0580
0DC0
0CC0
08E0
18E0
1FE0
1070
3070
3030
2038
F87C
0000
0000
0300
0380
0300
ENDCHAR
STARTCHAR 1EA1
ENCODING 7841
SWIDTH 478 0
DWIDTH 11 0
BBX 10 15 1 -5
BITMAP
3E00
6300
E300
0300
3F00
6300
C300
C300
FFC0
7B00
0000
0000
0C00
1C00
1800
ENDCHAR
STARTCHAR 1EA2
ENCODING 7842
SWIDTH 608 0
DWIDTH 14 0
BBX 14 20 0 0
BITMAP
0180
06C0
0180
0300
0000
0000
0100
0780
0780
0580
0DC0
0CC0
08E0
18E0
1FE0
1070
3070
3030
2038
F87C
ENDCHAR
STARTCHAR 1EA3
ENCODING 7843
SWIDTH 478 0
DWIDTH 11 0
BBX 10 16 1 0
BITMAP
0E00
1B00
0C00
0C00
0000
0000
3E00
6300
E300
0300
3F00
6300
C300
C300
FFC0
7B00
ENDCHAR
STARTCHAR 1EA4
ENCODING 7844
SWIDTH 608 0
DWIDTH 14 0
BBX 14 24 0 0
BITMAP
00C0
01E0
0380
0600
0300
0780
0FC0
0C60
1000
0000
0100
0780
0780
0580
0DC0
0CC0
08E0
18E0
1FE0
1070
3070
3030
2038
F87C
ENDCHAR
STARTCHAR 1EA5
ENCODING 7845
SWIDTH 478 0
DWIDTH 11 0
BBX 10 22 1 0
BITMAP
0700
0700
0C00
0800
1000
0C00
1E00
3E00
7300
4180
0000
0000
3E00
6300
E300
0300
3F00
6300
C300
C300
FFC0
7B00
ENDCHAR
STARTCHAR 1EA6
ENCODING 7846
SWIDTH 608 0
DWIDTH 14 0
BBX 14 24 0 0
BITMAP
0C00
1E00
0700
0080
0300
0780
0FC0
0C60
1000
0000
0100
0780
0780
0580
0DC0
0CC0
08E0
18E0
1FE0
1070
3070
3030
2038
F87C
ENDCHAR
STARTCHAR 1EA7
ENCODING 7847
SWIDTH 478 0
DWIDTH 11 0
BBX 10 22 1 0
BITMAP
7800
3800
1C00
0C00
0600
0C00
1E00
3E00
7300
4180
0000
0000
3E00
6300
E300
0300
3F00
6300
C300
C300
FFC0
7B00
ENDCHAR
STARTCHAR 1EA8
ENCODING 7848
SWIDTH 608 0
DWIDTH 14 0
BBX 14 24 0 0
BITMAP
03C0
06C0
0100
0300
0300
0780
0FC0
0C60
1000
0000
0100
0780
0780
0580
0DC0
0CC0
08E0
18E0
1FE0
1070
3070
3030
2038
F87C
ENDCHAR
STARTCHAR 1EA9
ENCODING 7849
SWIDTH 478 0
DWIDTH 11 0
BBX 10 21 1 0
BITMAP
1E00
1700
0C00
0400
0C00
1E00
3E00
7300
4180
0000
0000
3E00
6300
E300
0300
3F00
6300
C300
C300
FFC0
7B00
ENDCHAR
STARTCHAR 1EAA
ENCODING 7850
SWIDTH 608 0
DWIDTH 14 0
BBX 14 23 0 0
BITMAP
0F30
1FE0
11C0
0300
0780
0FC0
0C60
1000
0000
0100
0780
0780
0580
0DC0
0CC0
08E0
18E0
1FE0
1070
3070
3030
2038
F87C
ENDCHAR
STARTCHAR 1EAB
ENCODING 7851
SWIDTH 478 0
DWIDTH 11 0
BBX 10 21 1 0
BITMAP
3880
7D80
7F00
8600
0C00
1E00
3E00
7300
4180
0000
0000
3E00
6300
E300
0300
3F00
6300
C300
C300
FFC0
7B00
ENDCHAR
STARTCHAR 1EAC
ENCODING 7852
SWIDTH 608 0
DWIDTH 14 0
BBX 14 25 0 -5
BITMAP
0300
0780
0FC0
0C60
1000
0000
0100
0780
0780
0580
0DC0
0CC0
08E0
18E0
1FE0
1070
3070
3030
2038
F87C
0000
0000
0300
0380
0300
ENDCHAR
STARTCHAR 1EAD
ENCODING 7853
SWIDTH 478 0
DWIDTH 11 0
BBX 10 22 1 -5
BITMAP
0C00
1E00
3E00
7300
4180
0000
0000
3E00
6300
E300
0300
3F00
6300
C300
C300
FFC0
7B00
0000
0000
0C00
1C00
1800
ENDCHAR
STARTCHAR 1EAE
ENCODING 7854
SWIDTH 608 0
DWIDTH 14 0
BBX 14 23 0 0
BITMAP
00E0
01C0
0700
1440
1860
0FC0
07C0
0000
0000
0100
0780
0780
0580
0DC0
0CC0
08E0
18E0
1FE0
1070
3070
3030
2038
F87C
ENDCHAR
STARTCHAR 1EAF
ENCODING 7855
SWIDTH 478 0
DWIDTH 11 0
BBX 10 21 1 0
BITMAP
0700
0700
0E00
0C00
1800
4080
6300
3F00
1E00
0000
0000
3E00
6300
E300
0300
3F00
6300
C300
C300
FFC0
7B00
ENDCHAR
STARTCHAR 1EB0
ENCODING 7856
SWIDTH 608 0
DWIDTH 14 0
BBX 14 23 0 0
BITMAP
1C00
0F00
0380
10C0
1860
0FC0
07C0
0000
0000
0100
0780
0780
0580
0DC0
0CC0
08E0
18E0
1FE0
1070
3070
3030
2038
F87C
ENDCHAR
STARTCHAR 1EB1
ENCODING 7857
SWIDTH 478 0
DWIDTH 11 0
BBX 10 21 1 0
BITMAP
3000
7800
1800
0C00
0600
4080
6300
3F00
1E00
0000
0000
3E00
6300
E300
0300
3F00
6300
C300
C300
FFC0
7B00
ENDCHAR
STARTCHAR 1EB2
ENCODING 7858
SWIDTH 608 0
DWIDTH 14 0
BBX 14 23 0 0
BITMAP
07C0
0080
0300
1140
1860
0FC0
07C0
0000
0000
0100
0780
0780
0580
0DC0
0CC0
08E0
18E0
1FE0
1070
3070
3030
2038
F87C
ENDCHAR
STARTCHAR 1EB3
ENCODING 7859
SWIDTH 478 0
DWIDTH 11 0
BBX 10 20 1 0
BITMAP
0E00
1B00
0400
0C00
4080
6300
3F00
1E00
0000
0000
3E00
6300
E300
0300
3F00
6300
C300
C300
FFC0
7B00
ENDCHAR
STARTCHAR 1EB4
ENCODING 7860
SWIDTH 608 0
DWIDTH 14 0
BBX 14 24 0 0
BITMAP
0420
0FF0
1BC0
1000
1040
1860
0FC0
07C0
0000
0000
0100
0780
0780
0580
0DC0
0CC0
08E0
18E0
1FE0
1070
3070
3030
2038
F87C
ENDCHAR
STARTCHAR 1EB5
ENCODING 7861
SWIDTH 478 0
DWIDTH 11 0
BBX 10 20 1 0
BITMAP
3080
7C80
7F00
CF00
4080
6300
3F00
1E00
0000
0000
3E00
6300
E300
0300
3F00
6300
C300
C300
FFC0
7B00
ENDCHAR
STARTCHAR 1EB6
ENCODING 7862
SWIDTH 608 0
DWIDTH 14 0
BBX 14 25 0 -5
BITMAP
1040
1860
0FC0
07C0
0000
0000
0100
0780
0780
0580
0DC0
0CC0
08E0
18E0
1FE0
1070
3070
3030
2038
F87C
0000
0000
0300
0380
0300
ENDCHAR
STARTCHAR 1EB7
ENCODING 7863
SWIDTH 478 0
DWIDTH 11 0
BBX 10 21 1 -5
BITMAP
4080
6300
3F00
1E00
0000
0000
3E00
6300
E300
0300
3F00
6300
C300
C300
FFC0
7B00
0000
0000
0C00
1C00
1800
ENDCHAR
STARTCHAR 1EB8
ENCODING 7864
SWIDTH 521 0
DWIDTH 12 0
BBX 12 19 0 -5
BITMAP
FFE0
3860
3860
3840
3800
3800
3FC0
3880
3800
3800
3800
3830
3820
FFE0
0000
0000
0600
0600
0600
ENDCHAR
STARTCHAR 1EB9
ENCODING 7865
SWIDTH 478 0
DWIDTH 11 0
BBX 9 15 1 -5
BITMAP
1E00
6300
4180
C180
FF80
C000
C000
E180
7F00
3E00
0000
0000
0C00
0C00
0C00
ENDCHAR
STARTCHAR 1EBA
ENCODING 7866
SWIDTH 521 0
DWIDTH 12 0
BBX 12 20 0 0
BITMAP
0300
0D80
0300
0600
0000
0000
FFE0
3860
3860
3840
3800
3800
3FC0
3880
3800
3800
3800
3830
3820
FFE0
ENDCHAR
STARTCHAR 1EBB
ENCODING 7867
SWIDTH 478 0
DWIDTH 11 0
BBX 9 16 1 0
BITMAP
0E00
1B00
0400
0C00
0000
0000
1E00
6300
4180
C180
FF80
C000
C000
E180
7F00
3E00
ENDCHAR
STARTCHAR 1EBC
ENCODING 7868
SWIDTH 521 0
DWIDTH 12 0
BBX 12 19 0 0
BITMAP
0840
1FC0
3780
0000
0000
FFE0
3860
3860
3840
3800
3800
3FC0
3880
3800
3800
3800
3830
3820
FFE0
ENDCHAR
STARTCHAR 1EBD
ENCODING 7869
SWIDTH 478 0
DWIDTH 11 0
BBX 9 16 1 0
BITMAP
3880
3C80
7F00
4700
0000
0000
1E00
6300
4180
C180
FF80
C000
C000
E180
7F00
3E00
ENDCHAR
STARTCHAR 1EBE
ENCODING 7870
SWIDTH 521 0
DWIDTH 12 0
BBX 12 24 0 0
BITMAP
0180
03C0
0700
0800
0600
0F00
1F80
30C0
0000
0000
FFE0
3860
3860
3840
3800
3800
3FC0
3880
3800
3800
3800
3830
3820
FFE0
ENDCHAR
STARTCHAR 1EBF
ENCODING 7871
SWIDTH 478 0
DWIDTH 11 0
BBX 9 22 1 0
BITMAP
0780
0700
0E00
0C00
1800
0C00
1E00
3F00
3300
6080
0000
0000
1E00
6300
4180
C180
FF80
C000
C000
E180
7F00
3E00
ENDCHAR
STARTCHAR 1EC0
ENCODING 7872
SWIDTH 521 0
DWIDTH 12 0
BBX 12 24 0 0
BITMAP
1800
3C00
0E00
0100
0600
0F00
1F80
30C0
0000
0000
FFE0
3860
3860
3840
3800
3800
3FC0
3880
3800
3800
3800
3830
3820
FFE0
ENDCHAR
STARTCHAR 1EC1
ENCODING 7873
SWIDTH 478 0
DWIDTH 11 0
BBX 9 22 1 0
BITMAP
3800
3800
0C00
0400
0600
0C00
1E00
3F00
3300
6080
0000
0000
1E00
6300
4180
C180
FF80
C000
C000
E180
7F00
3E00
ENDCHAR
STARTCHAR 1EC2
ENCODING 7874
SWIDTH 521 0
DWIDTH 12 0
BBX 12 24 0 0
BITMAP
0780
0D80
0600
0600
0600
0F00
1F80
30C0
0000
0000
FFE0
3860
3860
3840
3800
3800
3FC0
3880
3800
3800
3800
3830
3820
FFE0
ENDCHAR
STARTCHAR 1EC3
ENCODING 7875
SWIDTH 478 0
DWIDTH 11 0
BBX 9 21 1 0
BITMAP
1F00
1300
0C00
0400
0C00
1E00
3F00
3300
6080
0000
0000
1E00
6300
4180
C180
FF80
C000
C000
E180
7F00
3E00
ENDCHAR
STARTCHAR 1EC4
ENCODING 7876
SWIDTH 521 0
DWIDTH 12 0
BBX 12 23 0 0
BITMAP
1E40
3FC0
2380
0600
0F00
1F80
30C0
0000
0000
FFE0
3860
3860
3840
3800
3800
3FC0
3880
3800
3800
3800
3830
3820
FFE0
ENDCHAR
STARTCHAR 1EC5
ENCODING 7877
SWIDTH 478 0
DWIDTH 11 0
BBX 9 21 1 0
BITMAP
3880
7C80
7F00
4200
0C00
1E00
3F00
3300
6080
0000
0000
1E00
6300
4180
C180
FF80
C000
C000
E180
7F00
3E00
ENDCHAR
STARTCHAR 1EC6
ENCODING 7878
SWIDTH 521 0
DWIDTH 12 0
BBX 12 25 0 -5
BITMAP
0600
0F00
1F80
30C0
0000
0000
FFE0
3860
3860
3840
3800
3800
3FC0
3880
3800
3800
3800
3830
3820
FFE0
0000
0000
0600
0600
0600
ENDCHAR
STARTCHAR 1EC7
ENCODING 7879
SWIDTH 478 0
DWIDTH 11 0
BBX 9 22 1 -5
BITMAP
0C00
1E00
3F00
3300
6080
0000
0000
1E00
6300
4180
C180
FF80
C000
C000
E180
7F00
3E00
0000
0000
0C00
0C00
0C00
ENDCHAR
STARTCHAR 1EC8
ENCODING 7880
SWIDTH 347 0
DWIDTH 8 0
BBX 6 20 1 0
BITMAP
10
78
38
30
00
00
FC
30
30
30
30
30
30
30
30
30
30
30
30
FC
ENDCHAR
STARTCHAR 1EC9
ENCODING 7881
SWIDTH 304 0
DWIDTH 7 0
BBX 5 16 1 0
BITMAP
78
58
30
30
00
00
70
F0
30
30
30
30
30
30
30
F8
ENDCHAR
STARTCHAR 1ECA
ENCODING 7882
SWIDTH 347 0
DWIDTH 8 0
BBX 6 19 1 -5
BITMAP
FC
30
30
30
30
30
30
30
30
30
30
30
30
FC
00
00
30
70
30
ENDCHAR
STARTCHAR 1ECB
ENCODING 7883
SWIDTH 304 0
DWIDTH 7 0
BBX 5 20 1 -5
BITMAP
30
70
30
00
00
70
F0
30
30
30
30
30
30
30
F8
00
00
30
70
60
ENDCHAR
STARTCHAR 1ECC
ENCODING 7884
SWIDTH 608 0
DWIDTH 14 0
BBX 12 19 1 -5
BITMAP
0F80
30C0
6060
4060
C030
C030
C030
C030
C030
C030
6060
6040
3080
1F00
0000
0000
0600
0700
0600
ENDCHAR
STARTCHAR 1ECD
ENCODING 7885
SWIDTH 521 0
DWIDTH 12 0
BBX 10 15 1 -5
BITMAP
1E00
2180
4180
C0C0
C0C0
C0C0
C0C0
6080
7100
1E00
0000
0000
0600
0E00
0C00
ENDCHAR
STARTCHAR 1ECE
ENCODING 7886
SWIDTH 608 0
DWIDTH 14 0
BBX 12 20 1 0
BITMAP
0300
0D80
0300
0600
0100
0000
0F80
30C0
6060
4060
C030
C030
C030
C030
C030
C030
6060
6040
3080
1F00
ENDCHAR
STARTCHAR 1ECF
ENCODING 7887
SWIDTH 521 0
DWIDTH 12 0
BBX 10 16 1 0
BITMAP
0F00
1B00
0600
0C00
0200
0000
1E00
2180
4180
C0C0
C0C0
C0C0
C0C0
6080
7100
1E00
ENDCHAR
STARTCHAR 1ED0
ENCODING 7888
SWIDTH 608 0
DWIDTH 14 0
BBX 12 24 1 0
BITMAP
0180
03C0
0700
0C00
0600
0F00
0F80
18C0
2000
0000
0F80
30C0
6060
4060
C030
C030
C030
C030
C030
C030
6060
6040
3080
1F00
ENDCHAR
STARTCHAR 1ED1
ENCODING 7889
SWIDTH 521 0
DWIDTH 12 0
BBX 10 22 1 0
BITMAP
0380
0700
0600
0C00
0800
0C00
1E00
1F00
3180
6080
0000
0000
1E00
2180
4180
C0C0
C0C0
C0C0
C0C0
6080
7100
1E00
ENDCHAR
STARTCHAR 1ED2
ENCODING 7890
SWIDTH 608 0
DWIDTH 14 0
BBX 12 24 1 0
BITMAP
1800
3C00
0E00
0100
0600
0F00
0F80
18C0
2000
0000
0F80
30C0
6060
4060
C030
C030
C030
C030
C030
C030
6060
6040
3080
1F00
ENDCHAR
STARTCHAR 1ED3
ENCODING 7891
SWIDTH 521 0
DWIDTH 12 0
BBX 10 22 1 0
BITMAP
3800
1C00
0C00
0600
0200
0C00
1E00
1F00
3180
6080
0000
0000
1E00
2180
4180
C0C0
C0C0
C0C0
C0C0
6080
7100
1E00
ENDCHAR
STARTCHAR 1ED4
ENCODING 7892
SWIDTH 608 0
DWIDTH 14 0
BBX 12 24 1 0
BITMAP
0780
0D80
0200
0600
0700
0F00
0F80
18C0
2000
0000
0F80
30C0
6060
4060
C030
C030
C030
C030
C030
C030
6060
6040
3080
1F00
ENDCHAR
STARTCHAR 1ED5
ENCODING 7893
SWIDTH 521 0
DWIDTH 12 0
BBX 10 21 1 0
BITMAP
0F00
1300
0C00
0600
0C00
1E00
1F00
3180
6080
0000
0000
1E00
2180
4180
C0C0
C0C0
C0C0
C0C0
6080
7100
1E00
ENDCHAR
STARTCHAR 1ED6
ENCODING 7894
SWIDTH 608 0
DWIDTH 14 0
BBX 12 23 1 0
BITMAP
1E60
3FC0
2380
0600
0F00
0F80
18C0
2000
0000
0F80
30C0
6060
4060
C030
C030
C030
C030
C030
C030
6060
6040
3080
1F00
ENDCHAR
STARTCHAR 1ED7
ENCODING 7895
SWIDTH 521 0
DWIDTH 12 0
BBX 10 21 1 0
BITMAP
38C0
3E80
7F00
4200
0C00
1E00
1F00
3180
6080
0000
0000
1E00
2180
4180
C0C0
C0C0
C0C0
C0C0
6080
7100
1E00
ENDCHAR
STARTCHAR 1ED8
ENCODING 7896
SWIDTH 608 0
DWIDTH 14 0
BBX 12 25 1 -5
BITMAP
0600
0F00
0F80
18C0
2000
0000
0F80
30C0
6060
4060
C030
C030
C030
C030
C030
C030
6060
6040
3080
1F00
0000
0000
0600
0700
0600
ENDCHAR
STARTCHAR 1ED9
ENCODING 7897
SWIDTH 521 0
DWIDTH 12 0
BBX 10 22 1 -5
BITMAP
0C00
1E00
1F00
3180
6080
0000
0000
1E00
2180
4180
C0C0
C0C0
C0C0
C0C0
6080
7100
1E00
0000
0000
0600
0E00
0C00
ENDCHAR
STARTCHAR 1EDA
ENCODING 7898
SWIDTH 608 0
DWIDTH 14 0
BBX 13 20 1 0
BITMAP
0100
01C0
0780
0E10
0038
0010
0FB0
10C0
2060
4060
C030
C030
C030
C030
C030
C020
6060
6040
3080
1F00
ENDCHAR
STARTCHAR 1EDB
ENCODING 7899
SWIDTH 608 0
DWIDTH 14 0
BBX 12 17 1 0
BITMAP
0380
0700
0600
0C00
0810
0070
0070
1E60
2180
41C0
C0C0
C0C0
C0C0
C0C0
6080
7100
1E00
ENDCHAR
STARTCHAR 1EDC
ENCODING 7900
SWIDTH 608 0
DWIDTH 14 0
BBX 13 20 1 0
BITMAP
1000
3800
1E00
0710
0038
0010
0FB0
10C0
2060
4060
C030
C030
C030
C030
C030
C020
6060
6040
3080
1F00
ENDCHAR
STARTCHAR 1EDD
ENCODING 7901
SWIDTH 608 0
DWIDTH 14 0
BBX 12 17 1 0
BITMAP
3800
1C00
0C00
0600
0210
0070
0070
1E60
2180
41C0
C0C0
C0C0
C0C0
C0C0
6080
7100
1E00
ENDCHAR
STARTCHAR 1EDE
ENCODING 7902
SWIDTH 608 0
DWIDTH 14 0
BBX 13 20 1 0
BITMAP
0300
0D80
0300
0610
0038
0010
0FB0
10C0
2060
4060
C030
C030
C030
C030
C030
C020
6060
6040
3080
1F00
ENDCHAR
STARTCHAR 1EDF
ENCODING 7903
SWIDTH 608 0
DWIDTH 14 0
BBX 12 16 1 0
BITMAP
0F00
1B00
0600
0E10
0070
0070
1E60
2180
41C0
C0C0
C0C0
C0C0
C0C0
6080
7100
1E00
ENDCHAR
STARTCHAR 1EE0
ENCODING 7904
SWIDTH 608 0
DWIDTH 14 0
BBX 13 19 1 0
BITMAP
0840
1FC0
3790
0038
0010
0FB0
10C0
2060
4060
C030
C030
C030
C030
C030
C020
6060
6040
3080
1F00
ENDCHAR
STARTCHAR 1EE1
ENCODING 7905
SWIDTH 608 0
DWIDTH 14 0
BBX 12 16 1 0
BITMAP
1840
3C80
3F80
4710
0070
0070
1E60
2180
41C0
C0C0
C0C0
C0C0
C0C0
6080
7100
1E00
ENDCHAR
STARTCHAR 1EE2
ENCODING 7906
SWIDTH 608 0
DWIDTH 14 0
BBX 13 22 1 -5
BITMAP
0010
0038
0010
0FB0
10C0
2060
4060
C030
C030
C030
C030
C030
C020
6060
6040
3080
1F00
0000
0000
0600
0600
0600
ENDCHAR
STARTCHAR 1EE3
ENCODING 7907
SWIDTH 608 0
DWIDTH 14 0
BBX 12 18 1 -5
BITMAP
0010
0070
0070
1E60
2180
41C0
C0C0
C0C0
C0C0
C0C0
6080
7100
1E00
0000
0000
0600
0E00
0C00
ENDCHAR
STARTCHAR 1EE4
ENCODING 7908
SWIDTH 652 0
DWIDTH 15 0
BBX 15 19 0 -5
BITMAP
FC7E
3018
3018
3018
3018
3018
3018
3018
3018
3018
3018
1830
1820
07C0
0000
0000
0180
0180
0180
ENDCHAR
STARTCHAR 1EE5
ENCODING 7909
SWIDTH 565 0
DWIDTH 13 0
BBX 12 15 1 -5
BITMAP
61C0
E0C0
60C0
60C0
60C0
60C0
60C0
61C0
7FF0
3CC0
0000
0000
0600
0E00
0C00
ENDCHAR
STARTCHAR 1EE6
ENCODING 7910
SWIDTH 652 0
DWIDTH 15 0
BBX 15 20 0 0
BITMAP
0080
0360
00C0
0180
0000
0000
FC7E
3018
3018
3018
3018
3018
3018
3018
3018
3018
3018
1830
1820
07C0
ENDCHAR
STARTCHAR 1EE7
ENCODING 7911
SWIDTH 565 0
DWIDTH 13 0
BBX 12 16 1 0
BITMAP
0F00
0B00
0600
0600
0000
0000
61C0
E0C0
60C0
60C0
60C0
60C0
60C0
61C0
7FF0
3CC0
ENDCHAR
STARTCHAR 1EE8
ENCODING 7912
SWIDTH 739 0
DWIDTH 17 0
BBX 17 20 0 0
BITMAP
004000
007000
01E000
038100
000780
000300
FC7E00
301C00
301800
301800
301800
301800
301800
301800
301800
301800
301800
183000
182000
07C000
ENDCHAR
STARTCHAR 1EE9
ENCODING 7913
SWIDTH 695 0
DWIDTH 16 0
BBX 15 17 1 0
BITMAP
0380
0780
0600
0C00
0806
001E
604E
E1CC
60F0
60C0
60C0
60C0
60C0
60C0
61C0
7FF0
3CC0
ENDCHAR
STARTCHAR 1EEA
ENCODING 7914
SWIDTH 739 0
DWIDTH 17 0
BBX 17 20 0 0
BITMAP
040000
0E0000
078000
01C100
000780
000300
FC7E00
301C00
301800
301800
301800
301800
301800
301800
301800
301800
301800
183000
182000
07C000
ENDCHAR
STARTCHAR 1EEB
ENCODING 7915
SWIDTH 695 0
DWIDTH 16 0
BBX 15 17 1 0
BITMAP
3800
1C00
0C00
0600
0206
001E
604E
E1CC
60F0
60C0
60C0
60C0
60C0
60C0
61C0
7FF0
3CC0
ENDCHAR
STARTCHAR 1EEC
ENCODING 7916
SWIDTH 739 0
DWIDTH 17 0
BBX 17 20 0 0
BITMAP
00C000
036000
00C000
018100
000780
000300
FC7E00
301C00
301800
301800
301800
301800
301800
301800
301800
301800
301800
183000
182000
07C000
ENDCHAR
STARTCHAR 1EED
ENCODING 7917
SWIDTH 695 0
DWIDTH 16 0
BBX 15 16 1 0
BITMAP
0F00
0B00
0600
0606
001E
604E
E1CC
60F0
60C0
60C0
60C0
60C0
60C0
61C0
7FF0
3CC0
ENDCHAR
STARTCHAR 1EEE
ENCODING 7918
SWIDTH 739 0
DWIDTH 17 0
BBX 17 19 0 0
BITMAP
021000
07F000
0DE100
000780
000300
FC7E00
301C00
301800
301800
301800
301800
301800
301800
301800
301800
301800
183000
182000
07C000
ENDCHAR
STARTCHAR 1EEF
ENCODING 7919
SWIDTH 695 0
DWIDTH 16 0
BBX 15 16 1 0
BITMAP
1840
3C80
3F80
4706
001E
604E
E1CC
60F0
60C0
60C0
60C0
60C0
60C0
61C0
7FF0
3CC0
ENDCHAR
STARTCHAR 1EF0
ENCODING 7920
SWIDTH 739 0
DWIDTH 17 0
BBX 17 22 0 -5
BITMAP
000100
000780
000300
FC7E00
301C00
301800
301800
301800
301800
301800
301800
301800
301800
301800
183000
182000
07C000
000000
000000
018000
018000
018000
ENDCHAR
STARTCHAR 1EF1
ENCODING 7921
SWIDTH 695 0
DWIDTH 16 0
BBX 15 18 1 -5
BITMAP
0006
001E
604E
E1CC
60F0
60C0
60C0
60C0
60C0
60C0
61C0
7FF0
3CC0
0000
0000
0600
0E00
0C00
ENDCHAR
STARTCHAR 1EF2
ENCODING 7922
SWIDTH 608 0
DWIDTH 14 0
BBX 13 20 0 0
BITMAP
0800
1C00
0F00
0380
0000
0000
F078
3830
1C60
1C60
0EC0
0680
0780
0300
0300
0300
0300
0300
0300
0FC0
ENDCHAR
STARTCHAR 1EF3
ENCODING 7923
SWIDTH 521 0
DWIDTH 12 0
BBX 13 22 -1 -5
BITMAP
0E00
0E00
0700
0300
0180
0000
0000
7C78
3820
1C60
1C40
0EC0
0EC0
0680
0780
0700
0300
0300
0600
4600
7C00
F800
ENDCHAR
STARTCHAR 1EF4
ENCODING 7924
SWIDTH 608 0
DWIDTH 14 0
BBX 13 19 0 -5
BITMAP
F078
3830
1C60
1C60
0EC0
0680
0780
0300
0300
0300
0300
0300
0300
0FC0
0000
0000
0300
0300
0300
ENDCHAR
STARTCHAR 1EF5
ENCODING 7925
SWIDTH 521 0
DWIDTH 12 0
BBX 13 15 -1 -5
BITMAP
7C78
3820
1C60
1C40
0EC0
0EC0
0680
0780
0700
0300
0300
0600
4660
7C70
F860
ENDCHAR
STARTCHAR 1EF6
ENCODING 7926
SWIDTH 608 0
DWIDTH 14 0
BBX 13 20 0 0
BITMAP
0180
06C0
0180
0300
0000
0000
F078
3830
1C60
1C60
0EC0
0680
0780
0300
0300
0300
0300
0300
0300
0FC0
ENDCHAR
STARTCHAR 1EF7
ENCODING 7927
SWIDTH 521 0
DWIDTH 12 0
BBX 13 21 -1 -5
BITMAP
03C0
06C0
0180
0300
0000
0000
7C78
3820
1C60
1C40
0EC0
0EC0
0680
0780
0700
0300
0300
0600
4600
7C00
F800
ENDCHAR
STARTCHAR 1EF8
ENCODING 7928
SWIDTH 608 0
DWIDTH 14 0
BBX 13 19 0 0
BITMAP
0420
0FE0
1BC0
0000
0000
F078
3830
1C60
1C60
0EC0
0680
0780
0300
0300
0300
0300
0300
0300
0FC0
ENDCHAR
STARTCHAR 1EF9
ENCODING 7929
SWIDTH 521 0
DWIDTH 12 0
BBX 13 21 -1 -5
BITMAP
0630
0F20
1FE0
11C0
0000
0000
7C78
3820
1C60
1C40
0EC0
0EC0
0680
0780
0700
0300
0300
0600
4600
7C00
F800
ENDCHAR
STARTCHAR 2011
ENCODING 8209
SWIDTH 347 0
DWIDTH 8 0
BBX 7 1 1 5
BITMAP
FE
ENDCHAR
STARTCHAR 2013
ENCODING 8211
SWIDTH 478 0
DWIDTH 11 0
BBX 10 1 1 5
BITMAP
FFC0
ENDCHAR
STARTCHAR 2014
ENCODING 8212
SWIDTH 782 0
DWIDTH 18 0
BBX 17 1 1 5
BITMAP
FFFF80
ENDCHAR
STARTCHAR 2018
ENCODING 8216
SWIDTH 260 0
DWIDTH 6 0
BBX 4 7 1 9
BITMAP
20
40
C0
C0
E0
F0
40
ENDCHAR
STARTCHAR 2019
ENCODING 8217
SWIDTH 260 0
DWIDTH 6 0
BBX 4 7 1 10
BITMAP
20
F0
70
30
30
20
40
ENDCHAR
STARTCHAR 201A
ENCODING 8218
SWIDTH 260 0
DWIDTH 6 0
BBX 4 7 1 -4
BITMAP
20
F0
70
30
30
20
40
ENDCHAR
STARTCHAR 201C
ENCODING 8220
SWIDTH 478 0
DWIDTH 11 0
BBX 9 7 1 9
BITMAP
2100
4200
C600
C600
E700
F780
4200
ENDCHAR
STARTCHAR 201D
ENCODING 8221
SWIDTH 478 0
DWIDTH 11 0
BBX 9 7 1 10
BITMAP
2100
F780
7380
3180
3180
2100
4200
ENDCHAR
STARTCHAR 201E
ENCODING 8222
SWIDTH 478 0
DWIDTH 11 0
BBX 9 7 1 -4
BITMAP
2100
F780
7380
3180
3180
2100
4200
ENDCHAR
STARTCHAR 2020
ENCODING 8224
SWIDTH 478 0
DWIDTH 11 0
BBX 10 17 1 0
BITMAP
0600
1E00
0C00
0C00
7FC0
FFC0
8C80
0C00
1E00
1E00
0C00
0C00
0C00
0C00
0C00
0C00
1E00
ENDCHAR
STARTCHAR 2021
ENCODING 8225
SWIDTH 478 0
DWIDTH 11 0
BBX 10 17 1 0
BITMAP
0600
1E00
0C00
0C00
FFC0
FFC0
8C80
0C00
1E00
0C00
4C40
FFC0
FF80
0C00
0C00
1E00
1800
ENDCHAR
STARTCHAR 2022
ENCODING 8226
SWIDTH 260 0
DWIDTH 6 0
BBX 5 6 1 4
BITMAP
70
F0
F8
F8
F0
60
ENDCHAR
STARTCHAR 2026
ENCODING 8230
SWIDTH 826 0
DWIDTH 19 0
BBX 17 3 1 0
BITMAP
60C380
F1E780
E1C300
ENDCHAR
STARTCHAR 2030
ENCODING 8240
SWIDTH 1086 0
DWIDTH 25 0
BBX 23 14 1 0
BITMAP
381800
4C1000
C63000
C66000
C6C000
C78000
658000
3B3838
064444
0CC6C6
0CC6C6
18C6C6
306464
603838
ENDCHAR
STARTCHAR 2039
ENCODING 8249
SWIDTH 304 0
DWIDTH 7 0
BBX 5 10 1 0
BITMAP
08
10
30
60
E0
E0
60
30
10
08
ENDCHAR
STARTCHAR 203A
ENCODING 8250
SWIDTH 304 0
DWIDTH 7 0
BBX 6 10 1 0
BITMAP
C0
60
60
30
38
3C
30
60
60
C0
ENDCHAR
STARTCHAR 2044
ENCODING 8260
SWIDTH 608 0
DWIDTH 14 0
BBX 11 14 2 0
BITMAP
0020
0060
00C0
0180
0100
0300
0600
0C00
0800
1800
3000
6000
4000
C000
ENDCHAR
STARTCHAR 20AC
ENCODING 8364
SWIDTH 521 0
DWIDTH 12 0
BBX 11 14 0 0
BITMAP
07E0
18E0
3840
3800
3000
7F80
7000
7000
FF00
3000
3800
3800
1C60
0F80
ENDCHAR
STARTCHAR 2122
ENCODING 8482
SWIDTH 608 0
DWIDTH 14 0
BBX 14 5 0 9
BITMAP
FF1C
B718
32F8
32D8
7FBC
ENDCHAR
STARTCHAR 2126
ENCODING 8486
SWIDTH 695 0
DWIDTH 16 0
BBX 14 14 1 0
BITMAP
0FC0
3030
6018
600C
C00C
C00C
C00C
C00C
6018
2010
9024
9044
F87C
F87C
ENDCHAR
STARTCHAR 2202
ENCODING 8706
SWIDTH 521 0
DWIDTH 12 0
BBX 10 16 1 0
BITMAP
1E00
6380
0180
01C0
00C0
00C0
1EC0
23C0
41C0
C0C0
C0C0
C0C0
C080
E180
7100
1E00
ENDCHAR
STARTCHAR 2205
ENCODING 8709
SWIDTH 652 0
DWIDTH 15 0
BBX 13 16 1 -1
BITMAP
0018
0FB0
3060
2060
60F0
C198
C398
C318
C618
CE18
CC18
7830
3020
3060
6F80
C000
ENDCHAR
STARTCHAR 2206
ENCODING 8710
SWIDTH 608 0
DWIDTH 14 0
BBX 12 14 1 0
BITMAP
0200
0E00
0F00
1F00
1B80
1380
3180
31C0
61C0
60E0
60E0
C0F0
C070
FFF0
ENDCHAR
STARTCHAR 220F
ENCODING 8719
SWIDTH 652 0
DWIDTH 15 0
BBX 15 14 0 0
BITMAP
FFFE
3018
3018
3018
3018
3018
3018
3018
3018
3018
3018
3018
3018
FC7E
ENDCHAR
STARTCHAR 2211
ENCODING 8721
SWIDTH 565 0
DWIDTH 13 0
BBX 11 14 1 0
BITMAP
FFC0
F040
7040
3800
3800
1C00
0E00
0C00
1800
3000
3020
6060
FFE0
FFE0
ENDCHAR
STARTCHAR 2212
ENCODING 8722
SWIDTH 434 0
DWIDTH 10 0
BBX 8 1 1 6
BITMAP
FF
ENDCHAR
STARTCHAR 2219
ENCODING 8729
SWIDTH 217 0
DWIDTH 5 0
BBX 4 3 0 6
BITMAP
60
F0
E0
ENDCHAR
STARTCHAR 221A
ENCODING 8730
SWIDTH 608 0
DWIDTH 14 0
BBX 15 16 0 0
BITMAP
001E
0010
0030
0030
0020
7020
F060
3840
1840
1CC0
0CC0
0E80
0E80
0780
0780
0300
ENDCHAR
STARTCHAR 221E
ENCODING 8734
SWIDTH 695 0
DWIDTH 16 0
BBX 14 6 1 3
BITMAP
3C38
46CC
C30C
C78C
FDF8
70F0
ENDCHAR
STARTCHAR 222B
ENCODING 8747
SWIDTH 304 0
DWIDTH 7 0
BBX 12 22 -3 -5
BITMAP
01F0
0260
0200
0600
0600
0600
0600
0600
0600
0600
0600
0600
0600
0600
0600
0600
0600
0600
0600
4400
F800
F000
ENDCHAR
STARTCHAR 2248
ENCODING 8776
SWIDTH 434 0
DWIDTH 10 0
BBX 9 6 1 3
BITMAP
7F80
8000
0000
7000
9980
8700
ENDCHAR
STARTCHAR 2260
ENCODING 8800
SWIDTH 434 0
DWIDTH 10 0
BBX 9 10 1 1
BITMAP
0300
0300
0600
FF80
1C00
1800
FF80
6000
6000
C000
ENDCHAR
STARTCHAR 2264
ENCODING 8804
SWIDTH 434 0
DWIDTH 10 0
BBX 9 10 1 2
BITMAP
0180
0F80
3E00
F000
F000
3E00
0780
0100
0000
FF80
ENDCHAR
STARTCHAR 2265
ENCODING 8805
SWIDTH 434 0
DWIDTH 10 0
BBX 9 10 1 2
BITMAP
C000
F800
1F00
0780
0F00
7C00
E000
8000
0000
FF80
ENDCHAR
STARTCHAR 25CA
ENCODING 9674
SWIDTH 347 0
DWIDTH 8 0
BBX 8 14 0 0
BITMAP
08
1C
3C
2E
66
47
C3
E3
62
76
34
3C
1C
10
ENDCHAR
STARTCHAR 25CC
ENCODING 9676
SWIDTH 521 0
DWIDTH 12 0
BBX 11 10 1 0
BITMAP
3F00
3180
0000
C060
8040
0000
C060
0000
3180
3F00
ENDCHAR
STARTCHAR 2C60
ENCODING 11360
SWIDTH 521 0
DWIDTH 12 0
BBX 11 14 0 0
BITMAP
FC00
3000
3000
3000
3000
FF00
3000
3000
FF00
3000
3000
3060
3040
FFC0
ENDCHAR
STARTCHAR 2C61
ENCODING 11361
SWIDTH 347 0
DWIDTH 8 0
BBX 6 17 1 0
BITMAP
30
F0
30
30
30
30
FC
30
30
FC
30
30
30
30
30
30
FC
ENDCHAR
STARTCHAR 2C62
ENCODING 11362
SWIDTH 521 0
DWIDTH 12 0
BBX 12 14 -1 0
BITMAP
7E00
1800
1800
1800
1800
1800
7900
9E00
1800
1800
1800
1830
1820
7FE0
ENDCHAR
STARTCHAR A789
ENCODING 42889
SWIDTH 217 0
DWIDTH 5 0
BBX 4 8 1 1
BITMAP
60
F0
E0
00
00
60
F0
E0
ENDCHAR
STARTCHAR A78A
ENCODING 42890
SWIDTH 347 0
DWIDTH 8 0
BBX 7 4 1 3
BITMAP
FE
00
00
FE
ENDCHAR
STARTCHAR A78B
ENCODING 42891
SWIDTH 304 0
DWIDTH 7 0
BBX 4 10 1 8
BITMAP
30
F0
70
70
60
60
60
60
60
60
ENDCHAR
STARTCHAR A78C
ENCODING 42892
SWIDTH 260 0
DWIDTH 6 0
BBX 3 10 2 7
BITMAP
60
E0
E0
E0
C0
C0
C0
C0
C0
C0
ENDCHAR
STARTCHAR F130
ENCODING 61744
SWIDTH 173 0
DWIDTH 4 0
BBX 3 3 1 -3
BITMAP
E0
20
20
ENDCHAR
STARTCHAR F131
ENCODING 61745
SWIDTH 173 0
DWIDTH 4 0
BBX 3 3 0 -3
BITMAP
E0
80
80
ENDCHAR
STARTCHAR F195
ENCODING 61845
SWIDTH 217 0
DWIDTH 5 0
BBX 5 5 0 12
BITMAP
E0
70
30
18
08
ENDCHAR
STARTCHAR F197
ENCODING 61847
SWIDTH 217 0
DWIDTH 5 0
BBX 5 5 0 12
BITMAP
38
38
70
60
C0
ENDCHAR
STARTCHAR F1C8
ENCODING 61896
SWIDTH 347 0
DWIDTH 8 0
BBX 7 8 0 9
BITMAP
3C
C6
C6
06
0C
18
18
18
ENDCHAR
STARTCHAR F1E9
ENCODING 61929
SWIDTH 217 0
DWIDTH 5 0
BBX 4 8 1 1
BITMAP
60
F0
E0
00
00
60
F0
E0
ENDCHAR
STARTCHAR F1EA
ENCODING 61930
SWIDTH 347 0
DWIDTH 8 0
BBX 7 4 1 3
BITMAP
FE
00
00
FE
ENDCHAR
STARTCHAR F20E
ENCODING 61966
SWIDTH 347 0
DWIDTH 8 0
BBX 6 17 1 0
BITMAP
30
F0
30
30
30
30
FC
30
30
FC
30
30
30
30
30
30
FC
ENDCHAR
STARTCHAR F20F
ENCODING 61967
SWIDTH 521 0
DWIDTH 12 0
BBX 11 14 0 0
BITMAP
FC00
3000
3000
3000
3000
FF00
3000
3000
FF00
3000
3000
3060
3040
FFC0
ENDCHAR
STARTCHAR F211
ENCODING 61969
SWIDTH 565 0
DWIDTH 13 0
BBX 15 15 1 -5
BITMAP
1E40
61C0
40C0
C0C0
C0C0
C0C0
C0C0
61C0
7FC0
3CC0
00C0
00C2
00CE
00CE
0078
ENDCHAR
STARTCHAR F212
ENCODING 61970
SWIDTH 652 0
DWIDTH 15 0
BBX 17 19 1 -5
BITMAP
0F2000
10E000
206000
606000
406000
C06000
C06000
C06000
C06000
C06000
606000
71E000
3F6000
1E6000
006000
006080
006180
006100
003E00
ENDCHAR
STARTCHAR F218
ENCODING 61976
SWIDTH 695 0
DWIDTH 16 0
BBX 16 14 0 0
BITMAP
FC3F
300C
300C
300C
300C
300C
FFFF
300C
300C
300C
300C
1818
0C30
07E0
ENDCHAR
STARTCHAR F219
ENCODING 61977
SWIDTH 652 0
DWIDTH 15 0
BBX 15 14 0 0
BITMAP
0100
0380
0380
07C0
05C0
0CE0
0CE0
0860
1870
1870
1038
3038
3018
F87E
ENDCHAR
STARTCHAR F21D
ENCODING 61981
SWIDTH 260 0
DWIDTH 6 0
BBX 3 10 2 7
BITMAP
60
E0
E0
E0
C0
C0
C0
C0
C0
C0
ENDCHAR
STARTCHAR F21E
ENCODING 61982
SWIDTH 434 0
DWIDTH 10 0
BBX 8 10 1 0
BITMAP
3E
C7
C3
83
04
18
30
30
30
FC
ENDCHAR
STARTCHAR F21F
ENCODING 61983
SWIDTH 521 0
DWIDTH 12 0
BBX 11 14 0 0
BITMAP
FC00
3000
3000
3000
3000
3000
3000
FF00
3000
3000
3000
3060
3040
FFC0
ENDCHAR
STARTCHAR F242
ENCODING 62018
SWIDTH 521 0
DWIDTH 12 0
BBX 12 14 -1 0
BITMAP
7E00
1800
1800
1800
1800
1800
7900
9E00
1800
1800
1800
1830
1820
7FE0
ENDCHAR
STARTCHAR F26A
ENCODING 62058
SWIDTH 304 0
DWIDTH 7 0
BBX 4 10 1 8
BITMAP
30
F0
70
70
60
60
60
60
60
60
ENDCHAR
STARTCHAR FB01
ENCODING 64257
SWIDTH 652 0
DWIDTH 15 0
BBX 15 17 0 0
BITMAP
03E0
0CC0
1018
1038
3018
3000
3000
7E78
B418
3018
3018
3018
3018
3018
3018
3018
7C7E
ENDCHAR
STARTCHAR FB02
ENCODING 64258
SWIDTH 652 0
DWIDTH 15 0
BBX 15 17 0 0
BITMAP
0798
08F8
1018
1018
3018
3018
3018
7E18
B018
3018
3018
3018
3018
3018
3018
3018
7C7E
ENDCHAR
ENDFONT
